<svg t="1710818577875" class="icon" viewBox="0 0 1024 1024" version="1.1" xmlns="http://www.w3.org/2000/svg" p-id="16050" width="25" height="25">
<path d="M100 512V273h738v128h85v222h-85v128H100z m669 0V341H168v342h601zM228.461 621.75c-0.262-0.688-0.36-50.525-0.219-110.75l0.258-109.5 37.25-0.262 37.25-0.262V623h-37.031c-28.705 0-37.139-0.281-37.508-1.25zM364 512V401h74v222h-74z m135 0V401h74v222h-74z m135 0V400.976l37.25 0.262 37.25 0.262v221l-37.25 0.262-37.25 0.262z" fill="#E7F7E4" p-id="16051"></path>
<path d="M100 512V273h737v128h86v222h-86v128H100z m669 0V340H168v344h601z m-540 0V401h74v222h-74z m135 0V401h74v222h-74z m135 0V401h74v222h-74z m135 0V401h74v222h-74z" fill="#A8E49A" p-id="16052"></path>
<path d="M100 512V273h737v128h86v222h-86v128H100z m669.5 0V340.5l-300.75-0.252-300.75-0.251v344.006l300.75-0.251 300.75-0.252zM229 512V400.975l36.75 0.263 36.75 0.262v221l-36.75 0.262-36.75 0.263z m135.466 109.763c-0.265-0.695-0.365-50.538-0.224-110.763l0.258-109.5h73v221l-36.277 0.263c-28.485 0.206-36.38-0.01-36.757-1z m135 0c-0.265-0.695-0.365-50.538-0.224-110.763l0.258-109.5h73v221l-36.277 0.263c-28.485 0.206-36.38-0.01-36.757-1z m134.995-0.013c-0.262-0.688-0.36-50.525-0.219-110.75l0.258-109.5 36.75-0.262 36.75-0.263V623h-36.531c-28.305 0-36.639-0.281-37.008-1.25z" fill="#91DE80" p-id="16053"></path>
<path d="M100 512V273h736.985l0.258 64.25 0.257 64.25 42.75 0.26 42.75 0.261V621.98l-42.75 0.26-42.75 0.261-0.257 64.25-0.258 64.25H100z m670-0.002V339.996l-301.006 0.252-301.006 0.252 0.003 171.25c0.002 94.187 0.004 171.475 0.006 171.75 0.002 0.275 135.453 0.5 301.003 0.5h301V511.998zM229 512V402h74v220h-74z m135 0V402h74v220h-74z m135 0V402h74v220h-74z m135 0V402h74v220h-74z" fill="#89DB76" p-id="16054"></path>
<path d="M100 512V273h737v129h86v220h-86v129H100z m670 0V340H167v344h603z m-541 0V402h74v220h-74z m135 0V402h74v220h-74z m135 0V402h74v220h-74z m135 0V402h74v220h-74z" fill="#69D151" p-id="16055"></path>
<path d="M100 512V273h737v129h86v220h-86v129H100z m670 0V340H167v344h603z m-541 0V402h73.5v220H229z m135 0V402h74v220h-74z m135.5 0V402H573v220h-73.5z m135.5 0V402h73v220h-73z" fill="#4CC931" p-id="16056"></path>
<path d="M100 512V273h737v129h86v220h-86v129H100z m670 0V340H167v344h603z m-541 0V402h73v220h-73z m135.5 0V402H437v220h-72.5z m135.5 0V402h72.5v220H500z m135 0V402h73v220h-73z" fill="#2DC00B" p-id="16057"></path>
</svg>