<svg t="1716727216419" class="icon" viewBox="0 0 1024 1024" version="1.1"
    xmlns="http://www.w3.org/2000/svg" p-id="2668" width="25" height="25">
    <path d="M286.848 301.397333c75.946667 0 137.6-61.013333 137.6-136.106666S362.752 29.269333 286.848 29.269333c-75.946667 0-137.6 61.013333-137.6 136.106667s61.696 136.064 137.6 136.064z m0-231.509333c53.76 0 98.048 43.818667 98.048 96.981333 0 53.205333-44.288 96.981333-98.048 96.981334S188.8 220.074667 188.8 166.869333c0-53.162667 44.288-96.981333 98.048-96.981333zM726.528 273.237333h52.181333l-25.301333 42.24c-3.157333 4.693333-3.157333 9.386667-1.578667 15.658667a24.32 24.32 0 0 0 9.472 12.501333c3.157333 1.578667 6.314667 3.114667 11.093334 3.114667 6.314667 0 14.208-3.114667 17.365333-9.386667l44.288-71.936a22.997333 22.997333 0 0 0 0-20.352c-3.157333-6.229333-9.472-9.386667-17.365333-9.386666h-52.224l25.301333-42.24c3.2-4.693333 3.2-9.386667 1.578667-15.616a24.32 24.32 0 0 0-9.472-12.501334 23.04 23.04 0 0 0-11.093334-3.157333c-7.893333 0-14.208 3.157333-17.365333 9.386667L709.12 243.541333a22.954667 22.954667 0 0 0 0 20.309334c3.157333 4.693333 9.472 9.386667 17.408 9.386666zM389.632 334.250667H184.064a107.093333 107.093333 0 0 0-107.562667 106.368v275.285333c0 10.922667 9.472 20.309333 20.565334 20.309333h37.973333v240.896c0 10.965333 9.472 20.352 20.522667 20.352h264.106666c11.093333 0 20.565333-9.386667 20.565334-20.352v-240.896h37.973333c11.093333 0 20.565333-9.386667 20.565333-20.309333v-275.285333c-1.578667-57.898667-50.602667-106.368-109.141333-106.368z m9.514667 383.232v240.853333h-91.733334v-183.04a20.821333 20.821333 0 0 0-20.565333-20.309333c-11.093333 0-20.565333 9.386667-20.565333 20.352v183.04h-91.733334v-240.896a20.821333 20.821333 0 0 0-20.565333-20.352h-37.973333v-256.512c0-37.546667 30.08-67.285333 68.053333-67.285334h205.568c37.973333 0 68.010667 29.738667 68.010667 67.285334v256.512h-37.973334a19.84 19.84 0 0 0-20.522666 20.352z" fill="#1296db" p-id="2669"></path>
    <path d="M770.816 58.965333c-107.562667 0-196.138667 87.594667-196.138667 193.92 0 106.368 88.576 193.962667 196.138667 193.962667 107.52 0 196.096-87.594667 196.096-193.962667 0-106.325333-88.576-193.92-196.096-193.92z m0 39.082667c85.376 0 156.586667 68.821333 156.586667 154.88 0 86.016-69.632 154.837333-156.586667 154.837333-85.418667 0-156.586667-68.821333-156.586667-154.88 0-86.016 71.168-154.837333 156.586667-154.837333z" fill="#1296db" p-id="2670"></path>
</svg>