<svg t="1710742133284" class="icon" viewBox="0 0 1024 1024" version="1.1"
    xmlns="http://www.w3.org/2000/svg" p-id="5413" width="25" height="25">
    <path d="M629.613714 146.285714a507.830857 507.830857 0 0 0-225.133714-66.413714 24.137143 24.137143 0 0 0-14.628571 2.413714 30.939429 30.939429 0 0 0-17.554286 21.284572 29.988571 29.988571 0 0 0 0 14.189714l2.633143 6.656 0.438857 0.804571c12.873143 24.941714 12.141714 55.149714 9.947428 83.602286a549.741714 549.741714 0 0 1-49.737142 187.026286l-0.804572 1.755428c-22.308571-26.038857-40.740571-56.100571-64.146286-81.92A25.380571 25.380571 0 0 0 258.998857 307.2a55.661714 55.661714 0 0 0-6.217143-1.828571 39.936 39.936 0 0 0-12.873143 0 35.84 35.84 0 0 0-16.164571 10.166857l-3.584 5.412571C174.153143 409.6 134.144 520.630857 146.285714 627.126857l1.389715 6.217143v1.024a338.358857 338.358857 0 0 0 104.813714 210.212571c64.877714 60.854857 152.941714 93.988571 241.371428 99.401143a30.866286 30.866286 0 0 0 35.620572-37.961143 30.061714 30.061714 0 0 0-6.802286-12.434285c-29.257143-32.475429-36.059429-78.701714-31.305143-121.490286 9.289143-83.382857 58.514286-154.697143 114.614857-215.259429a289.353143 289.353143 0 0 1 47.396572 86.528C679.424 718.555429 672.914286 800.914286 650.971429 876.763429a29.257143 29.257143 0 0 0-3.072 8.265142 27.209143 27.209143 0 0 0-0.658286 5.924572v0.950857a30.354286 30.354286 0 0 0 54.418286 20.626286l7.314285-4.754286a373.028571 373.028571 0 0 0 170.861715-317.366857C877.714286 417.426286 782.994286 236.470857 629.613714 146.285714z" fill="#d81e06" p-id="5414"></path>
</svg>