<svg t="1716713827286" class="icon" viewBox="0 0 1024 1024" version="1.1"
    xmlns="http://www.w3.org/2000/svg" p-id="1475" width="25" height="25">
    <path d="M394.084174 617.828174c-17.563826-18.298435-33.391304-39.69113-65.758609-38.511304-62.107826 2.493217-124.482783 1.313391-186.746435 0.289391-22.105043-0.445217-42.473739 4.697043-41.583304 28.271304 0.712348 22.706087 21.526261 28.271304 43.341913 27.692522 37.798957-0.890435 75.731478-0.311652 113.508174-0.311652v-0.289392c41.449739 0 83.055304 0.289391 124.505044-0.133565 11.130435 0 27.536696-1.625043 12.733217-17.007304zM140.265739 416.589913c39.112348-0.155826 78.514087-3.227826 117.181218 0.868174 47.437913 5.142261 82.16487-10.818783 113.352347-55.785739-80.851478 0-156.137739 0.422957-231.424-0.289391-20.502261-0.155826-39.69113 3.072-38.800695 26.490434 0.734609 21.23687 19.033043 28.716522 39.69113 28.716522zM128.845913 521.305043c24.464696-0.868174 48.90713-0.289391 73.371826-0.289391v0.155826c21.971478 0 44.098783 1.157565 66.070261-0.445217 11.130435-0.734609 29.718261 8.637217 30.319304-14.491826 0.422957-16.851478-4.118261-33.992348-23.151304-36.329739-50.977391-6.010435-102.244174-6.589217-153.199304 0.445217-12.310261 1.758609-26.512696 11.865043-22.127305 28.40487 3.227826 13.04487 11.865043 23.151304 28.716522 22.55026z" fill="#0f7e16" p-id="1476"></path>
    <path d="M920.932174 400.339478c-18.298435-41.894957-53.448348-21.971478-82.899478-23.730087-27.670261-1.625043-56.097391 30.029913-79.671653 9.082435-20.21287-18.031304-32.077913-47.905391-41.449739-74.707478-12.02087-34.57113-39.69113-59.013565-61.818434-95.053913 78.358261 30.163478 125.529043 2.048 148.368695-35.016348 26.37913-42.76313 19.055304-98.860522-16.695652-131.806609-36.173913-33.257739-90.512696-38.377739-130.649043-12.020869-51.266783 33.702957-58.590609 76.755478-23.863653 162.148174-55.652174-17.430261-101.798957-43.942957-150.861913-63.287653-19.478261-7.746783-38.088348-26.935652-60.794434-17.719652-60.193391 24.620522-119.941565 50.109217-178.532174 78.358261-36.040348 17.430261-43.653565 42.340174-28.560696 70.010435 12.288 22.706087 43.631304 29.896348 74.395826 16.406261 26.37913-11.553391 53.025391-22.839652 78.358261-36.463305 42.473739-22.839652 80.851478-23.129043 122.301217 5.565218 26.957913 18.743652 23.151304 30.185739 3.227826 49.218782-45.100522 42.918957-93.295304 82.743652-130.938434 132.85287-27.692522 36.752696-26.35687 74.685217 6.745043 106.473739 40.848696 38.956522 83.478261 76.154435 124.928 114.532174 12.889043 11.865043 24.019478 23.885913-6.010435 29.45113-40.425739 7.457391-80.11687 18.298435-120.386782 26.646261-29.45113 6.010435-53.604174 33.391304-48.484174 57.410783 6.010435 28.42713 41.004522 46.592 71.190261 39.401739 79.805217-18.877217 159.49913-37.487304 239.749565-54.182956 41.160348-8.637217 60.349217-49.664 35.59513-82.610087-22.995478-30.764522-47.749565-60.193391-70.010434-91.403131-52.134957-73.238261-51.689739-73.661217 13.913043-137.817043 36.908522-36.040348 36.61913-35.884522 64.734609 11.130434 12.176696 20.346435 22.706087 45.100522 52.736 42.763131 59.458783-4.674783 117.025391-19.923478 174.146782-35.305739 21.971478-5.988174 30.608696-38.956522 21.23687-60.326957zM621.256348 769.001739c-28.560696 21.081043-68.674783 9.060174-101.487305 27.826087-10.106435 5.698783-18.454261 13.022609-23.885913 21.23687-28.40487 43.052522-54.472348 87.574261-82.610087 130.782608-16.695652 25.488696-10.24 47.905391 10.707479 63.577044 22.394435 16.695652 49.641739 16.406261 67.650782-7.902609 50.688-68.407652 99.906783-137.97287 149.103305-207.404522 13.779478-19.344696 1.758609-25.644522-19.478261-28.115478z" fill="#0f7e16" p-id="1477"></path>
</svg>