<svg t="1710743159761" class="icon" viewBox="0 0 1024 1024" version="1.1"
    xmlns="http://www.w3.org/2000/svg" p-id="9256" width="25" height="25">
    <path d="M0 0h1024v1024H0z" fill-opacity="0" p-id="9257" fill="#dbdbdb"></path>
    <path d="M321.163636 130.327273C321.163636 55.854545 260.654545 0 190.836364 0S65.163636 55.854545 65.163636 130.327273s55.854545 130.327273 130.327273 130.327272 125.672727-60.509091 125.672727-130.327272z m223.418182 60.509091c51.2 0 97.745455-41.890909 97.745455-97.745455s-46.545455-93.090909-97.745455-93.090909-97.745455 41.890909-97.745454 97.745455 41.890909 93.090909 97.745454 93.090909z m321.163637-125.672728c-51.2 0-97.745455 41.890909-97.745455 97.745455s41.890909 97.745455 97.745455 97.745454 97.745455-41.890909 97.745454-97.745454-46.545455-97.745455-97.745454-97.745455z m-330.472728 190.836364c-79.127273 0-162.909091 9.309091-232.727272 74.472727-69.818182 60.509091-60.509091 218.763636 37.236363 260.654546 97.745455 41.890909 121.018182 111.709091 93.090909 204.8-27.927273 88.436364 18.618182 167.563636 130.327273 167.563636 195.490909 0 265.309091-181.527273 265.309091-390.981818 4.654545-223.418182-83.781818-311.854545-293.236364-316.509091z" p-id="9258" fill="#dbdbdb"></path>
</svg>