<svg t="1716444901902" class="icon" viewBox="0 0 1024 1024" version="1.1"
    xmlns="http://www.w3.org/2000/svg" p-id="8053" width="25" height="25">
    <path d="M447.063 657.121a32.645 32.645 0 0 1-30.208-20.173l-99.738-240.035-54.2 140.539H76.8v-62.004h143.514l65.454-169.707a32.686 32.686 0 0 1 30.284-20.321h0.057a32.686 32.686 0 0 1 30.295 20.224l92.104 221.716 47.257-214.574a32.804 32.804 0 0 1 62.807-4.27l63.59 172.134 49.787-170.496a32.804 32.804 0 0 1 62.434-1.648l59.028 167.88H942.08v62.002H739.42L696.013 414.92 646.907 583.1a32.804 32.804 0 0 1-62.254 2.156l-59.735-161.685-45.773 207.832a32.66 32.66 0 0 1-29.123 25.6 38.523 38.523 0 0 1-2.959 0.117z m99.328-331.049v0.041-0.04z" fill="#fb3d25" p-id="8054"></path>
    <path d="M912.384 433.152l-61.133-10.476a207.693 207.693 0 0 0-324.864-204.492l-17.971 12.759-17.971-12.76a207.698 207.698 0 0 0-325.192 202.533l-61.24 9.876a269.727 269.727 0 0 1 404.403-274.616 269.716 269.716 0 0 1 403.968 277.176zM508.416 906.24L210.473 608.768l43.863-43.791 254.08 253.67 248.832-248.453 43.863 43.791z" fill="#fb3d25" p-id="8055"></path>
</svg>