<svg t="1710741990327" class="icon" viewBox="0 0 1024 1024" version="1.1" xmlns="http://www.w3.org/2000/svg" p-id="2449" width="25" height="25"><path d="M881.803636 569.716364H636.276364a28.392727 28.392727 0 0 1-26.065455-15.127273l-54.923636-99.607273-75.636364 204.101818a30.487273 30.487273 0 0 1-20.945454 17.92h-5.352728a29.556364 29.556364 0 0 1-20.712727-7.68l-112.407273-109.614545a23.272727 23.272727 0 0 1 0-35.84 28.625455 28.625455 0 0 1 39.098182 0l80.989091 76.567273 83.549091-222.021819a28.625455 28.625455 0 0 1 23.272727-17.92 29.323636 29.323636 0 0 1 26.298182 15.127273l75.636364 138.007273H814.545455a186.181818 186.181818 0 0 0 36.538181-112.407273 192.698182 192.698182 0 0 0-365.614545-86.807273 192.698182 192.698182 0 0 0-366.312727 86.807273 199.214545 199.214545 0 0 0 60.043636 139.636364L465.454545 814.545455a25.6 25.6 0 0 0 36.538182 0l206.429091-196.654546h167.098182c20.945455 2.56 33.978182-7.68 33.978182-23.272727a26.530909 26.530909 0 0 0-27.694546-24.901818z" fill="#d81e06" p-id="2450"></path></svg>