<?xml version="1.0" encoding="utf-8"?>
<!-- Generator: Adobe Illustrator 23.0.2, SVG Export Plug-In . SVG Version: 6.00 Build 0)  -->
<svg version="1.1" id="图层_1" xmlns="http://www.w3.org/2000/svg" xmlns:xlink="http://www.w3.org/1999/xlink" x="0px" y="0px"
	 viewBox="0 0 515.9 728.5" style="enable-background:new 0 0 515.9 728.5;" xml:space="preserve">
<style type="text/css">
	.st0{fill:url(#SVGID_1_);}
	.st1{fill:url(#SVGID_2_);}
	.st2{fill:url(#SVGID_3_);}
	.st3{fill:url(#SVGID_4_);}
	.st4{fill:url(#SVGID_5_);stroke:url(#SVGID_6_);stroke-miterlimit:10;}
	.st5{fill:url(#SVGID_7_);}
	.st6{fill:url(#SVGID_8_);stroke:url(#SVGID_9_);stroke-width:3;stroke-miterlimit:10;}
	.st7{fill:none;stroke:url(#SVGID_10_);stroke-miterlimit:10;}
	.st8{fill:none;stroke:url(#SVGID_11_);stroke-miterlimit:10;}
	.st9{fill:none;stroke:url(#SVGID_12_);stroke-miterlimit:10;}
	.st10{fill:none;stroke:url(#SVGID_13_);stroke-miterlimit:10;}
	.st11{fill:none;stroke:url(#SVGID_14_);stroke-miterlimit:10;}
	.st12{fill:none;stroke:url(#SVGID_15_);stroke-miterlimit:10;}
	.st13{fill:none;stroke:url(#SVGID_16_);stroke-miterlimit:10;}
	.st14{fill:none;stroke:url(#SVGID_17_);stroke-miterlimit:10;}
	.st15{fill:none;stroke:url(#SVGID_18_);stroke-miterlimit:10;}
	.st16{fill:none;stroke:url(#SVGID_19_);stroke-miterlimit:10;}
	.st17{fill:url(#SVGID_20_);}
	.st18{fill:url(#SVGID_21_);}
	.st19{fill:none;stroke:url(#SVGID_22_);stroke-miterlimit:10;}
	.st20{fill:none;stroke:url(#SVGID_23_);stroke-miterlimit:10;}
	.st21{fill:none;stroke:url(#SVGID_24_);stroke-miterlimit:10;}
	.st22{fill:none;stroke:url(#SVGID_25_);stroke-miterlimit:10;}
	.st23{fill:url(#SVGID_26_);}
	.st24{fill:url(#SVGID_27_);}
	.st25{fill:url(#SVGID_28_);}
	.st26{fill:url(#SVGID_29_);}
</style>
<g>
	<linearGradient id="SVGID_1_" gradientUnits="userSpaceOnUse" x1="209.554" y1="434.1267" x2="232.8497" y2="434.1267">
		<stop  offset="0" style="stop-color:#132F5B"/>
		<stop  offset="0.1276" style="stop-color:#102A50"/>
		<stop  offset="0.4413" style="stop-color:#091F3A"/>
		<stop  offset="0.6589" style="stop-color:#241E3E"/>
		<stop  offset="0.854" style="stop-color:#351E41"/>
		<stop  offset="1" style="stop-color:#3B1E42"/>
	</linearGradient>
	<path class="st0" d="M209.6,490.6c2.4-19.1,5.1-38.1,8.2-57.1c1.6-9.5,3.3-18.9,5.2-28.4l1.5-7.1l1.6-7c0.6-2.3,1.2-4.7,1.8-7
		c0.6-2.3,1.5-4.6,2.2-6.9l0.7,0.2c-0.6,2.3-1.4,4.6-1.9,6.9c-0.5,2.3-1.1,4.7-1.6,7l-1.4,7l-1.2,7.1c-1.5,9.5-2.9,18.9-4.1,28.5
		c-2.4,19-4.4,38.1-6.1,57.2L209.6,490.6z"/>
</g>
<g>
	<g>
		<linearGradient id="SVGID_2_" gradientUnits="userSpaceOnUse" x1="198.4682" y1="559.5013" x2="248.9482" y2="477.8424">
			<stop  offset="0" style="stop-color:#132F5B"/>
			<stop  offset="0.1276" style="stop-color:#102A50"/>
			<stop  offset="0.4413" style="stop-color:#091F3A"/>
			<stop  offset="0.6589" style="stop-color:#241E3E"/>
			<stop  offset="0.854" style="stop-color:#351E41"/>
			<stop  offset="1" style="stop-color:#3B1E42"/>
		</linearGradient>
		<path class="st1" d="M241.4,564.6c-15,3.5-49.3-19-61.4-34.4c-11-14,5.6-50.5,8.8-57.2c0.1-0.2,0.2-0.4,0.3-0.5l42.2-2.3h0.1
			c1.2,0.3,2.4,0.7,3.6,1h0c15.4,4.6,31.8,12.7,41,27.3C296.6,531,256.4,561.1,241.4,564.6z"/>
		<linearGradient id="SVGID_3_" gradientUnits="userSpaceOnUse" x1="220.5809" y1="465.7709" x2="236.903" y2="566.9745">
			<stop  offset="0" style="stop-color:#619AAD"/>
			<stop  offset="0.2893" style="stop-color:#95B7D3"/>
			<stop  offset="0.4413" style="stop-color:#ACC4E3"/>
			<stop  offset="0.5129" style="stop-color:#96B4D9"/>
			<stop  offset="0.6591" style="stop-color:#7096C7"/>
			<stop  offset="0.7938" style="stop-color:#5481BA"/>
			<stop  offset="0.9118" style="stop-color:#4375B2"/>
			<stop  offset="1" style="stop-color:#3D70AF"/>
		</linearGradient>
		<path class="st2" d="M241.4,564.6c-2.7,0.6-5.5,0.4-8.3-0.1c-2.7-0.5-5.4-1.3-8-2.3c-5.2-2-10.2-4.4-15-7.2
			c-9.6-5.6-18.7-12.1-26.6-20c-1-1-1.9-2-2.9-3.1c-0.9-1.1-1.8-2.2-2.5-3.5c-1.4-2.5-2.1-5.4-2.5-8.2c-0.6-5.7,0.1-11.3,1.2-16.8
			c2.3-11,6.2-21.5,10.9-31.7l0.4-0.8l0.8,0l21.1-1.2l21.2-1.1l0.2,0l0.2,0.1l3.6,1.1l-0.4-0.1h0h0.2l0.2,0.1
			c10.9,3.4,21.7,8.2,30.5,15.7c2.2,1.9,4.3,3.9,6.1,6.1c1,1.1,1.8,2.3,2.7,3.4c0.4,0.6,0.8,1.2,1.2,1.8c0.4,0.6,0.8,1.2,1.1,1.8
			c2.9,5,5,10.6,5.2,16.4c0.1,1.4,0,2.9,0,4.3c-0.2,1.4-0.3,2.9-0.6,4.3c-0.2,1.4-0.7,2.8-1.1,4.2c-0.5,1.3-1,2.7-1.6,4
			c-1.2,2.6-2.6,5.1-4.2,7.4c-1.6,2.4-3.4,4.6-5.3,6.7c-1.9,2.1-3.9,4.1-6.1,6c-2.2,1.9-4.4,3.6-6.7,5.2c-2.3,1.6-4.8,3.1-7.3,4.4
			C246.7,562.8,244.1,563.9,241.4,564.6z M241.4,564.6c2.8-0.7,5.4-1.9,7.9-3.2c2.5-1.3,4.9-2.8,7.2-4.5c2.3-1.6,4.5-3.4,6.6-5.3
			c2.1-1.9,4.1-3.9,6-6c1.9-2.1,3.6-4.4,5.1-6.7c1.5-2.4,2.9-4.9,4-7.5c0.6-1.3,1-2.6,1.4-4c0.3-1.4,0.8-2.7,0.9-4.1
			c0.3-1.4,0.4-2.8,0.5-4.2c0-1.4,0.1-2.8-0.1-4.2c-0.4-5.6-2.5-10.9-5.5-15.6c-0.3-0.6-0.8-1.2-1.2-1.7c-0.4-0.6-0.8-1.1-1.2-1.7
			c-0.9-1.1-1.7-2.2-2.7-3.2c-1.8-2.1-3.9-3.9-6.1-5.7c-4.4-3.5-9.2-6.4-14.2-8.8c-5-2.4-10.3-4.3-15.7-5.9l0.4,0.1l0,0h-0.2
			l-0.2-0.1l-3.6-1l0.4,0.1l-21.1,1.2l-21.1,1.1l1.2-0.8c-2.4,5-4.6,10-6.5,15.2c-1.9,5.2-3.7,10.4-4.9,15.7
			c-1.2,5.3-2.1,10.8-1.6,16.2c0.2,2.7,0.8,5.3,2.1,7.7c0.6,1.2,1.4,2.2,2.3,3.3c0.9,1.1,1.8,2.1,2.7,3.1c3.8,4,8,7.7,12.3,11.1
			c4.4,3.4,8.9,6.6,13.7,9.4c4.8,2.8,9.7,5.4,14.9,7.4c2.6,1,5.2,1.8,8,2.3C235.8,565,238.6,565.2,241.4,564.6z"/>
	</g>
	<g>
		<linearGradient id="SVGID_4_" gradientUnits="userSpaceOnUse" x1="240.2406" y1="511.1647" x2="247.2056" y2="554.3509">
			<stop  offset="0" style="stop-color:#619AAD"/>
			<stop  offset="0.2893" style="stop-color:#95B7D3"/>
			<stop  offset="0.4413" style="stop-color:#ACC4E3"/>
			<stop  offset="0.5129" style="stop-color:#96B4D9"/>
			<stop  offset="0.6591" style="stop-color:#7096C7"/>
			<stop  offset="0.7938" style="stop-color:#5481BA"/>
			<stop  offset="0.9118" style="stop-color:#4375B2"/>
			<stop  offset="1" style="stop-color:#3D70AF"/>
		</linearGradient>
		<path class="st3" d="M258.4,508.5c0,5.1-0.3,10.3-1.2,15.3c-0.9,5-2.4,10-4.7,14.5c-1.2,2.2-2.6,4.4-4.2,6.3
			c-1.6,1.9-3.5,3.7-5.5,5.2c-2,1.5-4.2,2.8-6.6,3.8c-1.2,0.5-2.3,0.9-3.6,1.3c-0.6,0.2-1.2,0.4-1.8,0.5c-0.6,0.1-1.2,0.3-1.5,1.9
			l-0.6-2.9c0.9,1.3,1.6,1.2,2.1,1c0.6-0.1,1.2-0.3,1.8-0.5c1.2-0.4,2.4-0.8,3.5-1.3c2.3-1,4.5-2.3,6.5-3.8c4-3.1,7.2-7.1,9.2-11.7
			c2.1-4.5,3.3-9.5,3.8-14.4c0.5-5,0.4-10-0.3-14.9L258.4,508.5z"/>
	</g>
	<linearGradient id="SVGID_5_" gradientUnits="userSpaceOnUse" x1="232.6873" y1="482.5734" x2="222.9032" y2="524.3467">
		<stop  offset="0" style="stop-color:#132F5B"/>
		<stop  offset="0.1276" style="stop-color:#102A50"/>
		<stop  offset="0.4413" style="stop-color:#091F3A"/>
		<stop  offset="0.6589" style="stop-color:#241E3E"/>
		<stop  offset="0.854" style="stop-color:#351E41"/>
		<stop  offset="1" style="stop-color:#3B1E42"/>
	</linearGradient>
	<linearGradient id="SVGID_6_" gradientUnits="userSpaceOnUse" x1="223.2183" y1="457.7814" x2="240.8951" y2="515.6018">
		<stop  offset="0" style="stop-color:#619AAD"/>
		<stop  offset="0.2893" style="stop-color:#95B7D3"/>
		<stop  offset="0.4413" style="stop-color:#ACC4E3"/>
		<stop  offset="0.5129" style="stop-color:#96B4D9"/>
		<stop  offset="0.6591" style="stop-color:#7096C7"/>
		<stop  offset="0.7938" style="stop-color:#5481BA"/>
		<stop  offset="0.9118" style="stop-color:#4375B2"/>
		<stop  offset="1" style="stop-color:#3D70AF"/>
	</linearGradient>
	<path class="st4" d="M190.1,477c10.9,8.5,41.9,31.2,65.5,31.6c0,0,13.7,1.2,19.8-7.5c6.2-8.7-48.1-42.6-61.8-39.4
		c-10.3,2.4-20.3,5.5-24.9,8.8C187.2,471.5,187.5,475,190.1,477z"/>
</g>
<g>
	<linearGradient id="SVGID_7_" gradientUnits="userSpaceOnUse" x1="264.9832" y1="428.6452" x2="306.5425" y2="428.6452">
		<stop  offset="0" style="stop-color:#132F5B"/>
		<stop  offset="0.1276" style="stop-color:#102A50"/>
		<stop  offset="0.4413" style="stop-color:#091F3A"/>
		<stop  offset="0.6589" style="stop-color:#241E3E"/>
		<stop  offset="0.854" style="stop-color:#351E41"/>
		<stop  offset="1" style="stop-color:#3B1E42"/>
	</linearGradient>
	<path class="st5" d="M304.1,359.8c-2.1,11.6-4.3,23.2-6.5,34.8c-2.3,11.6-4.7,23.1-7.3,34.6c-2.6,11.5-5.3,23-8.4,34.4
		c-1.6,5.7-3.2,11.4-5.2,17c-1,2.8-2,5.6-3.3,8.4c-0.6,1.4-1.3,2.8-2.2,4.2c-0.4,0.7-0.9,1.4-1.5,2.1l-0.5,0.5
		c-0.2,0.2-0.4,0.4-0.6,0.5c-0.3,0.3-0.9,0.7-1.4,1L265,493c0.2-0.1,0.6-0.4,0.9-0.8c0.4-0.4,0.8-0.9,1.1-1.5c0.7-1.1,1.4-2.3,2-3.6
		c1.3-2.5,2.4-5.2,3.5-7.9c2.1-5.4,4-11,5.7-16.6c3.5-11.2,6.6-22.6,9.6-34c3-11.4,5.8-22.9,8.5-34.3
		C299,382.9,301.6,371.4,304.1,359.8z"/>
</g>
<g>
	
		<linearGradient id="SVGID_8_" gradientUnits="userSpaceOnUse" x1="266.5892" y1="1565.6792" x2="163.9075" y2="1845.5355" gradientTransform="matrix(0.872 -0.4895 0.4895 0.872 -723.7672 -980.5114)">
		<stop  offset="0" style="stop-color:#619AAD"/>
		<stop  offset="0.2893" style="stop-color:#95B7D3"/>
		<stop  offset="0.4413" style="stop-color:#ACC4E3"/>
		<stop  offset="0.5129" style="stop-color:#96B4D9"/>
		<stop  offset="0.6591" style="stop-color:#7096C7"/>
		<stop  offset="0.7938" style="stop-color:#5481BA"/>
		<stop  offset="0.9118" style="stop-color:#4375B2"/>
		<stop  offset="1" style="stop-color:#3D70AF"/>
	</linearGradient>
	<linearGradient id="SVGID_9_" gradientUnits="userSpaceOnUse" x1="255.9401" y1="135.0913" x2="298.7105" y2="400.2861">
		<stop  offset="0" style="stop-color:#619AAD"/>
		<stop  offset="0.2893" style="stop-color:#95B7D3"/>
		<stop  offset="0.4413" style="stop-color:#ACC4E3"/>
		<stop  offset="0.5129" style="stop-color:#96B4D9"/>
		<stop  offset="0.6591" style="stop-color:#7096C7"/>
		<stop  offset="0.7938" style="stop-color:#5481BA"/>
		<stop  offset="0.9118" style="stop-color:#4375B2"/>
		<stop  offset="1" style="stop-color:#3D70AF"/>
	</linearGradient>
	<path class="st6" d="M165.4,330.8c5.4,9.6,11.8,18.4,18.9,26.1c5,5.5,10.5,10.5,16.2,15c3.1,2.4,6.3,4.7,9.6,6.9
		c7,4.6,24.1,9.2,42.7,12.7c24.9,4.6,52.4,7.2,62,4.5c9.6-2.6,18.9-6.4,28-11.5c32.3-18.1,53.4-48.7,61-82.9
		c1.5-6.5,2.4-13.1,2.9-19.8c1.8-25.6-3.7-52.3-17.4-76.7c-36.1-64.4-115.6-88.4-177.4-53.7c-36.9,20.7-59.2,57.7-63.5,97.8
		C145.5,276.3,150.8,304.9,165.4,330.8z"/>
	<linearGradient id="SVGID_10_" gradientUnits="userSpaceOnUse" x1="183.5972" y1="155.6456" x2="218.2702" y2="370.6329">
		<stop  offset="0" style="stop-color:#619AAD"/>
		<stop  offset="0.2893" style="stop-color:#95B7D3"/>
		<stop  offset="0.4413" style="stop-color:#ACC4E3"/>
		<stop  offset="0.5129" style="stop-color:#96B4D9"/>
		<stop  offset="0.6591" style="stop-color:#7096C7"/>
		<stop  offset="0.7938" style="stop-color:#5481BA"/>
		<stop  offset="0.9118" style="stop-color:#4375B2"/>
		<stop  offset="1" style="stop-color:#3D70AF"/>
	</linearGradient>
	<path class="st7" d="M212,151.3c-1,2.1-2.1,4.3-3.1,6.6c-6.1,13.2-12.7,29.4-18.3,47.4c-5.4,17.4-9.7,36.6-11.7,56.4
		c-1.7,16.8-1.6,34.1,1,51.3c2.3,14.8,6.4,29.4,13,43.6c2.6,5.5,5.5,10.9,8.8,16.2c0,0,0,0,0,0"/>
	<linearGradient id="SVGID_11_" gradientUnits="userSpaceOnUse" x1="335.6247" y1="179.2111" x2="368.5882" y2="383.5989">
		<stop  offset="0" style="stop-color:#619AAD"/>
		<stop  offset="0.2893" style="stop-color:#95B7D3"/>
		<stop  offset="0.4413" style="stop-color:#ACC4E3"/>
		<stop  offset="0.5129" style="stop-color:#96B4D9"/>
		<stop  offset="0.6591" style="stop-color:#7096C7"/>
		<stop  offset="0.7938" style="stop-color:#5481BA"/>
		<stop  offset="0.9118" style="stop-color:#4375B2"/>
		<stop  offset="1" style="stop-color:#3D70AF"/>
	</linearGradient>
	<path class="st8" d="M365.9,174.4c0.9,3.1,1.9,6.4,2.9,10c3.4,12.5,6.8,28.1,9,45.3c2.3,17.5,3.2,36.7,1.5,56.3
		c-1.4,16.1-4.5,32.5-10.3,48.3c-5.4,15.1-13.2,29.7-24,43.1c-3.1,3.9-6.5,7.6-10.1,11.3c0,0,0,0,0,0"/>
	<linearGradient id="SVGID_12_" gradientUnits="userSpaceOnUse" x1="241.5375" y1="141.9762" x2="280.445" y2="383.2192">
		<stop  offset="0" style="stop-color:#619AAD"/>
		<stop  offset="0.2893" style="stop-color:#95B7D3"/>
		<stop  offset="0.4413" style="stop-color:#ACC4E3"/>
		<stop  offset="0.5129" style="stop-color:#96B4D9"/>
		<stop  offset="0.6591" style="stop-color:#7096C7"/>
		<stop  offset="0.7938" style="stop-color:#5481BA"/>
		<stop  offset="0.9118" style="stop-color:#4375B2"/>
		<stop  offset="1" style="stop-color:#3D70AF"/>
	</linearGradient>
	<path class="st9" d="M281.3,135.8c-2,5.8-4.7,14.1-7.8,24.2c-4,12.9-8.7,28.7-13.3,46.1c-4.8,17.8-9.5,37.2-13.5,56.8
		c-3.5,17.2-6.4,34.6-8.2,51.2c-1.8,15.8-2.5,30.9-1.8,44.3c0.6,11.6,2.3,22.1,5.3,30.8"/>
	<linearGradient id="SVGID_13_" gradientUnits="userSpaceOnUse" x1="286.9326" y1="151.29" x2="325.5966" y2="391.0235">
		<stop  offset="0" style="stop-color:#619AAD"/>
		<stop  offset="0.2893" style="stop-color:#95B7D3"/>
		<stop  offset="0.4413" style="stop-color:#ACC4E3"/>
		<stop  offset="0.5129" style="stop-color:#96B4D9"/>
		<stop  offset="0.6591" style="stop-color:#7096C7"/>
		<stop  offset="0.7938" style="stop-color:#5481BA"/>
		<stop  offset="0.9118" style="stop-color:#4375B2"/>
		<stop  offset="1" style="stop-color:#3D70AF"/>
	</linearGradient>
	<path class="st10" d="M322.7,145.6c0.3,6.4,0.5,14.4,0.7,23.5c0.3,13.1,0.3,28.7-0.1,45.6c-0.4,18.1-1.4,37.7-3.3,57.5
		c-1.6,16.9-3.8,34-6.8,50.5c-3,16-6.7,31.4-11.4,45.4c-3.5,10.3-7.5,19.9-12.1,28.4"/>
	<linearGradient id="SVGID_14_" gradientUnits="userSpaceOnUse" x1="447.5818" y1="276.82" x2="447.5818" y2="276.82">
		<stop  offset="0" style="stop-color:#619AAD"/>
		<stop  offset="0.2893" style="stop-color:#95B7D3"/>
		<stop  offset="0.4413" style="stop-color:#ACC4E3"/>
		<stop  offset="0.5129" style="stop-color:#96B4D9"/>
		<stop  offset="0.6591" style="stop-color:#7096C7"/>
		<stop  offset="0.7938" style="stop-color:#5481BA"/>
		<stop  offset="0.9118" style="stop-color:#4375B2"/>
		<stop  offset="1" style="stop-color:#3D70AF"/>
	</linearGradient>
	<path class="st11" d="M447.6,276.8"/>
	<linearGradient id="SVGID_15_" gradientUnits="userSpaceOnUse" x1="285.0279" y1="144.3131" x2="294.4646" y2="202.8247">
		<stop  offset="0" style="stop-color:#619AAD"/>
		<stop  offset="0.2893" style="stop-color:#95B7D3"/>
		<stop  offset="0.4413" style="stop-color:#ACC4E3"/>
		<stop  offset="0.5129" style="stop-color:#96B4D9"/>
		<stop  offset="0.6591" style="stop-color:#7096C7"/>
		<stop  offset="0.7938" style="stop-color:#5481BA"/>
		<stop  offset="0.9118" style="stop-color:#4375B2"/>
		<stop  offset="1" style="stop-color:#3D70AF"/>
	</linearGradient>
	<path class="st12" d="M200.9,158.4c2.6-0.2,5.3-0.3,8-0.4c18.3-0.8,40.4-0.6,64.6,2.1c15.9,1.8,32.7,4.7,49.9,9.1
		c15,3.8,30.2,8.8,45.4,15.3c3.3,1.4,6.5,2.8,9.8,4.4h0"/>
	<linearGradient id="SVGID_16_" gradientUnits="userSpaceOnUse" x1="275.9582" y1="188.3866" x2="287.3197" y2="258.8328">
		<stop  offset="0" style="stop-color:#619AAD"/>
		<stop  offset="0.2893" style="stop-color:#95B7D3"/>
		<stop  offset="0.4413" style="stop-color:#ACC4E3"/>
		<stop  offset="0.5129" style="stop-color:#96B4D9"/>
		<stop  offset="0.6591" style="stop-color:#7096C7"/>
		<stop  offset="0.7938" style="stop-color:#5481BA"/>
		<stop  offset="0.9118" style="stop-color:#4375B2"/>
		<stop  offset="1" style="stop-color:#3D70AF"/>
	</linearGradient>
	<path class="st13" d="M160,207.6c8.8-0.9,19.1-1.7,30.7-2.3c20.1-0.9,43.8-1.1,69.5,0.8c20.1,1.5,41.4,4.1,63.1,8.6
		c18.1,3.7,36.4,8.6,54.5,15c8.5,3,16.9,6.3,25.3,10"/>
	<linearGradient id="SVGID_17_" gradientUnits="userSpaceOnUse" x1="270.8928" y1="243.38" x2="282.3148" y2="314.2014">
		<stop  offset="0" style="stop-color:#619AAD"/>
		<stop  offset="0.2893" style="stop-color:#95B7D3"/>
		<stop  offset="0.4413" style="stop-color:#ACC4E3"/>
		<stop  offset="0.5129" style="stop-color:#96B4D9"/>
		<stop  offset="0.6591" style="stop-color:#7096C7"/>
		<stop  offset="0.7938" style="stop-color:#5481BA"/>
		<stop  offset="0.9118" style="stop-color:#4375B2"/>
		<stop  offset="1" style="stop-color:#3D70AF"/>
	</linearGradient>
	<path class="st14" d="M147.7,263.8c8.2-0.8,18.8-1.6,31.3-2c18.6-0.7,41.6-0.6,67.7,1.2c22.3,1.6,47,4.4,73.4,9.3
		c19,3.5,38.9,8,59.3,13.8c8.6,2.4,17.2,5,26,7.9"/>
	<linearGradient id="SVGID_18_" gradientUnits="userSpaceOnUse" x1="268.2611" y1="295.6863" x2="278.263" y2="357.7025">
		<stop  offset="0" style="stop-color:#619AAD"/>
		<stop  offset="0.2893" style="stop-color:#95B7D3"/>
		<stop  offset="0.4413" style="stop-color:#ACC4E3"/>
		<stop  offset="0.5129" style="stop-color:#96B4D9"/>
		<stop  offset="0.6591" style="stop-color:#7096C7"/>
		<stop  offset="0.7938" style="stop-color:#5481BA"/>
		<stop  offset="0.9118" style="stop-color:#4375B2"/>
		<stop  offset="1" style="stop-color:#3D70AF"/>
	</linearGradient>
	<path class="st15" d="M157.4,314.1c6.3-0.4,13.8-0.8,22.5-1c15.9-0.4,35.7-0.3,58.5,1.2c22.2,1.4,47.4,4,74.8,8.6
		c17.8,3,36.5,6.7,55.9,11.5c6.5,1.6,13.2,3.3,19.9,5.2"/>
	<linearGradient id="SVGID_19_" gradientUnits="userSpaceOnUse" x1="264.2973" y1="343.618" x2="272.139" y2="392.24">
		<stop  offset="0" style="stop-color:#619AAD"/>
		<stop  offset="0.2893" style="stop-color:#95B7D3"/>
		<stop  offset="0.4413" style="stop-color:#ACC4E3"/>
		<stop  offset="0.5129" style="stop-color:#96B4D9"/>
		<stop  offset="0.6591" style="stop-color:#7096C7"/>
		<stop  offset="0.7938" style="stop-color:#5481BA"/>
		<stop  offset="0.9118" style="stop-color:#4375B2"/>
		<stop  offset="1" style="stop-color:#3D70AF"/>
	</linearGradient>
	<path class="st16" d="M184.4,357L184.4,357c2.7-0.2,5.5-0.3,8.6-0.4c11.4-0.3,25.8,0.2,43.7,1.9c18,1.7,39.5,4.7,65.1,9.6
		c13.3,2.5,27.7,5.6,43.3,9.2c2.3,0.5,4.5,1.1,6.9,1.6"/>
</g>
<g>
	<linearGradient id="SVGID_20_" gradientUnits="userSpaceOnUse" x1="247.6717" y1="452.6284" x2="289.8001" y2="452.6284">
		<stop  offset="0" style="stop-color:#132F5B"/>
		<stop  offset="0.1276" style="stop-color:#102A50"/>
		<stop  offset="0.4413" style="stop-color:#091F3A"/>
		<stop  offset="0.6589" style="stop-color:#241E3E"/>
		<stop  offset="0.854" style="stop-color:#351E41"/>
		<stop  offset="1" style="stop-color:#3B1E42"/>
	</linearGradient>
	<path class="st17" d="M247.7,507.1c3.8-9,7.5-18.1,11.1-27.2c3.6-9.1,7.1-18.3,10.5-27.5c3.4-9.2,6.6-18.5,9.7-27.8
		c3-9.3,5.9-18.7,8.4-28.2c-2.1,9.6-4.6,19.1-7.2,28.6c-2.7,9.5-5.5,18.9-8.5,28.2c-3,9.4-6.1,18.7-9.3,28
		c-3.2,9.3-6.5,18.6-10,27.8L247.7,507.1z"/>
</g>
<g>
	<linearGradient id="SVGID_21_" gradientUnits="userSpaceOnUse" x1="190.3253" y1="430.1265" x2="212.5306" y2="430.1265">
		<stop  offset="0" style="stop-color:#132F5B"/>
		<stop  offset="0.1276" style="stop-color:#102A50"/>
		<stop  offset="0.4413" style="stop-color:#091F3A"/>
		<stop  offset="0.6589" style="stop-color:#241E3E"/>
		<stop  offset="0.854" style="stop-color:#351E41"/>
		<stop  offset="1" style="stop-color:#3B1E42"/>
	</linearGradient>
	<path class="st18" d="M210.6,379c-2.2,8.3-4.2,16.7-6.1,25.2c-1.9,8.4-3.6,16.9-5.2,25.3c-1.5,8.5-2.9,17-3.7,25.5
		c-0.4,4.3-0.7,8.5-0.6,12.7c0,2.1,0.1,4.2,0.4,6.2c0.3,2,0.8,3.9,1.6,5.2l-4.3,2.6c-1.4-2.5-1.7-4.9-2-7.2
		c-0.2-2.3-0.3-4.5-0.2-6.8c0.1-4.4,0.6-8.8,1.2-13.1c1.2-8.6,2.9-17.2,4.7-25.6c1.9-8.5,3.9-16.9,6.1-25.2c2.2-8.4,4.5-16.7,7-25
		L210.6,379z"/>
</g>
<linearGradient id="SVGID_22_" gradientUnits="userSpaceOnUse" x1="247.6155" y1="501.7517" x2="257.5932" y2="501.7517">
	<stop  offset="0" style="stop-color:#619AAD"/>
	<stop  offset="0.2893" style="stop-color:#95B7D3"/>
	<stop  offset="0.4413" style="stop-color:#ACC4E3"/>
	<stop  offset="0.5129" style="stop-color:#96B4D9"/>
	<stop  offset="0.6591" style="stop-color:#7096C7"/>
	<stop  offset="0.7938" style="stop-color:#5481BA"/>
	<stop  offset="0.9118" style="stop-color:#4375B2"/>
	<stop  offset="1" style="stop-color:#3D70AF"/>
</linearGradient>
<ellipse class="st19" cx="252.6" cy="501.8" rx="4.5" ry="4.1"/>
<linearGradient id="SVGID_23_" gradientUnits="userSpaceOnUse" x1="267.3456" y1="485.0428" x2="277.3233" y2="485.0428">
	<stop  offset="0" style="stop-color:#619AAD"/>
	<stop  offset="0.2893" style="stop-color:#95B7D3"/>
	<stop  offset="0.4413" style="stop-color:#ACC4E3"/>
	<stop  offset="0.5129" style="stop-color:#96B4D9"/>
	<stop  offset="0.6591" style="stop-color:#7096C7"/>
	<stop  offset="0.7938" style="stop-color:#5481BA"/>
	<stop  offset="0.9118" style="stop-color:#4375B2"/>
	<stop  offset="1" style="stop-color:#3D70AF"/>
</linearGradient>
<ellipse class="st20" cx="272.3" cy="485" rx="4.5" ry="4.1"/>
<linearGradient id="SVGID_24_" gradientUnits="userSpaceOnUse" x1="211.5406" y1="454.3773" x2="221.5183" y2="454.3773">
	<stop  offset="0" style="stop-color:#619AAD"/>
	<stop  offset="0.2893" style="stop-color:#95B7D3"/>
	<stop  offset="0.4413" style="stop-color:#ACC4E3"/>
	<stop  offset="0.5129" style="stop-color:#96B4D9"/>
	<stop  offset="0.6591" style="stop-color:#7096C7"/>
	<stop  offset="0.7938" style="stop-color:#5481BA"/>
	<stop  offset="0.9118" style="stop-color:#4375B2"/>
	<stop  offset="1" style="stop-color:#3D70AF"/>
</linearGradient>
<ellipse class="st21" cx="216.5" cy="454.4" rx="4.5" ry="4.1"/>
<linearGradient id="SVGID_25_" gradientUnits="userSpaceOnUse" x1="187.8364" y1="470.0584" x2="197.8141" y2="470.0584">
	<stop  offset="0" style="stop-color:#619AAD"/>
	<stop  offset="0.2893" style="stop-color:#95B7D3"/>
	<stop  offset="0.4413" style="stop-color:#ACC4E3"/>
	<stop  offset="0.5129" style="stop-color:#96B4D9"/>
	<stop  offset="0.6591" style="stop-color:#7096C7"/>
	<stop  offset="0.7938" style="stop-color:#5481BA"/>
	<stop  offset="0.9118" style="stop-color:#4375B2"/>
	<stop  offset="1" style="stop-color:#3D70AF"/>
</linearGradient>
<ellipse class="st22" cx="192.8" cy="470.1" rx="4.5" ry="4.1"/>
<linearGradient id="SVGID_26_" gradientUnits="userSpaceOnUse" x1="431.9098" y1="474.89" x2="439.7457" y2="478.5442" gradientTransform="matrix(0.8957 0.4446 -0.4446 0.8957 94.3176 -135.9161)">
	<stop  offset="0" style="stop-color:#3A80B4"/>
	<stop  offset="0.9637" style="stop-color:#EDE2C1"/>
</linearGradient>
<path class="st23" d="M275.4,487.4l-6.4-3.2c-0.5-0.3-0.8-0.9-0.5-1.5l0,0c0.3-0.5,0.9-0.8,1.5-0.5l6.4,3.2c0.5,0.3,0.8,0.9,0.5,1.5
	l0,0C276.6,487.5,276,487.7,275.4,487.4z"/>
<linearGradient id="SVGID_27_" gradientUnits="userSpaceOnUse" x1="102.991" y1="445.7921" x2="110.8269" y2="449.4463" gradientTransform="matrix(0.9547 -0.2975 0.2975 0.9547 -18.9017 58.8263)">
	<stop  offset="0" style="stop-color:#3A80B4"/>
	<stop  offset="0.9637" style="stop-color:#EDE2C1"/>
</linearGradient>
<path class="st24" d="M220.1,454.4l-6.8,2.1c-0.6,0.2-1.2-0.1-1.4-0.7l0,0c-0.2-0.6,0.1-1.2,0.7-1.4l6.8-2.1
	c0.6-0.2,1.2,0.1,1.4,0.7l0,0C221,453.6,220.6,454.2,220.1,454.4z"/>
<linearGradient id="SVGID_28_" gradientUnits="userSpaceOnUse" x1="177.7939" y1="488.8125" x2="185.6297" y2="492.4667" gradientTransform="matrix(1 0 0 1 11.1135 -20.5812)">
	<stop  offset="0" style="stop-color:#3A80B4"/>
	<stop  offset="0.9637" style="stop-color:#EDE2C1"/>
</linearGradient>
<path class="st25" d="M196.4,471.1h-7.1c-0.6,0-1.1-0.5-1.1-1.1l0,0c0-0.6,0.5-1.1,1.1-1.1h7.1c0.6,0,1.1,0.5,1.1,1.1l0,0
	C197.5,470.7,197,471.1,196.4,471.1z"/>
<linearGradient id="SVGID_29_" gradientUnits="userSpaceOnUse" x1="203.9682" y1="492.7111" x2="211.8041" y2="496.3653" gradientTransform="matrix(0.9876 -0.1567 0.1567 0.9876 -30.1981 45.8927)">
	<stop  offset="0" style="stop-color:#3A80B4"/>
	<stop  offset="0.9637" style="stop-color:#EDE2C1"/>
</linearGradient>
<path class="st26" d="M256.3,502.3l-7,1.1c-0.6,0.1-1.2-0.3-1.2-0.9l0,0c-0.1-0.6,0.3-1.2,0.9-1.2l7-1.1c0.6-0.1,1.2,0.3,1.2,0.9
	l0,0C257.3,501.6,256.9,502.2,256.3,502.3z"/>
</svg>
