<svg height="729" node-id="1" sillyvg="true" template-height="729" template-width="516" version="1.1" viewBox="0 0 516 729" width="516" xmlns="http://www.w3.org/2000/svg" xmlns:xlink="http://www.w3.org/1999/xlink"><defs node-id="54"><radialGradient cx="3188.0002" cy="180.0187" fx="3188.0002" fy="180.0187" gradientTransform="matrix(1.3193 0 0 1 -813.8256 0)" gradientUnits="userSpaceOnUse" id="SVGID_1_" node-id="4" r="245.9727" rev="11" spreadMethod="pad"><stop offset="0" stop-color="#1e5ca2"/><stop offset="0.6194" stop-color="#649ca7"/><stop offset="1" stop-color="#3d88c1"/></radialGradient><radialGradient cx="3188.0002" cy="252.6802" fx="3188.0002" fy="252.6802" gradientTransform="matrix(1.3193 0 0 1 -813.8256 0)" gradientUnits="userSpaceOnUse" id="SVGID_2_" node-id="9" r="245.9727" rev="10" spreadMethod="pad"><stop offset="0" stop-color="#1e5ca2"/><stop offset="0.6194" stop-color="#649ca7"/><stop offset="1" stop-color="#3d88c1"/></radialGradient><radialGradient cx="3193.789" cy="358.4171" fx="3193.789" fy="358.4171" gradientTransform="matrix(1.3193 0 0 1 -813.8256 0)" gradientUnits="userSpaceOnUse" id="SVGID_3_" node-id="14" r="245.9727" rev="9" spreadMethod="pad"><stop offset="0" stop-color="#1e5ca2"/><stop offset="0.6194" stop-color="#649ca7"/><stop offset="1" stop-color="#3d88c1"/></radialGradient><radialGradient cx="3188.0002" cy="464.4294" fx="3188.0002" fy="464.4294" gradientTransform="matrix(1.3193 0 0 1 -813.8256 0)" gradientUnits="userSpaceOnUse" id="SVGID_4_" node-id="19" r="245.9727" rev="8" spreadMethod="pad"><stop offset="0" stop-color="#1e5ca2"/><stop offset="0.6194" stop-color="#649ca7"/><stop offset="1" stop-color="#3d88c1"/></radialGradient><radialGradient cx="3198.7415" cy="544.0027" fx="3198.7415" fy="544.0027" gradientTransform="matrix(1.3193 0 0 1 -813.8256 0)" gradientUnits="userSpaceOnUse" id="SVGID_5_" node-id="24" r="245.9727" rev="7" spreadMethod="pad"><stop offset="0" stop-color="#1e5ca2"/><stop offset="0.6194" stop-color="#649ca7"/><stop offset="1" stop-color="#3d88c1"/></radialGradient><linearGradient gradientUnits="userSpaceOnUse" id="SVGID_6_" node-id="30" spreadMethod="pad" x1="261.7501" x2="261.7501" y1="410.2599" y2="341.3393"><stop offset="0.6201" stop-color="#7abad6"/><stop offset="1" stop-color="#f6f4df"/></linearGradient><radialGradient cx="261.9174" cy="364.386" fx="261.9174" fy="364.386" gradientUnits="userSpaceOnUse" id="SVGID_7_" node-id="33" r="70.6844" rev="5" spreadMethod="pad"><stop offset="0" stop-color="#d67a8e"/><stop offset="1" stop-color="#f6f4df"/></radialGradient><linearGradient gradientUnits="userSpaceOnUse" id="SVGID_8_" node-id="38" spreadMethod="pad" x1="276.4268" x2="276.4268" y1="410.2599" y2="341.3393"><stop offset="0.6201" stop-color="#7acad6" stop-opacity="0.92156863"/><stop offset="1" stop-color="#f6f4df"/></linearGradient><radialGradient cx="275.8751" cy="358.8961" fx="275.8751" fy="358.8961" gradientUnits="userSpaceOnUse" id="SVGID_9_" node-id="41" r="74.3085" rev="3" spreadMethod="pad"><stop offset="0" stop-color="#d67a8e"/><stop offset="1" stop-color="#f6f4df"/></radialGradient><linearGradient gradientUnits="userSpaceOnUse" id="SVGID_10_" node-id="46" spreadMethod="pad" x1="263.6564" x2="263.6564" y1="410.2599" y2="341.3393"><stop offset="0.6201" stop-color="#d67a8e"/><stop offset="1" stop-color="#f6f4df"/></linearGradient><radialGradient cx="263.6564" cy="352.798" fx="263.6564" fy="352.798" gradientUnits="userSpaceOnUse" id="SVGID_11_" node-id="49" r="64.1993" rev="1" spreadMethod="pad"><stop offset="0" stop-color="#d67a8e"/><stop offset="1" stop-color="#f6f4df"/></radialGradient></defs><path d="M 3682.24 180.02 C 3682.24 328.34 3552.31 448.58 3392.03 448.58 C 3231.75 448.58 3101.82 328.34 3101.82 180.02 C 3101.82 31.70 3231.75 -88.54 3392.03 -88.54 C 3552.31 -88.54 3682.24 31.70 3682.24 180.02 Z" fill="none" node-id="133" stroke="url(#SVGID_1_)" stroke-linecap="butt" stroke-width="1" target-height="537.12" target-width="580.4199" target-x="3101.82" target-y="-88.54"/><path d="M 3682.24 252.68 C 3682.24 401.00 3552.31 521.24 3392.03 521.24 C 3231.75 521.24 3101.82 401.00 3101.82 252.68 C 3101.82 104.36 3231.75 -15.88 3392.03 -15.88 C 3552.31 -15.88 3682.24 104.36 3682.24 252.68 Z" fill="none" node-id="135" stroke="url(#SVGID_2_)" stroke-linecap="butt" stroke-width="1" target-height="537.12" target-width="580.4199" target-x="3101.82" target-y="-15.88"/><path d="M 3689.88 358.42 C 3689.88 506.74 3559.95 626.98 3399.67 626.98 C 3239.39 626.98 3109.46 506.74 3109.46 358.42 C 3109.46 210.10 3239.39 89.86 3399.67 89.86 C 3559.95 89.86 3689.88 210.10 3689.88 358.42 Z" fill="none" node-id="137" stroke="url(#SVGID_3_)" stroke-linecap="butt" stroke-width="1" target-height="537.12" target-width="580.4199" target-x="3109.46" target-y="89.86"/><path d="M 3682.24 464.43 C 3682.24 612.75 3552.31 732.99 3392.03 732.99 C 3231.75 732.99 3101.82 612.75 3101.82 464.43 C 3101.82 316.11 3231.75 195.87 3392.03 195.87 C 3552.31 195.87 3682.24 316.11 3682.24 464.43 Z" fill="none" node-id="139" stroke="url(#SVGID_4_)" stroke-linecap="butt" stroke-width="1" target-height="537.12" target-width="580.4199" target-x="3101.82" target-y="195.87"/><path d="M 3696.41 544.00 C 3696.41 692.32 3566.48 812.56 3406.20 812.56 C 3245.92 812.56 3115.99 692.32 3115.99 544.00 C 3115.99 395.68 3245.92 275.44 3406.20 275.44 C 3566.48 275.44 3696.41 395.68 3696.41 544.00 Z" fill="none" node-id="141" stroke="url(#SVGID_5_)" stroke-linecap="butt" stroke-width="1" target-height="537.12" target-width="580.4199" target-x="3115.99" target-y="275.44"/><g node-id="154"><path d="M 215.67 276.25 L 248.44 452.25 L 307.83 452.25 L 215.67 276.25" fill="url(#SVGID_6_)" fill-rule="nonzero" group-id="1" node-id="144" stroke="url(#SVGID_7_)" stroke-linecap="butt" stroke-width="1" target-height="176" target-width="92.15999" target-x="215.67" target-y="276.25"/></g><g node-id="155"><path d="M 303.26 443.53 L 337.18 386.08 L 215.67 276.25 L 303.26 443.53" fill="url(#SVGID_8_)" fill-rule="nonzero" group-id="2" node-id="148" stroke="url(#SVGID_9_)" stroke-linecap="butt" stroke-width="1" target-height="167.28" target-width="121.509995" target-x="215.67" target-y="276.25"/></g><path d="M 215.67 276.25 L 311.64 429.34" fill="url(#SVGID_10_)" fill-rule="nonzero" group-id="3" node-id="152" stroke="url(#SVGID_11_)" stroke-linecap="butt" stroke-width="1" target-height="153.09" target-width="95.97002" target-x="215.67" target-y="276.25"/></svg>