<svg t="1716521876892" class="icon" viewBox="0 0 1024 1024" version="1.1"
    xmlns="http://www.w3.org/2000/svg" p-id="2634" width="25" height="25">
    <path d="M512 0c282.773 0 512 229.227 512 512s-229.227 512-512 512S0 794.773 0 512 229.227 0 512 0z m-22.016 213.333c-155.136 14.08-276.65 142.038-276.65 297.963 0 165.333 136.597 299.37 305.066 299.37 95.36 0 193.664-43.007 249.6-110.271-9.365 0.853-32.021 1.408-41.6 1.408-168.47 0-305.067-134.038-305.067-299.371 0-71.744 25.771-137.515 68.651-189.099z m228.864 358.955l-9.685 25.259h-25.814l20.992 15.786-9.685 28.438 24.192-17.387 24.192 17.387-9.685-28.438 20.97-15.786h-25.813l-9.664-25.259zM591.36 397.525l-12.757 33.323h-34.048l27.669 20.843-12.779 37.504 31.915-22.912 31.915 22.912-12.758-37.504 27.67-20.843h-34.048l-12.779-33.323z m99.157-164.373l-17.792 46.464h-47.424l38.528 29.013-17.792 52.267 44.48-31.936 44.48 31.936-17.792-52.267 38.528-29.013H708.31l-17.792-46.464z" p-id="2635" fill="#1296db"></path>
</svg>