<svg height="729" node-id="1" sillyvg="true" template-height="729" template-width="516" version="1.1" viewBox="0 0 516 729" width="516" xmlns="http://www.w3.org/2000/svg" xmlns:xlink="http://www.w3.org/1999/xlink"><defs node-id="436"><linearGradient gradientUnits="userSpaceOnUse" id="SVGID_1_" node-id="14" spreadMethod="pad" x1="224.1816" x2="275.9281" y1="332.3941" y2="332.3941"><stop offset="0" stop-color="#7f5a69"/><stop offset="0.1395" stop-color="#835f6d"/><stop offset="0.2969" stop-color="#8d6c7a"/><stop offset="0.463" stop-color="#9f838e"/><stop offset="0.6351" stop-color="#b7a2ab"/><stop offset="0.8119" stop-color="#d7cbd0"/><stop offset="0.9902" stop-color="#fdfcfc"/><stop offset="1" stop-color="#ffffff"/></linearGradient><linearGradient gradientUnits="userSpaceOnUse" id="SVGID_2_" node-id="25" spreadMethod="pad" x1="227.3251" x2="277.0257" y1="388.7095" y2="388.7095"><stop offset="0" stop-color="#7f5a69"/><stop offset="0.1395" stop-color="#835f6d"/><stop offset="0.2969" stop-color="#8d6c7a"/><stop offset="0.463" stop-color="#9f838e"/><stop offset="0.6351" stop-color="#b7a2ab"/><stop offset="0.8119" stop-color="#d7cbd0"/><stop offset="0.9902" stop-color="#fdfcfc"/><stop offset="1" stop-color="#ffffff"/></linearGradient><linearGradient gradientUnits="userSpaceOnUse" id="SVGID_3_" node-id="36" spreadMethod="pad" x1="281.7646" x2="305.5516" y1="346.6691" y2="346.6691"><stop offset="0" stop-color="#7f5a69"/><stop offset="0.1395" stop-color="#835f6d"/><stop offset="0.2969" stop-color="#8d6c7a"/><stop offset="0.463" stop-color="#9f838e"/><stop offset="0.6351" stop-color="#b7a2ab"/><stop offset="0.8119" stop-color="#d7cbd0"/><stop offset="0.9902" stop-color="#fdfcfc"/><stop offset="1" stop-color="#ffffff"/></linearGradient><linearGradient gradientUnits="userSpaceOnUse" id="SVGID_4_" node-id="48" spreadMethod="pad" x1="254.6767" x2="284.4673" y1="342.3082" y2="342.3082"><stop offset="0" stop-color="#7f5a69"/><stop offset="0.1395" stop-color="#835f6d"/><stop offset="0.2969" stop-color="#8d6c7a"/><stop offset="0.463" stop-color="#9f838e"/><stop offset="0.6351" stop-color="#b7a2ab"/><stop offset="0.8119" stop-color="#d7cbd0"/><stop offset="0.9902" stop-color="#fdfcfc"/><stop offset="1" stop-color="#ffffff"/></linearGradient><linearGradient gradientUnits="userSpaceOnUse" id="SVGID_5_" node-id="59" spreadMethod="pad" x1="241.5986" x2="254.2336" y1="363.1649" y2="363.1649"><stop offset="0" stop-color="#7f5a69"/><stop offset="0.1395" stop-color="#835f6d"/><stop offset="0.2969" stop-color="#8d6c7a"/><stop offset="0.463" stop-color="#9f838e"/><stop offset="0.6351" stop-color="#b7a2ab"/><stop offset="0.8119" stop-color="#d7cbd0"/><stop offset="0.9902" stop-color="#fdfcfc"/><stop offset="1" stop-color="#ffffff"/></linearGradient><linearGradient gradientUnits="userSpaceOnUse" id="SVGID_6_" node-id="70" spreadMethod="pad" x1="272.1885" x2="286.5198" y1="364.8005" y2="364.8005"><stop offset="0" stop-color="#7f5a69"/><stop offset="0.1395" stop-color="#835f6d"/><stop offset="0.2969" stop-color="#8d6c7a"/><stop offset="0.463" stop-color="#9f838e"/><stop offset="0.6351" stop-color="#b7a2ab"/><stop offset="0.8119" stop-color="#d7cbd0"/><stop offset="0.9902" stop-color="#fdfcfc"/><stop offset="1" stop-color="#ffffff"/></linearGradient><linearGradient gradientUnits="userSpaceOnUse" id="SVGID_7_" node-id="82" spreadMethod="pad" x1="246.4344" x2="264.7951" y1="348.2361" y2="348.2361"><stop offset="0" stop-color="#7f5a69"/><stop offset="0.1395" stop-color="#835f6d"/><stop offset="0.2969" stop-color="#8d6c7a"/><stop offset="0.463" stop-color="#9f838e"/><stop offset="0.6351" stop-color="#b7a2ab"/><stop offset="0.8119" stop-color="#d7cbd0"/><stop offset="0.9902" stop-color="#fdfcfc"/><stop offset="1" stop-color="#ffffff"/></linearGradient><linearGradient gradientUnits="userSpaceOnUse" id="SVGID_8_" node-id="93" spreadMethod="pad" x1="250.2758" x2="271.7501" y1="370.3272" y2="370.3272"><stop offset="0" stop-color="#7f5a69"/><stop offset="0.1395" stop-color="#835f6d"/><stop offset="0.2969" stop-color="#8d6c7a"/><stop offset="0.463" stop-color="#9f838e"/><stop offset="0.6351" stop-color="#b7a2ab"/><stop offset="0.8119" stop-color="#d7cbd0"/><stop offset="0.9902" stop-color="#fdfcfc"/><stop offset="1" stop-color="#ffffff"/></linearGradient><linearGradient gradientUnits="userSpaceOnUse" id="SVGID_9_" node-id="104" spreadMethod="pad" x1="267.0997" x2="280.2376" y1="350.2137" y2="350.2137"><stop offset="0" stop-color="#7f5a69"/><stop offset="0.1395" stop-color="#835f6d"/><stop offset="0.2969" stop-color="#8d6c7a"/><stop offset="0.463" stop-color="#9f838e"/><stop offset="0.6351" stop-color="#b7a2ab"/><stop offset="0.8119" stop-color="#d7cbd0"/><stop offset="0.9902" stop-color="#fdfcfc"/><stop offset="1" stop-color="#ffffff"/></linearGradient><linearGradient gradientUnits="userSpaceOnUse" id="SVGID_10_" node-id="116" spreadMethod="pad" x1="213.3979" x2="276.9111" y1="325.5316" y2="325.5316"><stop offset="0" stop-color="#7f5a69"/><stop offset="0.1395" stop-color="#835f6d"/><stop offset="0.2969" stop-color="#8d6c7a"/><stop offset="0.463" stop-color="#9f838e"/><stop offset="0.6351" stop-color="#b7a2ab"/><stop offset="0.8119" stop-color="#d7cbd0"/><stop offset="0.9902" stop-color="#fdfcfc"/><stop offset="1" stop-color="#ffffff"/></linearGradient><linearGradient gradientUnits="userSpaceOnUse" id="SVGID_11_" node-id="127" spreadMethod="pad" x1="217.2564" x2="278.2579" y1="394.8655" y2="394.8655"><stop offset="0" stop-color="#7f5a69"/><stop offset="0.1395" stop-color="#835f6d"/><stop offset="0.2969" stop-color="#8d6c7a"/><stop offset="0.463" stop-color="#9f838e"/><stop offset="0.6351" stop-color="#b7a2ab"/><stop offset="0.8119" stop-color="#d7cbd0"/><stop offset="0.9902" stop-color="#fdfcfc"/><stop offset="1" stop-color="#ffffff"/></linearGradient><linearGradient gradientUnits="userSpaceOnUse" id="SVGID_12_" node-id="138" spreadMethod="pad" x1="284.3892" x2="313.2708" y1="343.0486" y2="343.0486"><stop offset="0" stop-color="#7f5a69"/><stop offset="0.1395" stop-color="#835f6d"/><stop offset="0.2969" stop-color="#8d6c7a"/><stop offset="0.463" stop-color="#9f838e"/><stop offset="0.6351" stop-color="#b7a2ab"/><stop offset="0.8119" stop-color="#d7cbd0"/><stop offset="0.9902" stop-color="#fdfcfc"/><stop offset="1" stop-color="#ffffff"/></linearGradient><linearGradient gradientUnits="userSpaceOnUse" id="SVGID_13_" node-id="157" spreadMethod="pad" x1="116.2197" x2="211.9133" y1="309.3811" y2="309.3811"><stop offset="0" stop-color="#7f5a69"/><stop offset="0.1395" stop-color="#835f6d"/><stop offset="0.2969" stop-color="#8d6c7a"/><stop offset="0.463" stop-color="#9f838e"/><stop offset="0.6351" stop-color="#b7a2ab"/><stop offset="0.8119" stop-color="#d7cbd0"/><stop offset="0.9902" stop-color="#fdfcfc"/><stop offset="1" stop-color="#ffffff"/></linearGradient><linearGradient gradientUnits="userSpaceOnUse" id="SVGID_14_" node-id="168" spreadMethod="pad" x1="209.7007" x2="397.6821" y1="467.5074" y2="467.5074"><stop offset="0" stop-color="#7f5a69"/><stop offset="0.1395" stop-color="#835f6d"/><stop offset="0.2969" stop-color="#8d6c7a"/><stop offset="0.463" stop-color="#9f838e"/><stop offset="0.6351" stop-color="#b7a2ab"/><stop offset="0.8119" stop-color="#d7cbd0"/><stop offset="0.9902" stop-color="#fdfcfc"/><stop offset="1" stop-color="#ffffff"/></linearGradient><linearGradient gradientUnits="userSpaceOnUse" id="SVGID_15_" node-id="179" spreadMethod="pad" x1="238.1419" x2="410.2726" y1="245.5838" y2="245.5838"><stop offset="0" stop-color="#7f5a69"/><stop offset="0.1395" stop-color="#835f6d"/><stop offset="0.2969" stop-color="#8d6c7a"/><stop offset="0.463" stop-color="#9f838e"/><stop offset="0.6351" stop-color="#b7a2ab"/><stop offset="0.8119" stop-color="#d7cbd0"/><stop offset="0.9902" stop-color="#fdfcfc"/><stop offset="1" stop-color="#ffffff"/></linearGradient><linearGradient gradientUnits="userSpaceOnUse" id="SVGID_16_" node-id="198" spreadMethod="pad" x1="183.9901" x2="226.7925" y1="341.3026" y2="341.3026"><stop offset="0" stop-color="#7f5a69"/><stop offset="0.1395" stop-color="#835f6d"/><stop offset="0.2969" stop-color="#8d6c7a"/><stop offset="0.463" stop-color="#9f838e"/><stop offset="0.6351" stop-color="#b7a2ab"/><stop offset="0.8119" stop-color="#d7cbd0"/><stop offset="0.9902" stop-color="#fdfcfc"/><stop offset="1" stop-color="#ffffff"/></linearGradient><linearGradient gradientUnits="userSpaceOnUse" id="SVGID_17_" node-id="209" spreadMethod="pad" x1="243.576" x2="339.3425" y1="414.1559" y2="414.1559"><stop offset="0" stop-color="#7f5a69"/><stop offset="0.1395" stop-color="#835f6d"/><stop offset="0.2969" stop-color="#8d6c7a"/><stop offset="0.463" stop-color="#9f838e"/><stop offset="0.6351" stop-color="#b7a2ab"/><stop offset="0.8119" stop-color="#d7cbd0"/><stop offset="0.9902" stop-color="#fdfcfc"/><stop offset="1" stop-color="#ffffff"/></linearGradient><linearGradient gradientUnits="userSpaceOnUse" id="SVGID_18_" node-id="220" spreadMethod="pad" x1="239.2626" x2="336.6305" y1="295.9402" y2="295.9402"><stop offset="0" stop-color="#7f5a69"/><stop offset="0.1395" stop-color="#835f6d"/><stop offset="0.2969" stop-color="#8d6c7a"/><stop offset="0.463" stop-color="#9f838e"/><stop offset="0.6351" stop-color="#b7a2ab"/><stop offset="0.8119" stop-color="#d7cbd0"/><stop offset="0.9902" stop-color="#fdfcfc"/><stop offset="1" stop-color="#ffffff"/></linearGradient><linearGradient gradientUnits="userSpaceOnUse" id="SVGID_19_" node-id="291" spreadMethod="pad" x1="190.6321" x2="382.459" y1="236.0806" y2="236.0806"><stop offset="0" stop-color="#7f5a69"/><stop offset="0.1395" stop-color="#835f6d"/><stop offset="0.2969" stop-color="#8d6c7a"/><stop offset="0.463" stop-color="#9f838e"/><stop offset="0.6351" stop-color="#b7a2ab"/><stop offset="0.8119" stop-color="#d7cbd0"/><stop offset="0.9902" stop-color="#fdfcfc"/><stop offset="1" stop-color="#ffffff"/></linearGradient><linearGradient gradientUnits="userSpaceOnUse" id="SVGID_20_" node-id="302" spreadMethod="pad" x1="129.0209" x2="218.0549" y1="393.0609" y2="393.0609"><stop offset="0" stop-color="#7f5a69"/><stop offset="0.1395" stop-color="#835f6d"/><stop offset="0.2969" stop-color="#8d6c7a"/><stop offset="0.463" stop-color="#9f838e"/><stop offset="0.6351" stop-color="#b7a2ab"/><stop offset="0.8119" stop-color="#d7cbd0"/><stop offset="0.9902" stop-color="#fdfcfc"/><stop offset="1" stop-color="#ffffff"/></linearGradient><linearGradient gradientUnits="userSpaceOnUse" id="SVGID_21_" node-id="313" spreadMethod="pad" x1="342.3446" x2="405.6191" y1="373.4111" y2="373.4111"><stop offset="0" stop-color="#7f5a69"/><stop offset="0.1395" stop-color="#835f6d"/><stop offset="0.2969" stop-color="#8d6c7a"/><stop offset="0.463" stop-color="#9f838e"/><stop offset="0.6351" stop-color="#b7a2ab"/><stop offset="0.8119" stop-color="#d7cbd0"/><stop offset="0.9902" stop-color="#fdfcfc"/><stop offset="1" stop-color="#ffffff"/></linearGradient><linearGradient gradientUnits="userSpaceOnUse" id="SVGID_22_" node-id="325" spreadMethod="pad" x1="146.4044" x2="300.7037" y1="267.184" y2="267.184"><stop offset="0" stop-color="#7f5a69"/><stop offset="0.1395" stop-color="#835f6d"/><stop offset="0.2969" stop-color="#8d6c7a"/><stop offset="0.463" stop-color="#9f838e"/><stop offset="0.6351" stop-color="#b7a2ab"/><stop offset="0.8119" stop-color="#d7cbd0"/><stop offset="0.9902" stop-color="#fdfcfc"/><stop offset="1" stop-color="#ffffff"/></linearGradient><linearGradient gradientUnits="userSpaceOnUse" id="SVGID_23_" node-id="336" spreadMethod="pad" x1="155.7789" x2="303.9724" y1="437.008" y2="437.008"><stop offset="0" stop-color="#7f5a69"/><stop offset="0.1395" stop-color="#835f6d"/><stop offset="0.2969" stop-color="#8d6c7a"/><stop offset="0.463" stop-color="#9f838e"/><stop offset="0.6351" stop-color="#b7a2ab"/><stop offset="0.8119" stop-color="#d7cbd0"/><stop offset="0.9902" stop-color="#fdfcfc"/><stop offset="1" stop-color="#ffffff"/></linearGradient><linearGradient gradientUnits="userSpaceOnUse" id="SVGID_24_" node-id="347" spreadMethod="pad" x1="320.847" x2="389.0365" y1="309.7309" y2="309.7309"><stop offset="0" stop-color="#7f5a69"/><stop offset="0.1395" stop-color="#835f6d"/><stop offset="0.2969" stop-color="#8d6c7a"/><stop offset="0.463" stop-color="#9f838e"/><stop offset="0.6351" stop-color="#b7a2ab"/><stop offset="0.8119" stop-color="#d7cbd0"/><stop offset="0.9902" stop-color="#fdfcfc"/><stop offset="1" stop-color="#ffffff"/></linearGradient><linearGradient gradientUnits="userSpaceOnUse" id="SVGID_25_" node-id="380" spreadMethod="pad" x1="77.6191" x2="241.542" y1="270.2181" y2="270.2181"><stop offset="0" stop-color="#7f5a69"/><stop offset="0.1395" stop-color="#835f6d"/><stop offset="0.2969" stop-color="#8d6c7a"/><stop offset="0.463" stop-color="#9f838e"/><stop offset="0.6351" stop-color="#b7a2ab"/><stop offset="0.8119" stop-color="#d7cbd0"/><stop offset="0.9902" stop-color="#fdfcfc"/><stop offset="1" stop-color="#ffffff"/></linearGradient><linearGradient gradientUnits="userSpaceOnUse" id="SVGID_26_" node-id="391" spreadMethod="pad" x1="153.4288" x2="398.7122" y1="514.624" y2="514.624"><stop offset="0" stop-color="#7f5a69"/><stop offset="0.1395" stop-color="#835f6d"/><stop offset="0.2969" stop-color="#8d6c7a"/><stop offset="0.463" stop-color="#9f838e"/><stop offset="0.6351" stop-color="#b7a2ab"/><stop offset="0.8119" stop-color="#d7cbd0"/><stop offset="0.9902" stop-color="#fdfcfc"/><stop offset="1" stop-color="#ffffff"/></linearGradient><linearGradient gradientUnits="userSpaceOnUse" id="SVGID_27_" node-id="402" spreadMethod="pad" x1="276.7323" x2="457.0719" y1="242.3699" y2="242.3699"><stop offset="0" stop-color="#7f5a69"/><stop offset="0.1395" stop-color="#835f6d"/><stop offset="0.2969" stop-color="#8d6c7a"/><stop offset="0.463" stop-color="#9f838e"/><stop offset="0.6351" stop-color="#b7a2ab"/><stop offset="0.8119" stop-color="#d7cbd0"/><stop offset="0.9902" stop-color="#fdfcfc"/><stop offset="1" stop-color="#ffffff"/></linearGradient></defs><g node-id="1402"><g node-id="1426"><path d="M 232.10 310.80 C 238.10 306.20 245.10 302.80 252.70 301.10 C 256.40 300.20 260.30 299.80 264.20 299.70 C 268.10 299.70 271.90 300.10 275.70 300.80 C 279.50 301.60 283.20 302.70 286.80 304.20 C 290.30 305.80 293.70 307.60 296.90 309.90 C 303.20 314.30 308.50 320.20 312.10 326.80 C 307.40 320.90 301.80 315.80 295.60 311.90 C 292.50 310.00 289.20 308.30 285.80 306.90 C 284.90 306.60 284.10 306.20 283.20 305.90 L 280.60 305.00 L 277.90 304.30 C 277.00 304.10 276.10 303.90 275.20 303.70 C 268.00 302.20 260.50 302.10 253.30 303.30 C 245.70 304.50 238.70 307.20 232.10 310.80 Z" fill="#eef0f3" fill-rule="nonzero" group-id="1,25" node-id="931" stroke="none" target-height="27.099976" target-width="80" target-x="232.1" target-y="299.7"/></g><g node-id="1427"><path d="M 243.00 412.40 C 236.50 410.50 230.40 407.20 225.10 402.80 C 222.40 400.60 220.00 398.10 217.80 395.50 C 215.60 392.80 213.70 390.00 212.00 386.90 C 208.70 380.80 206.60 374.10 205.80 367.30 C 205.00 360.50 205.60 353.50 207.50 347.10 C 206.80 353.80 206.90 360.50 208.10 367.00 C 208.70 370.20 209.50 373.40 210.60 376.50 C 211.70 379.60 213.00 382.60 214.60 385.50 C 216.10 388.40 218.00 391.10 220.00 393.70 C 222.00 396.30 224.20 398.70 226.60 401.00 C 231.40 405.60 237.00 409.30 243.00 412.40 Z" fill="#eef0f3" fill-rule="nonzero" group-id="1,26" node-id="936" stroke="none" target-height="65.29999" target-width="38" target-x="205" target-y="347.1"/></g><path d="M 317.10 336.30 C 320.30 342.20 322.10 348.80 322.70 355.60 C 323.00 359.00 322.90 362.40 322.60 365.80 C 322.20 369.20 321.60 372.50 320.60 375.80 C 319.60 379.10 318.30 382.20 316.80 385.30 C 315.20 388.30 313.40 391.20 311.30 393.80 C 307.10 399.10 301.90 403.60 296.00 406.80 C 301.20 402.60 305.70 397.80 309.40 392.40 C 311.20 389.70 312.90 386.90 314.30 384.00 C 315.70 381.10 316.90 378.10 317.80 375.00 C 318.80 371.90 319.40 368.70 319.90 365.50 C 320.40 362.30 320.50 359.00 320.50 355.80 C 320.20 349.20 319.10 342.60 317.10 336.30 Z" fill="#eef0f3" fill-rule="nonzero" group-id="1,27" node-id="941" stroke="none" target-height="70.5" target-width="27" target-x="296" target-y="336.3"/></g><g node-id="1403"><g node-id="1429"><path d="M 225.60 347.20 C 226.50 342.00 228.80 337.00 232.00 332.70 C 233.60 330.50 235.50 328.60 237.50 326.80 C 239.60 325.00 241.80 323.50 244.20 322.20 C 246.60 320.90 249.10 319.90 251.70 319.10 C 254.30 318.40 257.00 317.90 259.70 317.70 C 265.10 317.40 270.50 318.20 275.40 320.30 C 270.20 319.40 265.00 319.20 260.00 320.00 C 257.50 320.40 255.00 320.90 252.60 321.80 C 250.20 322.60 247.90 323.60 245.70 324.80 C 241.20 327.20 237.20 330.40 233.80 334.20 C 230.40 337.90 227.80 342.40 225.60 347.20 Z" fill="url(#SVGID_1_)" fill-rule="nonzero" group-id="2,28" node-id="949" stroke="none" target-height="29.800018" target-width="49.799988" target-x="225.6" target-y="317.4"/></g><g node-id="1430"><path d="M 276.60 396.70 C 272.40 398.70 267.60 399.80 262.80 399.90 C 260.40 400.00 258.00 399.70 255.60 399.30 C 253.20 398.90 250.90 398.20 248.60 397.30 C 246.40 396.40 244.20 395.30 242.20 393.90 C 240.20 392.60 238.30 391.10 236.60 389.40 C 233.20 386.00 230.40 382.00 228.80 377.50 C 231.60 381.30 234.70 384.70 238.20 387.60 C 240.00 389.00 241.80 390.40 243.80 391.50 C 245.70 392.70 247.80 393.70 249.90 394.50 C 252.00 395.40 254.10 396.00 256.30 396.50 C 258.50 397.00 260.70 397.30 263.00 397.50 C 267.30 397.90 271.90 397.60 276.60 396.70 Z" fill="url(#SVGID_2_)" fill-rule="nonzero" group-id="2,29" node-id="954" stroke="none" target-height="22.5" target-width="47.800003" target-x="228.8" target-y="377.5"/></g><path d="M 282.50 323.10 C 286.90 324.70 290.90 327.30 294.30 330.70 C 296.00 332.40 297.50 334.20 298.90 336.20 C 300.20 338.20 301.40 340.30 302.30 342.50 C 303.20 344.70 303.90 347.00 304.40 349.30 C 304.90 351.60 305.20 354.00 305.20 356.40 C 305.30 361.20 304.30 365.90 302.40 370.10 C 303.10 365.50 303.30 360.90 302.90 356.50 C 302.60 354.30 302.30 352.10 301.70 349.90 C 301.20 347.70 300.50 345.60 299.60 343.60 C 298.80 341.50 297.70 339.60 296.60 337.70 C 295.50 335.80 294.10 334.00 292.70 332.30 C 289.70 328.90 286.30 325.80 282.50 323.10 Z" fill="url(#SVGID_3_)" fill-rule="nonzero" group-id="2,30" node-id="959" stroke="none" target-height="47" target-width="22.799988" target-x="282.5" target-y="323.1"/></g><g node-id="1404"><g node-id="1432"><path d="M 255.30 338.80 C 257.50 337.10 260.30 336.10 263.20 335.70 C 266.10 335.40 269.10 335.70 271.80 336.80 C 274.60 337.80 277.10 339.50 279.10 341.60 C 281.10 343.70 282.50 346.30 283.10 349.10 C 281.40 346.90 279.60 344.90 277.50 343.30 C 275.40 341.70 273.20 340.40 270.80 339.60 C 268.40 338.70 265.90 338.20 263.30 338.10 C 260.70 337.90 258.10 338.20 255.30 338.80 Z" fill="url(#SVGID_4_)" fill-rule="nonzero" group-id="3,31" node-id="967" stroke="none" target-height="13.700012" target-width="27.800003" target-x="255.3" target-y="335.4"/></g><g node-id="1433"><path d="M 253.50 375.90 C 251.10 375.20 248.80 373.80 247.00 371.90 C 245.20 370.00 243.80 367.80 242.90 365.30 C 242.00 362.80 241.70 360.20 241.90 357.60 C 242.20 355.00 243.00 352.50 244.40 350.40 C 244.10 352.90 244.00 355.30 244.20 357.60 C 244.40 359.90 244.90 362.10 245.60 364.30 C 246.40 366.40 247.40 368.50 248.70 370.40 C 250.10 372.40 251.70 374.10 253.50 375.90 Z" fill="url(#SVGID_5_)" fill-rule="nonzero" group-id="3,32" node-id="972" stroke="none" target-height="25.5" target-width="11.800003" target-x="241.7" target-y="350.4"/></g><path d="M 284.40 352.80 C 285.60 355.00 286.10 357.60 286.10 360.10 C 286.10 362.70 285.40 365.20 284.30 367.60 C 283.20 369.90 281.60 372.00 279.60 373.70 C 277.60 375.30 275.30 376.50 272.80 377.00 C 274.70 375.40 276.40 373.80 277.90 372.10 C 279.40 370.30 280.60 368.40 281.60 366.40 C 282.60 364.40 283.30 362.20 283.70 360.00 C 284.20 357.60 284.40 355.20 284.40 352.80 Z" fill="url(#SVGID_6_)" fill-rule="nonzero" group-id="3,33" node-id="977" stroke="none" target-height="24.200012" target-width="13.300018" target-x="272.8" target-y="352.8"/></g><g node-id="1405"><g node-id="1435"><path d="M 247.90 355.60 C 247.50 353.50 247.70 351.30 248.60 349.30 C 249.40 347.30 250.80 345.40 252.50 344.00 C 254.20 342.60 256.20 341.60 258.40 341.10 C 260.50 340.70 262.80 340.80 264.70 341.60 C 262.60 342.10 260.80 342.60 259.10 343.40 C 257.40 344.20 255.80 345.10 254.40 346.30 C 253.00 347.50 251.80 348.80 250.70 350.40 C 249.60 351.90 248.70 353.70 247.90 355.60 Z" fill="url(#SVGID_7_)" fill-rule="nonzero" group-id="4,34" node-id="985" stroke="none" target-height="14.899994" target-width="17.200012" target-x="247.5" target-y="340.7"/></g><g node-id="1436"><path d="M 271.00 370.30 C 269.70 371.70 268.00 372.70 266.10 373.30 C 264.20 373.80 262.20 374.00 260.30 373.60 C 258.40 373.30 256.50 372.50 254.90 371.30 C 253.30 370.10 252.10 368.60 251.40 366.80 C 253.00 367.80 254.50 368.60 256.10 369.30 C 257.60 369.90 259.20 370.40 260.80 370.70 C 262.40 371.00 264.00 371.10 265.70 371.00 C 267.40 371.00 269.10 370.70 271.00 370.30 Z" fill="url(#SVGID_8_)" fill-rule="nonzero" group-id="4,35" node-id="990" stroke="none" target-height="7.200012" target-width="19.600006" target-x="251.4" target-y="366.8"/></g><path d="M 267.50 342.10 C 269.40 342.00 271.30 342.50 273.00 343.50 C 274.70 344.40 276.20 345.80 277.30 347.40 C 278.40 349.00 279.20 350.90 279.40 352.80 C 279.70 354.70 279.50 356.70 278.70 358.40 C 278.20 356.60 277.80 354.90 277.10 353.40 C 276.50 351.90 275.70 350.50 274.80 349.10 C 273.90 347.80 272.80 346.60 271.60 345.40 C 270.40 344.20 269.00 343.20 267.50 342.10 Z" fill="url(#SVGID_9_)" fill-rule="nonzero" group-id="4,36" node-id="995" stroke="none" target-height="16.399994" target-width="12.200012" target-x="267.5" target-y="342"/></g><g node-id="1406"><g node-id="1438"><path d="M 214.80 343.70 C 216.10 337.30 218.90 331.20 223.00 325.90 C 225.00 323.20 227.30 320.80 229.80 318.70 C 232.40 316.60 235.10 314.70 238.10 313.10 C 241.00 311.50 244.10 310.30 247.30 309.30 C 250.50 308.40 253.80 307.80 257.10 307.60 C 263.70 307.10 270.40 308.10 276.40 310.60 C 270.00 309.30 263.60 309.10 257.30 309.90 C 254.20 310.40 251.10 311.00 248.10 312.00 C 247.40 312.30 246.60 312.50 245.90 312.80 L 243.70 313.70 C 242.30 314.40 240.80 315.00 239.50 315.80 C 234.00 318.80 229.00 322.70 224.80 327.50 C 220.60 332.10 217.30 337.70 214.80 343.70 Z" fill="url(#SVGID_10_)" fill-rule="nonzero" group-id="5,37" node-id="1003" stroke="none" target-height="36.600006" target-width="61.59999" target-x="214.8" target-y="307.1"/></g><g node-id="1439"><path d="M 277.80 404.90 C 272.50 407.30 266.60 408.50 260.70 408.60 C 257.70 408.60 254.80 408.30 251.90 407.80 C 249.00 407.20 246.10 406.40 243.30 405.30 C 237.80 403.10 232.70 399.80 228.40 395.70 C 224.10 391.60 220.70 386.60 218.60 381.20 C 221.90 386.00 225.70 390.30 230.00 393.90 C 232.20 395.70 234.40 397.40 236.90 398.80 C 239.30 400.30 241.80 401.50 244.40 402.50 C 247.00 403.60 249.70 404.40 252.40 405.00 C 255.10 405.70 257.90 406.00 260.70 406.20 C 266.40 406.60 272.10 406.10 277.80 404.90 Z" fill="url(#SVGID_11_)" fill-rule="nonzero" group-id="5,38" node-id="1008" stroke="none" target-height="27.399994" target-width="59.19998" target-x="218.6" target-y="381.2"/></g><path d="M 285.10 314.00 C 290.50 316.10 295.40 319.40 299.50 323.60 C 301.60 325.70 303.40 328.00 305.10 330.40 C 306.70 332.80 308.10 335.40 309.30 338.10 C 310.40 340.80 311.30 343.60 312.00 346.50 C 312.60 349.40 313.00 352.30 313.00 355.20 C 313.10 361.00 312.10 366.90 309.80 372.20 C 310.80 366.60 311.20 360.90 310.60 355.40 C 310.30 352.60 309.90 349.90 309.20 347.20 C 308.50 344.50 307.70 341.90 306.60 339.30 C 305.50 336.70 304.30 334.30 302.80 331.90 C 301.40 329.50 299.70 327.30 297.90 325.20 C 294.10 320.90 289.90 317.20 285.10 314.00 Z" fill="url(#SVGID_12_)" fill-rule="nonzero" group-id="5,39" node-id="1013" stroke="none" target-height="58.200012" target-width="28" target-x="285.1" target-y="314"/></g><g node-id="1407"><g node-id="1441"><path d="M 168.00 394.40 C 165.10 388.20 163.00 381.70 161.40 375.10 C 159.80 368.40 159.10 361.60 159.00 354.70 C 158.90 347.80 159.50 340.90 160.80 334.20 C 162.10 327.40 164.20 320.80 166.80 314.50 C 167.50 312.90 168.10 311.30 168.90 309.80 L 171.20 305.20 L 173.80 300.70 C 174.70 299.20 175.60 297.80 176.60 296.30 C 180.50 290.60 184.90 285.30 189.90 280.50 C 194.90 275.70 200.30 271.50 206.10 267.80 C 211.90 264.20 218.10 261.10 224.50 258.80 C 212.20 264.50 201.00 272.40 191.60 282.10 C 186.90 286.90 182.70 292.20 179.00 297.80 C 178.10 299.20 177.20 300.60 176.30 302.10 L 173.80 306.50 L 171.60 311.00 C 170.80 312.50 170.30 314.10 169.60 315.60 C 167.00 321.80 165.00 328.20 163.60 334.80 C 162.20 341.40 161.50 348.10 161.40 354.80 C 161.10 368.10 163.50 381.60 168.00 394.40 Z" fill="#eef0f3" fill-rule="nonzero" group-id="6,40" node-id="1021" stroke="none" target-height="135.6" target-width="65.600006" target-x="158.9" target-y="258.8"/></g><g node-id="1442"><path d="M 351.50 410.80 C 345.50 421.30 337.40 430.80 327.70 438.40 C 322.90 442.20 317.70 445.50 312.30 448.40 C 306.90 451.30 301.20 453.60 295.30 455.50 C 283.60 459.10 271.10 460.60 258.90 459.80 C 246.70 459.00 234.60 455.80 223.70 450.60 C 229.40 452.60 235.20 454.30 241.10 455.40 C 247.00 456.50 253.00 457.30 259.00 457.40 C 265.00 457.50 271.00 457.30 276.90 456.50 C 282.80 455.70 288.70 454.40 294.40 452.60 C 305.80 449.10 316.60 443.60 326.30 436.50 C 336.00 429.40 344.40 420.60 351.50 410.80 Z" fill="#eef0f3" fill-rule="nonzero" group-id="6,41" node-id="1026" stroke="none" target-height="49.80002" target-width="127.8" target-x="223.7" target-y="410.8"/></g><path d="M 243.00 253.10 C 254.60 250.10 266.90 249.40 278.90 250.90 C 284.90 251.60 290.80 253.00 296.60 254.80 C 302.40 256.60 308.00 259.00 313.40 261.80 C 318.80 264.70 323.90 268.00 328.60 271.70 C 333.30 275.50 337.80 279.60 341.80 284.20 C 349.80 293.30 356.10 303.90 360.00 315.20 C 354.90 304.40 348.20 294.40 340.00 285.80 C 335.90 281.50 331.50 277.50 326.80 274.00 C 322.10 270.40 317.10 267.20 311.90 264.50 C 301.50 258.90 290.20 255.20 278.50 253.20 C 266.90 251.30 254.90 251.30 243.00 253.10 Z" fill="#eef0f3" fill-rule="nonzero" group-id="6,42" node-id="1031" stroke="none" target-height="65.80002" target-width="117" target-x="243" target-y="249.4"/></g><g node-id="1408"><g node-id="1444"><path d="M 129.10 408.20 C 125.10 399.10 122.10 389.60 119.80 379.90 C 117.60 370.20 116.60 360.20 116.50 350.20 L 116.50 346.50 C 116.50 345.30 116.60 344.00 116.70 342.80 L 116.90 339.10 L 117.00 337.20 L 117.20 335.30 C 117.50 332.80 117.70 330.30 118.10 327.90 L 119.40 320.50 C 121.40 310.70 124.30 301.10 128.10 291.90 L 129.60 288.50 C 130.10 287.40 130.60 286.20 131.20 285.10 L 134.60 278.40 L 138.30 271.90 C 138.90 270.80 139.60 269.80 140.30 268.70 C 141.00 267.70 141.60 266.60 142.30 265.60 C 148.00 257.40 154.30 249.60 161.50 242.60 C 168.70 235.70 176.50 229.40 184.90 224.00 C 193.30 218.70 202.20 214.20 211.50 210.70 C 202.50 214.80 193.80 219.60 185.70 225.20 C 183.70 226.60 181.70 228.10 179.70 229.50 C 177.80 231.00 175.80 232.50 174.00 234.10 L 171.20 236.50 L 168.50 239.00 C 166.70 240.60 165.00 242.40 163.20 244.10 C 149.50 258.20 138.40 274.80 131.00 292.90 C 127.20 301.90 124.30 311.40 122.30 320.90 C 120.20 330.50 119.30 340.30 119.10 350.10 C 118.60 369.90 122.30 389.60 129.10 408.20 Z" fill="url(#SVGID_13_)" fill-rule="nonzero" group-id="7,43" node-id="1039" stroke="none" target-height="197.50002" target-width="95" target-x="116.5" target-y="210.7"/></g><g node-id="1445"><path d="M 396.40 432.00 C 387.30 447.20 375.50 460.80 361.40 471.70 C 354.40 477.20 346.90 482.00 339.00 486.20 C 331.10 490.30 322.80 493.70 314.30 496.40 C 297.30 501.70 279.30 503.90 261.50 502.70 C 252.60 502.20 243.80 500.70 235.20 498.60 C 230.90 497.50 226.70 496.20 222.50 494.70 C 218.30 493.30 214.20 491.50 210.20 489.70 C 226.70 496.00 244.10 499.60 261.60 500.30 C 270.40 500.60 279.10 500.30 287.80 499.10 C 296.50 498.00 305.00 496.10 313.40 493.50 C 330.10 488.30 345.90 480.20 360.00 469.80 C 367.00 464.60 373.60 458.80 379.70 452.40 C 385.90 446.10 391.40 439.20 396.40 432.00 Z" fill="url(#SVGID_14_)" fill-rule="nonzero" group-id="7,44" node-id="1044" stroke="none" target-height="71.899994" target-width="186.2" target-x="210.2" target-y="432"/></g><path d="M 238.40 202.30 C 246.90 200.20 255.60 199.10 264.30 198.60 C 273.10 198.20 281.90 198.50 290.60 199.70 C 299.30 200.80 307.90 202.80 316.30 205.50 C 324.70 208.20 332.80 211.60 340.60 215.70 C 348.40 219.80 355.80 224.60 362.70 230.10 C 369.60 235.60 376.10 241.60 381.90 248.20 C 387.70 254.80 393.00 261.90 397.50 269.40 C 402.00 276.90 405.90 284.80 408.90 293.00 C 401.70 277.10 392.00 262.50 380.20 249.80 C 374.30 243.50 367.90 237.60 361.00 232.40 C 354.10 227.10 346.90 222.50 339.20 218.40 C 324.00 210.30 307.40 204.80 290.30 202.10 C 273.20 199.20 255.60 199.30 238.40 202.30 Z" fill="url(#SVGID_15_)" fill-rule="nonzero" group-id="7,45" node-id="1049" stroke="none" target-height="94.8" target-width="170.5" target-x="238.4" target-y="198.2"/></g><g node-id="1409"><g node-id="1447"><path d="M 181.30 276.90 C 185.90 271.30 191.10 266.20 196.80 261.60 C 202.50 257.00 208.70 253.10 215.20 249.80 C 221.70 246.50 228.60 243.90 235.70 242.00 C 242.80 240.10 250.10 239.00 257.40 238.50 L 260.10 238.40 C 261.00 238.40 261.90 238.30 262.80 238.30 L 268.30 238.40 L 273.80 238.80 C 275.60 238.90 277.40 239.20 279.30 239.40 C 286.50 240.50 293.70 242.20 300.60 244.70 C 307.50 247.20 314.10 250.40 320.30 254.20 C 326.40 258.10 332.30 262.50 337.50 267.60 C 326.30 258.40 313.50 251.40 299.90 246.90 C 293.10 244.70 286.10 243.10 279.00 242.20 C 277.20 242.00 275.50 241.80 273.70 241.60 L 268.40 241.30 L 263.00 241.30 C 261.20 241.30 259.40 241.50 257.70 241.50 C 250.60 241.90 243.50 243.00 236.60 244.70 C 229.70 246.40 222.90 248.90 216.40 251.90 C 203.20 257.90 191.40 266.50 181.30 276.90 Z" fill="#eef0f3" fill-rule="nonzero" group-id="8,46" node-id="1057" stroke="none" target-height="38.59999" target-width="156.2" target-x="181.3" target-y="238.3"/></g><g node-id="1448"><path d="M 251.20 460.00 C 238.30 459.10 225.50 455.80 213.80 450.00 C 207.90 447.20 202.30 443.80 197.00 439.90 C 191.70 436.00 186.80 431.70 182.30 426.90 C 173.40 417.40 166.10 406.20 161.30 394.10 C 158.80 388.10 157.00 381.80 155.70 375.40 C 155.10 372.20 154.60 369.00 154.30 365.80 C 153.90 362.60 153.80 359.30 153.70 356.10 C 155.00 368.90 158.30 381.50 163.50 393.10 C 166.10 398.90 169.10 404.50 172.70 409.80 C 176.20 415.10 180.20 420.10 184.60 424.70 C 193.30 434.00 203.60 441.70 214.90 447.70 C 220.50 450.70 226.40 453.20 232.50 455.20 C 238.50 457.40 244.80 458.90 251.20 460.00 Z" fill="#eef0f3" fill-rule="nonzero" group-id="8,47" node-id="1062" stroke="none" target-height="103.899994" target-width="97.5" target-x="153.7" target-y="356.1"/></g><path d="M 351.50 282.80 C 355.70 287.60 359.20 293.00 362.40 298.50 C 365.50 304.10 368.20 310.00 370.20 316.10 C 372.30 322.20 373.80 328.50 374.70 334.90 C 375.60 341.30 376.00 347.70 375.80 354.20 C 375.60 360.60 374.80 367.10 373.40 373.40 C 372.00 379.70 370.10 385.90 367.60 391.80 C 365.10 397.70 362.10 403.40 358.60 408.80 C 355.00 414.10 351.10 419.20 346.60 423.70 C 354.60 413.80 361.00 402.70 365.50 390.90 C 367.70 385.00 369.50 378.90 370.70 372.80 C 371.90 366.60 372.70 360.40 372.90 354.10 C 373.40 341.50 371.70 328.90 368.10 316.90 C 364.30 304.70 358.80 293.20 351.50 282.80 Z" fill="#eef0f3" fill-rule="nonzero" group-id="8,48" node-id="1067" stroke="none" target-height="140.90002" target-width="29.399994" target-x="346.6" target-y="282.8"/></g><g node-id="1410"><g node-id="1450"><path d="M 195.90 395.90 C 190.20 387.10 186.40 376.90 184.90 366.40 C 184.10 361.10 183.90 355.80 184.20 350.50 C 184.60 345.20 185.50 339.90 186.90 334.70 C 187.30 333.40 187.60 332.10 188.10 330.90 L 189.40 327.10 L 191.00 323.40 C 191.50 322.20 192.10 321.00 192.70 319.80 C 195.20 315.10 198.00 310.50 201.40 306.40 C 204.80 302.30 208.50 298.50 212.70 295.20 C 216.80 291.90 221.30 289.00 226.00 286.70 C 221.60 289.60 217.50 292.80 213.60 296.30 C 209.80 299.80 206.30 303.70 203.20 307.90 C 200.10 312.10 197.40 316.50 195.20 321.10 C 194.70 322.30 194.10 323.40 193.60 324.60 L 192.10 328.20 L 190.80 331.80 C 190.40 333.00 190.10 334.30 189.70 335.50 C 186.90 345.40 186.00 355.90 187.10 366.10 C 188.30 376.40 191.40 386.50 195.90 395.90 Z" fill="url(#SVGID_16_)" fill-rule="nonzero" group-id="9,49" node-id="1075" stroke="none" target-height="109.19998" target-width="42.100006" target-x="183.9" target-y="286.7"/></g><g node-id="1451"><path d="M 338.00 390.80 C 334.50 399.50 329.30 407.60 322.60 414.40 C 319.30 417.80 315.60 420.90 311.80 423.60 C 307.90 426.30 303.70 428.70 299.40 430.70 C 290.70 434.60 281.30 437.00 271.80 437.40 C 262.30 437.90 252.80 436.60 243.90 433.50 C 253.10 435.40 262.40 436.00 271.60 435.10 C 276.20 434.60 280.70 433.90 285.20 432.60 C 289.60 431.40 294.00 429.90 298.10 428.00 C 306.50 424.20 314.20 419.00 320.90 412.70 C 327.70 406.40 333.40 398.90 338.00 390.80 Z" fill="url(#SVGID_17_)" fill-rule="nonzero" group-id="9,50" node-id="1080" stroke="none" target-height="47.100006" target-width="94.100006" target-x="243.9" target-y="390.8"/></g><path d="M 239.70 280.50 C 248.20 276.90 257.60 275.10 267.00 275.10 C 271.70 275.10 276.40 275.50 281.00 276.30 C 285.60 277.10 290.20 278.40 294.60 280.10 C 299.00 281.80 303.20 283.80 307.30 286.30 C 311.30 288.80 315.10 291.50 318.60 294.70 C 325.60 300.90 331.40 308.50 335.40 316.90 C 330.30 309.20 324.20 302.30 317.10 296.50 C 313.60 293.70 309.80 291.00 305.90 288.80 C 302.00 286.50 297.90 284.60 293.60 283.00 C 289.40 281.40 285.00 280.10 280.60 279.20 C 276.20 278.30 271.60 277.80 267.10 277.50 C 257.90 277.00 248.70 278.10 239.70 280.50 Z" fill="url(#SVGID_18_)" fill-rule="nonzero" group-id="9,51" node-id="1085" stroke="none" target-height="41.799988" target-width="95.7" target-x="239.7" target-y="275.1"/></g><g node-id="1411"><g node-id="1453"><path d="M 225.10 299.20 C 232.40 293.70 241.00 289.60 250.10 287.70 C 254.60 286.70 259.30 286.20 263.90 286.10 C 268.60 286.10 273.20 286.60 277.80 287.40 C 278.90 287.70 280.10 287.90 281.20 288.20 L 284.60 289.10 L 287.90 290.20 C 289.00 290.60 290.10 291.00 291.20 291.50 C 295.50 293.40 299.60 295.60 303.40 298.30 C 307.20 301.00 310.70 304.00 313.80 307.40 C 316.90 310.80 319.70 314.50 321.90 318.50 C 319.10 314.90 316.00 311.50 312.70 308.40 C 309.40 305.30 305.80 302.60 302.00 300.20 C 298.20 297.80 294.20 295.70 290.00 294.10 C 288.90 293.70 287.90 293.30 286.90 292.90 L 283.70 291.90 L 280.50 291.00 C 279.40 290.70 278.30 290.50 277.20 290.30 C 268.40 288.50 259.30 288.40 250.50 289.90 C 241.60 291.50 233.10 294.80 225.10 299.20 Z" fill="#eef0f3" fill-rule="nonzero" group-id="10,52" node-id="1093" stroke="none" target-height="32.399994" target-width="96.79999" target-x="225.1" target-y="286.1"/></g><g node-id="1454"><path d="M 238.40 422.30 C 230.60 419.90 223.20 415.90 216.90 410.50 C 213.70 407.90 210.80 404.90 208.20 401.70 C 205.60 398.50 203.30 395.00 201.20 391.40 C 197.20 384.10 194.60 376.00 193.70 367.80 C 192.70 359.60 193.30 351.20 195.50 343.30 C 194.50 351.40 194.60 359.50 196.00 367.40 C 196.70 371.30 197.70 375.20 199.00 379.00 C 200.30 382.80 201.90 386.40 203.80 389.90 C 207.60 396.90 212.60 403.30 218.40 408.70 C 224.20 414.30 231.00 418.70 238.40 422.30 Z" fill="#eef0f3" fill-rule="nonzero" group-id="10,53" node-id="1098" stroke="none" target-height="79" target-width="45.699997" target-x="192.7" target-y="343.3"/></g><path d="M 328.10 330.20 C 331.80 337.40 334.00 345.40 334.60 353.50 C 335.00 357.60 334.80 361.70 334.40 365.80 C 334.00 369.90 333.10 373.90 332.00 377.90 C 330.80 381.80 329.30 385.70 327.40 389.30 C 325.50 392.90 323.30 396.40 320.80 399.60 C 315.80 406.10 309.50 411.50 302.50 415.50 C 308.80 410.50 314.40 404.80 319.00 398.30 C 321.20 395.00 323.30 391.60 325.00 388.10 C 326.70 384.60 328.20 380.90 329.30 377.10 C 330.50 373.30 331.30 369.50 331.80 365.60 C 332.40 361.70 332.50 357.70 332.40 353.80 C 332.10 345.70 330.60 337.80 328.10 330.20 Z" fill="#eef0f3" fill-rule="nonzero" group-id="10,54" node-id="1103" stroke="none" target-height="85.29999" target-width="32.5" target-x="302.5" target-y="330.2"/></g><g node-id="1412"><g node-id="1456"><path d="M 262.10 314.10 C 260.00 314.80 257.90 315.40 255.90 316.00 C 253.90 316.60 251.90 317.20 249.90 317.90 C 247.90 318.60 246.00 319.30 244.00 320.00 C 242.00 320.70 240.10 321.60 238.00 322.30 C 239.40 320.50 241.10 319.10 243.00 317.90 C 244.90 316.70 246.90 315.70 249.00 315.00 C 251.10 314.30 253.30 313.80 255.50 313.60 C 257.70 313.50 259.90 313.50 262.10 314.10 Z" fill="#eef0f3" fill-rule="nonzero" group-id="11,55" node-id="1111" stroke="none" target-height="8.799988" target-width="24.100006" target-x="238" target-y="313.5"/></g><g node-id="1457"><path d="M 307.10 346.00 C 305.90 344.10 304.80 342.30 303.70 340.40 C 302.60 338.60 301.50 336.80 300.30 335.10 C 299.10 333.40 298.00 331.60 296.70 329.90 C 295.50 328.20 294.20 326.50 292.90 324.60 C 295.00 325.50 296.80 326.80 298.40 328.40 C 300.00 329.90 301.50 331.60 302.70 333.50 C 303.90 335.40 304.90 337.40 305.70 339.50 C 306.60 341.60 307.10 343.80 307.10 346.00 Z" fill="#eef0f3" fill-rule="nonzero" group-id="11,56" node-id="1116" stroke="none" target-height="21.399994" target-width="14.200012" target-x="292.9" target-y="324.6"/></g><g node-id="1458"><path d="M 275.30 402.70 C 276.50 401.80 277.60 401.10 278.80 400.40 C 280.00 399.70 281.10 399.20 282.30 398.60 C 283.50 398.00 284.70 397.50 285.90 397.10 C 287.20 396.60 288.40 396.20 289.90 395.90 C 289.20 397.20 288.20 398.20 287.10 399.10 C 286.00 400.00 284.80 400.70 283.50 401.30 C 282.20 401.90 280.90 402.30 279.50 402.60 C 278.20 402.90 276.80 403.00 275.30 402.70 Z" fill="#eef0f3" fill-rule="nonzero" group-id="11,57" node-id="1121" stroke="none" target-height="7.100006" target-width="14.600006" target-x="275.3" target-y="395.9"/></g><g node-id="1459"><path d="M 230.40 389.10 C 231.80 389.70 232.90 390.40 234.10 391.20 C 235.20 391.90 236.30 392.70 237.30 393.50 C 238.30 394.30 239.40 395.20 240.40 396.10 C 241.40 397.00 242.40 398.00 243.30 399.10 C 241.80 399.00 240.40 398.60 239.10 398.00 C 237.80 397.40 236.60 396.70 235.50 395.80 C 234.40 394.90 233.40 393.90 232.50 392.80 C 231.60 391.80 230.90 390.50 230.40 389.10 Z" fill="#eef0f3" fill-rule="nonzero" group-id="11,58" node-id="1126" stroke="none" target-height="10" target-width="12.900009" target-x="230.4" target-y="389.1"/></g><path d="M 219.60 351.50 C 219.90 353.60 220.00 355.60 220.20 357.60 C 220.40 359.60 220.50 361.50 220.70 363.50 C 220.90 365.40 221.10 367.40 221.40 369.30 C 221.60 371.30 221.90 373.20 222.10 375.40 C 220.80 373.70 219.80 371.90 219.10 369.90 C 218.40 367.90 217.90 365.90 217.70 363.80 C 217.50 361.70 217.50 359.60 217.80 357.60 C 218.10 355.50 218.70 353.40 219.60 351.50 Z" fill="#eef0f3" fill-rule="nonzero" group-id="11,59" node-id="1131" stroke="none" target-height="23.899994" target-width="4.600006" target-x="217.5" target-y="351.5"/></g><g node-id="1413"><g node-id="1461"><path d="M 258.60 334.60 C 257.60 335.50 256.50 336.20 255.50 336.90 C 254.50 337.60 253.50 338.20 252.50 338.80 C 251.50 339.40 250.50 340.00 249.40 340.60 C 248.30 341.20 247.20 341.70 245.90 342.20 C 246.30 340.90 247.10 339.70 247.90 338.70 C 248.80 337.70 249.80 336.90 251.00 336.20 C 252.10 335.50 253.40 335.00 254.70 334.70 C 255.90 334.40 257.20 334.30 258.60 334.60 Z" fill="#eef0f3" fill-rule="nonzero" group-id="12,60" node-id="1139" stroke="none" target-height="7.9000244" target-width="12.700012" target-x="245.9" target-y="334.3"/></g><g node-id="1462"><path d="M 286.30 346.30 C 285.20 345.50 284.40 344.70 283.60 344.00 C 282.80 343.20 282.00 342.40 281.30 341.70 C 280.50 340.90 279.80 340.10 279.00 339.30 C 278.30 338.40 277.50 337.60 276.80 336.50 C 278.10 336.50 279.30 336.90 280.50 337.40 C 281.60 338.00 282.60 338.70 283.50 339.60 C 284.40 340.50 285.10 341.50 285.60 342.70 C 286.00 343.70 286.30 344.90 286.30 346.30 Z" fill="#eef0f3" fill-rule="nonzero" group-id="12,61" node-id="1144" stroke="none" target-height="9.799988" target-width="9.5" target-x="276.8" target-y="336.5"/></g><g node-id="1463"><path d="M 273.00 381.60 C 273.40 380.70 273.90 380.00 274.50 379.40 C 275.00 378.80 275.60 378.30 276.20 377.80 C 276.80 377.30 277.50 377.00 278.20 376.60 C 278.90 376.30 279.70 376.00 280.70 375.80 C 280.60 376.80 280.20 377.60 279.70 378.30 C 279.20 379.00 278.60 379.60 278.00 380.10 C 277.30 380.60 276.60 381.00 275.70 381.20 C 274.90 381.70 274.00 381.80 273.00 381.60 Z" fill="#eef0f3" fill-rule="nonzero" group-id="12,62" node-id="1149" stroke="none" target-height="6" target-width="7.700012" target-x="273" target-y="375.8"/></g><g node-id="1464"><path d="M 246.90 380.00 C 247.90 379.90 248.60 380.10 249.40 380.20 C 250.10 380.40 250.80 380.60 251.40 380.90 C 252.00 381.20 252.60 381.60 253.20 382.00 C 253.80 382.50 254.40 383.00 254.90 383.80 C 254.00 384.20 253.20 384.30 252.40 384.30 C 251.60 384.20 250.80 384.00 250.10 383.70 C 249.40 383.40 248.70 382.90 248.20 382.30 C 247.60 381.60 247.10 380.90 246.90 380.00 Z" fill="#eef0f3" fill-rule="nonzero" group-id="12,63" node-id="1154" stroke="none" target-height="4.399994" target-width="8" target-x="246.9" target-y="379.9"/></g><path d="M 237.90 360.80 C 238.50 361.90 238.90 363.00 239.20 364.00 C 239.50 365.00 239.80 366.00 240.10 367.10 C 240.40 368.10 240.60 369.10 240.80 370.20 C 241.00 371.30 241.20 372.40 241.20 373.60 C 240.10 373.00 239.30 372.10 238.60 371.10 C 238.00 370.10 237.50 369.00 237.20 367.80 C 236.90 366.70 236.80 365.50 236.90 364.30 C 237.00 363.00 237.20 361.90 237.90 360.80 Z" fill="#eef0f3" fill-rule="nonzero" group-id="12,64" node-id="1159" stroke="none" target-height="12.800018" target-width="4.399994" target-x="236.8" target-y="360.8"/></g><g node-id="1414"><g node-id="1466"><path d="M 274.50 292.50 C 271.40 292.60 268.30 292.70 265.30 292.80 C 262.30 293.00 259.30 293.20 256.30 293.60 C 253.30 294.00 250.40 294.50 247.40 295.00 C 244.40 295.60 241.50 296.30 238.40 296.90 C 241.00 295.10 243.80 293.70 246.80 292.70 C 249.80 291.60 252.80 290.90 256.00 290.50 C 259.10 290.10 262.30 290.00 265.40 290.30 C 268.40 290.80 271.50 291.40 274.50 292.50 Z" fill="#eef0f3" fill-rule="nonzero" group-id="13,65" node-id="1167" stroke="none" target-height="6.899994" target-width="36.100006" target-x="238.4" target-y="290"/></g><g node-id="1467"><path d="M 328.40 350.50 C 327.50 347.50 326.70 344.50 325.80 341.60 C 324.90 338.70 323.90 335.80 322.70 333.00 C 321.60 330.20 320.30 327.40 319.00 324.60 C 317.70 321.80 316.20 319.10 314.80 316.30 C 317.20 318.40 319.30 320.80 321.00 323.40 C 322.80 326.00 324.30 328.90 325.40 331.80 C 326.60 334.80 327.50 337.80 328.00 341.00 C 328.60 344.10 328.80 347.30 328.40 350.50 Z" fill="#eef0f3" fill-rule="nonzero" group-id="13,66" node-id="1172" stroke="none" target-height="34.200012" target-width="14" target-x="314.8" target-y="316.3"/></g><g node-id="1468"><path d="M 267.30 420.80 C 269.20 420.10 271.10 419.60 272.90 419.10 C 274.80 418.60 276.60 418.20 278.50 417.70 C 280.30 417.30 282.20 416.80 284.10 416.40 C 286.00 416.00 287.90 415.60 289.90 415.40 C 288.40 416.70 286.60 417.80 284.80 418.60 C 283.00 419.40 281.10 420.10 279.20 420.50 C 277.30 421.00 275.30 421.20 273.30 421.30 C 271.30 421.50 269.30 421.30 267.30 420.80 Z" fill="#eef0f3" fill-rule="nonzero" group-id="13,67" node-id="1177" stroke="none" target-height="6.100006" target-width="22.600006" target-x="267.3" target-y="415.4"/></g><g node-id="1469"><path d="M 208.30 388.70 C 209.80 390.10 211.10 391.50 212.40 393.00 C 213.70 394.40 214.90 395.90 216.20 397.30 C 217.40 398.80 218.70 400.20 219.90 401.70 C 221.10 403.20 222.30 404.70 223.50 406.40 C 221.60 405.70 219.90 404.60 218.30 403.30 C 216.70 402.10 215.30 400.70 214.00 399.10 C 212.70 397.60 211.50 395.90 210.60 394.20 C 209.50 392.50 208.70 390.70 208.30 388.70 Z" fill="#eef0f3" fill-rule="nonzero" group-id="13,68" node-id="1182" stroke="none" target-height="17.699982" target-width="15.199997" target-x="208.3" target-y="388.7"/></g><path d="M 204.00 332.80 C 203.50 335.70 203.00 338.50 202.50 341.40 C 202.00 344.20 201.70 347.00 201.40 349.80 C 201.10 352.60 200.90 355.40 200.80 358.30 C 200.60 361.20 200.60 364.00 200.50 367.00 C 199.40 364.20 198.80 361.30 198.50 358.40 C 198.20 355.50 198.20 352.50 198.50 349.50 C 198.80 346.60 199.40 343.60 200.30 340.80 C 201.20 338.00 202.30 335.30 204.00 332.80 Z" fill="#eef0f3" fill-rule="nonzero" group-id="13,69" node-id="1187" stroke="none" target-height="34.200012" target-width="5.800003" target-x="198.2" target-y="332.8"/></g><g node-id="1415"><g node-id="1471"><path d="M 282.60 386.90 C 284.50 384.90 286.30 382.90 287.90 380.80 C 289.50 378.70 290.90 376.50 292.10 374.20 C 293.30 371.90 294.40 369.50 295.20 367.00 C 295.60 365.80 296.00 364.50 296.40 363.20 C 296.80 361.90 297.00 360.60 297.40 359.20 C 297.70 360.60 297.90 362.00 297.90 363.40 C 297.90 364.80 297.80 366.20 297.60 367.60 C 297.10 370.40 296.20 373.10 294.90 375.60 C 293.60 378.10 291.80 380.40 289.80 382.30 C 287.60 384.30 285.20 385.90 282.60 386.90 Z" fill="#eef0f3" fill-rule="nonzero" group-id="14,70" node-id="1195" stroke="none" target-height="27.699982" target-width="15.299988" target-x="282.6" target-y="359.2"/></g><g node-id="1472"><path d="M 247.60 388.30 C 249.10 388.50 250.50 388.80 251.90 389.10 C 253.30 389.40 254.60 389.70 255.90 390.10 C 257.20 390.40 258.50 390.80 259.90 391.20 C 261.20 391.60 262.60 392.00 264.00 392.60 C 262.60 393.20 261.10 393.50 259.60 393.50 C 258.10 393.50 256.60 393.30 255.20 393.00 C 253.80 392.60 252.40 392.00 251.10 391.30 C 249.70 390.50 248.50 389.50 247.60 388.30 Z" fill="#eef0f3" fill-rule="nonzero" group-id="14,71" node-id="1200" stroke="none" target-height="5.200012" target-width="16.399994" target-x="247.6" target-y="388.3"/></g><g node-id="1473"><path d="M 230.70 359.30 C 231.30 360.10 231.70 360.90 232.00 361.70 C 232.30 362.50 232.50 363.20 232.60 364.00 C 232.70 364.80 232.80 365.60 232.70 366.40 C 232.60 367.20 232.50 368.10 232.20 369.00 C 231.40 368.40 230.80 367.70 230.40 366.90 C 230.00 366.10 229.70 365.30 229.60 364.40 C 229.50 363.60 229.50 362.70 229.60 361.80 C 229.80 360.90 230.10 360.10 230.70 359.30 Z" fill="#eef0f3" fill-rule="nonzero" group-id="14,72" node-id="1205" stroke="none" target-height="9.700012" target-width="3.300003" target-x="229.5" target-y="359.3"/></g><path d="M 285.00 333.40 C 281.50 331.40 278.00 329.80 274.30 328.80 C 272.50 328.30 270.60 327.90 268.70 327.70 C 266.80 327.50 264.90 327.40 263.00 327.40 C 259.20 327.50 255.50 328.20 251.90 329.40 C 248.30 330.60 244.80 332.40 241.50 334.60 C 244.00 331.50 247.30 329.00 251.00 327.20 C 254.70 325.50 258.80 324.50 262.90 324.40 C 265.00 324.40 267.00 324.50 269.10 324.80 C 271.10 325.20 273.10 325.70 275.00 326.50 C 278.90 328.10 282.40 330.40 285.00 333.40 Z" fill="#eef0f3" fill-rule="nonzero" group-id="14,73" node-id="1210" stroke="none" target-height="10.200012" target-width="43.5" target-x="241.5" target-y="324.4"/></g><g node-id="1416"><g node-id="1475"><path d="M 350.10 390.80 C 352.60 383.80 354.50 376.60 355.60 369.30 C 356.10 365.70 356.60 362.00 356.70 358.30 C 356.90 354.60 356.90 351.00 356.60 347.30 C 356.20 340.00 354.80 332.70 352.80 325.70 C 351.70 322.20 350.50 318.70 349.10 315.30 C 347.70 311.90 345.90 308.60 344.30 305.20 C 346.40 308.20 348.70 311.30 350.40 314.60 C 352.20 317.90 353.70 321.40 355.00 324.90 C 356.30 328.40 357.30 332.10 358.10 335.80 C 358.90 339.50 359.30 343.30 359.60 347.00 C 359.80 350.80 359.80 354.60 359.50 358.30 C 359.20 362.10 358.70 365.80 357.90 369.50 C 356.30 377.10 353.70 384.30 350.10 390.80 Z" fill="#eef0f3" fill-rule="nonzero" group-id="15,74" node-id="1218" stroke="none" target-height="85.599976" target-width="15.5" target-x="344.3" target-y="305.2"/></g><g node-id="1476"><path d="M 269.50 447.20 C 273.40 446.30 277.30 445.40 281.20 444.40 C 283.10 443.90 285.00 443.40 286.90 442.80 C 288.80 442.20 290.70 441.70 292.50 441.00 C 296.20 439.70 299.90 438.30 303.60 436.80 C 307.30 435.30 310.90 433.60 314.60 432.00 C 311.60 434.70 308.20 437.00 304.60 438.90 C 301.00 440.90 297.30 442.50 293.50 443.80 C 291.60 444.40 289.60 445.00 287.60 445.50 C 285.60 446.00 283.60 446.40 281.60 446.70 C 277.60 447.30 273.50 447.50 269.50 447.20 Z" fill="#eef0f3" fill-rule="nonzero" group-id="15,75" node-id="1223" stroke="none" target-height="15.5" target-width="45.100006" target-x="269.5" target-y="432"/></g><g node-id="1477"><path d="M 187.00 407.00 C 188.70 408.50 190.20 410.10 191.80 411.70 C 193.30 413.30 194.80 414.90 196.20 416.60 C 197.60 418.20 199.10 419.90 200.50 421.60 C 201.90 423.30 203.30 425.00 204.60 426.90 C 202.50 426.00 200.60 424.70 198.80 423.30 C 197.00 421.90 195.40 420.30 193.90 418.60 C 192.40 416.90 191.00 415.10 189.90 413.20 C 188.70 411.20 187.70 409.20 187.00 407.00 Z" fill="#eef0f3" fill-rule="nonzero" group-id="15,76" node-id="1228" stroke="none" target-height="19.899994" target-width="17.600006" target-x="187" target-y="407"/></g><path d="M 277.20 265.30 C 266.20 264.90 255.20 266.20 244.70 269.20 C 234.20 272.20 224.30 276.90 215.30 283.10 C 210.80 286.10 206.60 289.60 202.60 293.30 C 198.60 297.00 195.00 301.10 191.70 305.50 C 185.10 314.20 180.00 324.00 176.40 334.40 C 178.80 323.60 183.50 313.30 189.80 304.10 C 193.00 299.50 196.60 295.20 200.60 291.30 C 204.60 287.40 208.90 283.80 213.50 280.60 C 218.10 277.50 223.00 274.70 228.10 272.40 C 233.20 270.10 238.50 268.30 243.90 267.00 C 254.90 264.30 266.20 263.70 277.20 265.30 Z" fill="#eef0f3" fill-rule="nonzero" group-id="15,77" node-id="1233" stroke="none" target-height="70.69998" target-width="100.80002" target-x="176.4" target-y="263.7"/></g><g node-id="1417"><g node-id="1479"><path d="M 191.50 229.20 C 198.80 224.00 206.70 219.60 214.90 215.90 C 223.10 212.20 231.80 209.60 240.60 207.70 C 249.40 205.80 258.50 204.90 267.50 204.80 C 276.50 204.80 285.60 205.70 294.50 207.50 L 297.80 208.20 C 298.90 208.40 300.00 208.70 301.10 209.00 L 307.60 210.80 L 314.00 213.00 C 315.10 213.30 316.10 213.80 317.20 214.20 C 318.30 214.60 319.30 215.00 320.30 215.50 C 328.60 219.10 336.60 223.30 344.10 228.50 C 351.50 233.60 358.50 239.50 364.70 246.00 C 370.90 252.60 376.50 259.60 381.20 267.30 C 375.90 260.10 370.10 253.20 363.70 247.10 C 357.30 240.90 350.30 235.40 342.90 230.50 C 328.00 220.90 311.30 213.90 293.90 210.60 C 285.20 208.80 276.40 207.90 267.50 207.80 C 258.60 207.70 249.80 208.60 241.00 210.10 C 223.60 213.20 206.80 219.90 191.50 229.20 Z" fill="url(#SVGID_19_)" fill-rule="nonzero" group-id="16,78" node-id="1241" stroke="none" target-height="62.499985" target-width="189.70001" target-x="191.5" target-y="204.8"/></g><g node-id="1480"><path d="M 217.50 470.50 C 202.40 465.20 188.20 457.10 176.00 446.60 C 169.90 441.40 164.30 435.50 159.20 429.30 C 154.10 423.00 149.60 416.30 145.80 409.20 C 138.10 395.00 133.00 379.40 130.90 363.40 C 129.80 355.40 129.50 347.30 129.90 339.30 C 130.10 335.30 130.50 331.30 131.10 327.30 C 131.60 323.30 132.50 319.40 133.40 315.50 C 130.80 331.30 130.70 347.30 133.20 363.00 C 134.50 370.80 136.30 378.50 138.90 386.00 C 141.40 393.50 144.60 400.70 148.40 407.70 C 155.90 421.60 165.90 434.20 177.60 444.80 C 183.50 450.10 189.80 455.00 196.50 459.20 C 203.10 463.60 210.20 467.30 217.50 470.50 Z" fill="url(#SVGID_20_)" fill-rule="nonzero" group-id="16,79" node-id="1246" stroke="none" target-height="155" target-width="88" target-x="129.5" target-y="315.5"/></g><path d="M 393.40 289.80 C 396.80 296.90 399.40 304.50 401.40 312.10 C 403.30 319.80 404.60 327.70 405.10 335.60 C 405.70 343.50 405.40 351.50 404.50 359.40 C 403.60 367.30 402.00 375.10 399.70 382.80 C 397.40 390.40 394.40 397.90 390.90 405.00 C 387.30 412.10 383.10 418.90 378.20 425.20 C 373.40 431.50 368.00 437.40 362.10 442.70 C 356.20 448.00 349.90 452.80 343.10 456.90 C 355.90 447.70 367.10 436.50 376.30 423.80 C 380.80 417.40 384.90 410.70 388.30 403.70 C 391.70 396.70 394.60 389.40 396.80 381.90 C 401.30 367.00 403.30 351.30 402.70 335.70 C 402.10 320.10 399.00 304.60 393.40 289.80 Z" fill="url(#SVGID_21_)" fill-rule="nonzero" group-id="16,80" node-id="1251" stroke="none" target-height="167.1" target-width="62.600006" target-x="343.1" target-y="289.8"/></g><g node-id="1418"><g node-id="1482"><path d="M 147.80 311.30 C 149.80 303.50 152.80 296.00 156.30 288.80 C 159.90 281.60 164.30 274.80 169.30 268.40 C 174.30 262.10 180.00 256.20 186.20 251.00 C 192.40 245.80 199.20 241.30 206.30 237.40 L 209.00 236.00 C 209.90 235.50 210.80 235.10 211.70 234.70 L 217.20 232.20 L 222.90 230.00 C 223.80 229.60 224.80 229.30 225.80 229.00 C 226.80 228.70 227.70 228.40 228.70 228.10 C 236.50 225.80 244.40 224.20 252.50 223.50 C 260.60 222.80 268.70 222.90 276.70 223.80 C 284.70 224.80 292.60 226.50 300.20 229.10 C 284.70 225.10 268.50 223.90 252.80 225.70 C 237.10 227.60 221.60 232.30 207.80 239.90 C 200.80 243.60 194.20 248.10 188.10 253.00 C 181.90 258.00 176.30 263.60 171.20 269.70 C 160.90 282.00 153.10 296.20 147.80 311.30 Z" fill="url(#SVGID_22_)" fill-rule="nonzero" group-id="17,81" node-id="1259" stroke="none" target-height="88.499985" target-width="152.40001" target-x="147.8" target-y="222.8"/></g><g node-id="1483"><path d="M 303.50 462.70 C 290.10 467.70 275.70 470.30 261.30 470.00 C 254.10 469.90 246.90 469.10 239.80 467.70 C 232.70 466.30 225.80 464.20 219.00 461.50 C 205.60 456.10 193.10 448.30 182.60 438.50 C 177.30 433.60 172.50 428.20 168.20 422.40 C 166.10 419.50 164.10 416.50 162.20 413.40 C 160.30 410.40 158.70 407.20 157.10 404.00 C 164.40 416.30 173.50 427.40 184.20 436.70 C 189.60 441.30 195.20 445.60 201.30 449.20 C 207.30 452.90 213.60 456.10 220.20 458.70 C 233.30 464.00 247.30 467.00 261.40 467.60 C 268.50 467.90 275.60 467.70 282.60 466.80 C 289.60 466.10 296.60 464.60 303.50 462.70 Z" fill="url(#SVGID_23_)" fill-rule="nonzero" group-id="17,82" node-id="1264" stroke="none" target-height="66.29999" target-width="146.4" target-x="157.1" target-y="404"/></g><path d="M 321.50 237.80 C 327.90 240.80 334.00 244.50 339.80 248.60 C 345.50 252.80 350.90 257.50 355.80 262.60 C 360.70 267.70 365.10 273.40 369.10 279.30 C 373.00 285.30 376.40 291.60 379.20 298.20 C 382.00 304.80 384.20 311.60 385.80 318.60 C 387.30 325.60 388.30 332.70 388.60 339.80 C 388.90 346.90 388.50 354.10 387.50 361.10 C 386.40 368.10 384.80 375.00 382.50 381.70 C 386.00 368.00 387.30 353.90 386.30 339.90 C 385.80 332.90 384.70 326.00 383.10 319.20 C 381.50 312.40 379.30 305.80 376.50 299.40 C 371.10 286.60 363.50 274.60 354.20 264.20 C 344.80 253.80 333.80 244.80 321.50 237.80 Z" fill="url(#SVGID_24_)" fill-rule="nonzero" group-id="17,83" node-id="1269" stroke="none" target-height="143.90001" target-width="67.399994" target-x="321.5" target-y="237.8"/></g><g node-id="1419"><g node-id="1485"><path d="M 56.30 432.70 C 50.60 419.50 46.30 405.70 43.20 391.70 C 40.10 377.60 38.80 363.20 38.70 348.80 L 38.70 343.40 C 38.70 341.60 38.90 339.80 38.90 338.00 L 39.20 332.60 L 39.40 329.90 L 39.70 327.20 C 40.10 323.60 40.50 320.00 41.00 316.40 L 42.80 305.70 C 45.70 291.50 49.90 277.70 55.40 264.30 L 57.50 259.30 C 58.20 257.60 58.90 256.00 59.80 254.40 L 64.70 244.70 L 70.10 235.30 C 71.00 233.70 72.00 232.20 72.90 230.70 C 73.90 229.20 74.80 227.60 75.80 226.20 L 78.90 221.80 L 80.50 219.60 L 82.10 217.40 L 85.40 213.10 L 88.80 208.90 C 91.00 206.10 93.50 203.40 95.90 200.70 C 97.10 199.40 98.40 198.10 99.60 196.80 C 100.90 195.50 102.10 194.20 103.40 192.90 C 113.70 182.80 125.00 173.70 137.10 165.90 C 149.20 158.20 162.10 151.50 175.50 146.30 C 149.20 157.90 125.10 174.20 105.10 194.60 C 85.10 215.00 68.90 239.10 58.10 265.50 C 52.60 278.70 48.40 292.30 45.50 306.30 C 42.50 320.30 41.20 334.50 41.00 348.80 C 40.80 363.10 41.90 377.40 44.70 391.50 C 47.30 405.40 51.30 419.20 56.30 432.70 Z" fill="#eef0f3" fill-rule="nonzero" group-id="18,84" node-id="1277" stroke="none" target-height="286.40002" target-width="136.8" target-x="38.7" target-y="146.3"/></g><g node-id="1486"><path d="M 444.00 467.30 C 437.40 478.30 429.60 488.60 421.10 498.20 L 419.50 500.00 L 417.80 501.70 L 414.50 505.20 C 412.30 507.50 409.90 509.70 407.60 511.90 C 405.20 514.00 402.90 516.20 400.40 518.30 L 396.70 521.40 C 396.10 521.90 395.50 522.40 394.80 522.90 L 392.90 524.40 C 372.60 540.20 349.30 552.30 324.70 560.00 C 300.10 567.70 274.10 570.90 248.40 569.30 C 246.80 569.20 245.20 569.10 243.60 568.90 L 238.80 568.50 L 234.00 567.90 L 231.60 567.60 L 229.20 567.20 L 224.40 566.50 C 222.80 566.20 221.20 565.90 219.70 565.60 C 216.50 565.00 213.40 564.30 210.30 563.60 C 208.70 563.20 207.20 562.80 205.60 562.40 C 204.10 562.00 202.50 561.60 201.00 561.10 C 197.90 560.10 194.90 559.30 191.80 558.20 C 185.70 556.20 179.80 553.70 173.90 551.20 C 185.80 555.80 198.10 559.60 210.60 562.20 C 223.10 564.80 235.80 566.60 248.50 567.00 C 261.20 567.40 274.00 567.00 286.60 565.30 C 299.20 563.70 311.70 560.90 323.80 557.10 C 348.10 549.60 371.00 537.80 391.50 522.60 L 393.40 521.20 C 394.00 520.70 394.60 520.20 395.30 519.70 L 399.00 516.70 C 401.50 514.70 403.80 512.60 406.30 510.50 C 408.60 508.30 411.00 506.20 413.30 504.00 L 416.70 500.60 L 418.40 498.90 L 420.00 497.10 C 428.80 487.90 436.80 477.80 444.00 467.30 Z" fill="#eef0f3" fill-rule="nonzero" group-id="18,85" node-id="1282" stroke="none" target-height="103.60004" target-width="270.1" target-x="173.9" target-y="467.3"/></g><path d="M 214.90 134.10 C 227.20 131.20 239.80 129.60 252.50 129.00 C 265.20 128.50 277.90 129.10 290.50 130.80 C 315.70 134.20 340.30 142.20 362.80 154.10 C 374.00 160.10 384.80 167.00 394.80 174.80 C 404.80 182.70 414.20 191.30 422.60 200.80 C 431.10 210.30 438.70 220.50 445.30 231.30 C 451.90 242.20 457.60 253.50 462.10 265.30 C 457.00 253.70 451.00 242.60 444.10 232.00 C 437.20 221.40 429.50 211.50 420.90 202.30 C 403.80 183.90 383.60 168.30 361.40 156.60 C 339.20 144.80 315.00 136.80 290.20 133.00 C 277.80 131.10 265.20 130.20 252.60 130.40 C 239.90 130.60 227.30 131.90 214.90 134.10 Z" fill="#eef0f3" fill-rule="nonzero" group-id="18,86" node-id="1287" stroke="none" target-height="136.79999" target-width="247.20001" target-x="214.9" target-y="128.5"/></g><g node-id="1420"><g node-id="1488"><path d="M 79.00 184.90 C 89.20 173.10 100.70 162.20 113.00 152.50 C 125.30 142.80 138.80 134.60 152.90 127.60 L 158.20 125.00 C 160.00 124.20 161.80 123.40 163.60 122.70 L 169.00 120.40 L 171.70 119.30 L 174.50 118.30 C 178.20 117.00 181.90 115.60 185.60 114.40 L 196.90 111.10 C 212.10 107.20 227.70 104.70 243.50 103.70 C 274.90 101.70 306.70 106.30 336.40 116.70 C 351.20 122.00 365.50 128.70 379.00 136.80 C 392.40 145.00 405.00 154.40 416.60 165.00 C 392.80 144.70 365.30 128.90 335.70 118.90 C 320.90 114.00 305.70 110.40 290.30 108.30 C 288.40 108.00 286.40 107.90 284.50 107.60 C 282.60 107.40 280.60 107.10 278.70 107.00 L 267.10 106.30 L 255.40 106.20 C 253.50 106.10 251.50 106.30 249.60 106.40 L 243.80 106.70 C 228.30 107.60 212.80 110.00 197.80 113.80 C 182.70 117.60 168.10 123.20 154.00 129.70 C 139.90 136.40 126.40 144.30 114.00 153.70 C 101.30 163.00 89.70 173.50 79.00 184.90 Z" fill="#eef0f3" fill-rule="nonzero" group-id="19,87" node-id="1295" stroke="none" target-height="83.2" target-width="337.6" target-x="79" target-y="101.7"/></g><g node-id="1489"><path d="M 230.20 581.20 C 216.30 579.90 202.50 577.20 189.00 573.50 L 186.50 572.80 L 184.00 572.00 L 179.00 570.40 C 175.70 569.30 172.40 568.00 169.10 566.90 C 165.90 565.60 162.60 564.30 159.40 562.90 L 154.60 560.70 C 153.80 560.30 153.00 560.00 152.20 559.60 L 149.80 558.40 C 137.20 552.20 125.20 544.80 113.90 536.50 C 102.60 528.20 92.10 518.80 82.40 508.60 C 63.20 488.10 47.60 464.20 36.80 438.30 C 36.10 436.70 35.50 435.10 34.80 433.40 L 32.90 428.50 L 31.20 423.50 L 30.30 421.00 L 29.50 418.50 L 28.00 413.50 C 27.50 411.80 27.10 410.10 26.60 408.40 C 25.60 405.00 24.90 401.60 24.10 398.20 C 23.70 396.50 23.40 394.80 23.10 393.10 C 22.80 391.40 22.40 389.70 22.10 387.90 C 21.60 384.40 21.00 381.00 20.60 377.50 C 19.60 370.60 19.20 363.60 18.90 356.60 C 21.10 384.40 27.70 411.80 38.90 437.30 C 44.50 450.00 51.00 462.30 58.80 473.80 C 66.40 485.40 75.00 496.30 84.60 506.40 C 103.60 526.60 126.10 543.50 150.80 556.20 L 153.10 557.40 C 153.90 557.80 154.70 558.20 155.40 558.50 L 160.10 560.70 C 163.20 562.20 166.50 563.50 169.70 564.90 C 172.90 566.10 176.20 567.40 179.40 568.60 L 184.30 570.30 L 186.80 571.10 L 189.30 571.90 C 202.70 576.30 216.30 579.20 230.20 581.20 Z" fill="#eef0f3" fill-rule="nonzero" group-id="19,88" node-id="1300" stroke="none" target-height="224.6" target-width="211.3" target-x="18.9" target-y="356.6"/></g><path d="M 447.20 197.70 C 455.90 208.40 463.50 220.00 470.10 232.10 C 476.60 244.30 482.10 257.00 486.50 270.20 C 495.20 296.50 499.10 324.40 498.20 352.10 C 497.70 366.00 496.00 379.80 493.20 393.30 C 490.30 406.80 486.30 420.20 481.00 433.00 C 475.70 445.80 469.40 458.20 462.00 469.80 C 454.50 481.40 446.10 492.40 436.70 502.50 C 445.60 492.00 453.70 480.80 460.70 469.00 C 467.80 457.20 473.90 444.90 478.80 432.10 C 488.70 406.50 494.30 379.30 495.20 352.00 C 496.20 324.60 492.40 297.10 484.30 270.90 C 480.30 257.80 475.10 245.00 468.80 232.80 C 462.60 220.50 455.30 208.80 447.20 197.70 Z" fill="#eef0f3" fill-rule="nonzero" group-id="19,89" node-id="1305" stroke="none" target-height="304.8" target-width="62.399994" target-x="436.7" target-y="197.7"/></g><g node-id="1421"><g node-id="1491"><path d="M 241.70 115.80 C 256.60 114.30 271.80 114.20 286.80 115.60 C 301.80 116.90 316.70 120.10 331.10 124.50 L 336.50 126.10 C 338.30 126.70 340.00 127.40 341.80 128.00 L 347.10 130.00 L 349.70 131.00 L 352.30 132.10 C 355.70 133.70 359.20 135.10 362.60 136.70 L 372.70 141.90 C 385.90 149.20 398.50 157.70 410.10 167.40 C 433.30 186.70 452.60 210.90 466.40 237.70 C 473.20 251.20 478.90 265.20 482.90 279.80 C 486.80 294.30 489.50 309.20 490.50 324.20 C 487.20 294.30 478.40 265.20 464.30 238.80 C 457.20 225.60 449.00 213.10 439.60 201.50 C 438.40 200.00 437.20 198.60 436.00 197.20 C 434.80 195.80 433.60 194.30 432.30 193.00 L 424.70 184.80 L 416.60 177.10 C 415.30 175.80 413.80 174.60 412.40 173.40 L 408.10 169.80 C 396.70 160.20 384.30 151.70 371.30 144.40 C 358.30 137.10 344.40 131.40 330.20 126.70 C 316.00 122.10 301.30 118.70 286.50 117.10 C 271.70 115.20 256.70 114.90 241.70 115.80 Z" fill="#eef0f3" fill-rule="nonzero" group-id="20,90" node-id="1313" stroke="none" target-height="210.00002" target-width="248.8" target-x="241.7" target-y="114.2"/></g><g node-id="1492"><path d="M 86.20 492.00 C 77.30 481.90 69.50 471.00 62.50 459.50 L 61.20 457.30 L 60.00 455.10 L 57.60 450.70 C 56.00 447.70 54.50 444.70 53.00 441.70 C 51.60 438.60 50.20 435.60 48.90 432.50 L 47.00 427.80 C 46.70 427.00 46.40 426.20 46.00 425.50 L 45.10 423.10 C 40.40 410.50 36.80 397.40 34.40 384.20 C 32.00 370.90 30.80 357.50 30.80 344.00 C 30.80 317.00 35.70 290.10 45.30 264.90 C 45.90 263.30 46.50 261.80 47.20 260.20 L 49.10 255.50 L 51.20 250.90 L 52.20 248.60 L 53.30 246.30 L 55.50 241.80 C 56.30 240.30 57.10 238.80 57.90 237.30 C 59.40 234.30 61.20 231.40 62.90 228.50 C 63.70 227.00 64.70 225.70 65.60 224.20 C 66.50 222.80 67.40 221.30 68.30 220.00 C 70.20 217.20 72.10 214.40 74.10 211.80 C 78.00 206.30 82.30 201.20 86.70 196.10 C 78.40 206.60 70.70 217.60 64.20 229.30 C 62.60 232.20 60.90 235.10 59.50 238.10 C 58.70 239.60 58.00 241.10 57.20 242.60 L 55.10 247.10 L 54.00 249.40 L 53.00 251.70 L 51.00 256.30 L 49.20 261.00 C 48.60 262.60 48.00 264.10 47.50 265.70 C 43.10 278.30 39.50 291.10 37.30 304.30 C 35.00 317.40 33.80 330.70 33.80 344.00 C 33.70 370.60 38.40 397.20 47.20 422.40 L 48.00 424.80 C 48.30 425.60 48.60 426.40 48.90 427.10 L 50.70 431.80 C 51.90 434.90 53.30 437.90 54.60 441.00 C 56.10 444.00 57.40 447.00 59.00 450.00 L 61.30 454.40 L 62.50 456.60 L 63.70 458.80 C 70.30 470.50 77.90 481.60 86.20 492.00 Z" fill="#eef0f3" fill-rule="nonzero" group-id="20,91" node-id="1318" stroke="none" target-height="295.9" target-width="55.899998" target-x="30.8" target-y="196.1"/></g><path d="M 490.30 367.20 C 489.30 380.40 487.00 393.50 483.60 406.30 C 480.20 419.10 475.60 431.60 470.00 443.70 C 458.80 467.80 443.10 489.80 424.20 508.60 C 414.70 518.00 404.50 526.50 393.50 534.10 C 382.50 541.60 371.00 548.30 358.80 553.70 C 346.70 559.20 334.10 563.60 321.30 566.90 C 308.40 570.10 295.30 572.20 282.10 573.10 C 295.20 571.60 308.30 569.20 320.90 565.50 C 333.60 562.00 346.00 557.30 357.90 551.60 C 381.60 540.30 403.50 525.00 422.10 506.40 C 440.80 487.90 456.30 466.30 467.90 442.70 C 473.70 430.90 478.50 418.60 482.20 405.90 C 486.10 393.30 488.70 380.40 490.30 367.20 Z" fill="#eef0f3" fill-rule="nonzero" group-id="20,92" node-id="1323" stroke="none" target-height="205.89996" target-width="208.19998" target-x="282.1" target-y="367.2"/></g><g node-id="1422"><g node-id="1494"><path d="M 81.10 377.30 C 79.10 365.10 78.40 352.60 78.70 340.20 C 79.10 327.80 81.00 315.40 83.90 303.30 L 85.00 298.80 C 85.40 297.30 85.90 295.80 86.30 294.30 L 87.70 289.80 L 88.40 287.60 L 89.20 285.40 C 90.30 282.50 91.40 279.60 92.50 276.70 L 96.30 268.20 C 101.70 257.00 108.20 246.30 115.60 236.20 L 118.40 232.50 C 119.30 231.30 120.30 230.00 121.30 228.90 L 127.40 221.80 L 133.90 215.10 C 135.00 214.00 136.10 212.90 137.30 211.80 C 138.40 210.70 139.60 209.70 140.70 208.60 L 144.20 205.50 L 146.00 204.00 L 147.80 202.50 L 151.50 199.60 L 155.30 196.80 C 157.80 194.90 160.40 193.20 163.00 191.50 C 164.30 190.60 165.60 189.90 167.00 189.00 C 168.30 188.20 169.60 187.30 171.00 186.60 C 181.80 180.40 193.10 175.10 204.90 171.20 C 216.70 167.30 228.80 164.50 241.10 163.00 C 216.70 167.20 193.10 175.80 172.10 188.60 C 151.10 201.50 132.50 218.10 117.90 237.90 C 110.50 247.70 104.10 258.30 98.70 269.30 C 93.30 280.30 89.10 292.00 85.90 303.80 C 82.70 315.70 80.60 327.90 79.90 340.20 C 79.30 352.60 79.70 365.00 81.10 377.30 Z" fill="url(#SVGID_25_)" fill-rule="nonzero" group-id="21,93" node-id="1331" stroke="none" target-height="214.29999" target-width="162.70001" target-x="78.4" target-y="163"/></g><g node-id="1495"><path d="M 397.70 488.20 C 389.90 496.00 381.20 503.00 372.10 509.30 C 371.00 510.10 369.80 510.90 368.60 511.60 L 365.10 513.80 C 362.70 515.30 360.30 516.60 357.90 518.00 C 355.40 519.30 353.00 520.60 350.50 521.80 C 348.00 523.00 345.50 524.30 343.00 525.30 C 322.70 534.30 300.70 539.40 278.50 540.70 C 256.30 541.90 233.80 539.10 212.70 532.30 C 211.40 531.90 210.10 531.40 208.80 531.00 L 204.90 529.60 L 201.00 528.10 C 199.70 527.60 198.40 527.10 197.10 526.50 L 193.30 524.90 C 192.00 524.30 190.80 523.70 189.50 523.10 C 187.00 522.00 184.50 520.70 182.10 519.40 C 180.90 518.80 179.70 518.00 178.50 517.40 C 177.30 516.70 176.10 516.10 174.90 515.30 C 172.50 513.80 170.20 512.40 167.90 510.90 C 163.20 507.90 158.80 504.60 154.50 501.20 C 163.50 507.50 173.00 513.30 182.90 518.10 C 192.80 522.90 203.00 527.00 213.50 530.10 C 224.00 533.10 234.80 535.50 245.70 536.70 C 256.60 538.00 267.60 538.40 278.50 537.80 C 300.40 536.70 322.00 531.70 342.30 523.30 C 344.90 522.30 347.30 521.10 349.80 520.00 C 352.30 518.90 354.70 517.60 357.20 516.40 C 359.60 515.10 362.00 513.80 364.40 512.40 C 366.70 511.00 369.20 509.60 371.40 508.10 C 380.60 502.30 389.40 495.50 397.70 488.20 Z" fill="url(#SVGID_26_)" fill-rule="nonzero" group-id="21,94" node-id="1336" stroke="none" target-height="53.700012" target-width="243.20001" target-x="154.5" target-y="488.2"/></g><path d="M 276.70 161.40 C 287.60 161.60 298.50 162.90 309.20 165.00 C 319.90 167.20 330.40 170.40 340.60 174.50 C 361.00 182.60 379.80 194.50 396.20 209.20 C 412.50 223.90 426.20 241.50 436.30 261.00 C 441.30 270.70 445.50 280.90 448.80 291.40 C 452.00 301.90 454.30 312.60 455.50 323.40 C 453.60 312.70 451.00 302.10 447.40 291.80 C 443.90 281.50 439.50 271.60 434.30 262.10 C 423.90 243.10 410.30 225.90 394.20 211.40 C 378.20 196.90 359.70 185.10 339.80 176.60 C 329.80 172.30 319.50 168.90 308.90 166.40 C 298.40 163.80 287.60 162.20 276.70 161.40 Z" fill="url(#SVGID_27_)" fill-rule="nonzero" group-id="21,95" node-id="1341" stroke="none" target-height="162" target-width="178.79999" target-x="276.7" target-y="161.4"/></g><g node-id="1423"><g node-id="1497"><path d="M 173.90 207.50 C 183.00 201.10 192.80 195.70 203.00 191.20 C 213.20 186.70 224.00 183.50 234.90 181.20 L 239.00 180.30 C 240.40 180.00 241.80 179.90 243.10 179.70 L 247.30 179.10 L 249.40 178.80 L 251.50 178.60 C 254.30 178.40 257.10 178.10 259.90 177.90 L 268.30 177.70 C 279.50 177.70 290.70 178.90 301.70 181.00 L 305.80 181.90 C 307.20 182.20 308.50 182.50 309.90 182.90 L 318.00 185.10 L 326.00 187.80 C 327.30 188.20 328.60 188.80 329.90 189.30 C 331.20 189.80 332.50 190.30 333.80 190.90 L 337.60 192.60 L 339.50 193.50 L 341.40 194.40 L 345.20 196.20 L 348.90 198.20 C 351.40 199.50 353.80 201.00 356.20 202.40 C 357.40 203.10 358.60 203.90 359.70 204.70 C 360.90 205.50 362.10 206.20 363.20 207.00 C 372.40 213.40 381.00 220.50 388.80 228.60 C 396.50 236.70 403.40 245.50 409.40 254.90 C 396.50 236.80 380.50 221.00 362.00 209.00 C 343.50 197.00 322.80 188.30 301.10 184.20 C 290.30 182.00 279.30 180.90 268.30 180.80 C 257.30 180.70 246.30 181.80 235.40 183.70 C 224.60 185.70 213.80 188.60 203.60 192.80 C 193.30 196.60 183.40 201.70 173.90 207.50 Z" fill="#eef0f3" fill-rule="nonzero" group-id="22,96" node-id="1349" stroke="none" target-height="77.2" target-width="235.5" target-x="173.9" target-y="177.7"/></g><g node-id="1498"><path d="M 206.20 507.00 C 187.60 500.30 170.00 490.20 154.90 477.10 C 147.30 470.60 140.40 463.40 134.10 455.60 C 127.80 447.80 122.30 439.50 117.50 430.70 C 108.00 413.10 101.60 393.80 99.00 374.00 C 97.60 364.10 97.30 354.10 97.70 344.20 C 98.00 339.20 98.40 334.30 99.10 329.40 C 99.70 324.50 100.70 319.60 101.80 314.80 C 98.40 334.30 98.20 354.30 101.30 373.80 C 102.90 383.50 105.10 393.10 108.40 402.40 C 111.50 411.70 115.50 420.70 120.20 429.40 C 129.60 446.70 141.90 462.30 156.50 475.50 C 163.80 482.10 171.70 488.10 180.00 493.30 C 188.30 498.50 197.20 503.00 206.20 507.00 Z" fill="#eef0f3" fill-rule="nonzero" group-id="22,97" node-id="1354" stroke="none" target-height="192.20001" target-width="108.899994" target-x="97.3" target-y="314.8"/></g><path d="M 424.50 282.70 C 428.60 291.60 431.80 300.90 434.20 310.40 C 436.60 319.90 438.10 329.70 438.70 339.50 C 439.40 349.30 439.00 359.20 438.00 369.00 C 436.90 378.80 434.90 388.50 432.10 398.00 C 429.30 407.50 425.60 416.70 421.20 425.50 C 416.70 434.30 411.50 442.70 405.60 450.60 C 399.70 458.50 393.00 465.80 385.80 472.40 C 378.50 479.00 370.70 485.00 362.40 490.20 C 378.40 478.90 392.40 465.00 403.80 449.20 C 409.50 441.30 414.50 433.00 418.80 424.30 C 423.10 415.60 426.70 406.50 429.40 397.20 C 435.00 378.60 437.40 359.10 436.60 339.70 C 435.60 320.30 431.60 301.00 424.50 282.70 Z" fill="#eef0f3" fill-rule="nonzero" group-id="22,98" node-id="1359" stroke="none" target-height="207.5" target-width="77" target-x="362.4" target-y="282.7"/></g><g node-id="1424"><g node-id="1500"><path d="M 378.80 236.00 C 386.20 243.20 392.90 251.20 398.80 259.70 C 404.70 268.20 409.60 277.50 413.60 287.10 L 415.10 290.70 C 415.60 291.90 416.00 293.20 416.40 294.40 L 417.70 298.10 L 418.30 299.90 L 418.80 301.80 C 419.50 304.30 420.20 306.80 420.90 309.30 L 422.60 316.90 C 424.50 327.20 425.40 337.60 425.40 348.00 L 425.30 351.90 C 425.30 353.20 425.30 354.50 425.10 355.80 L 424.50 363.60 L 423.40 371.40 C 423.20 372.70 423.00 374.00 422.70 375.30 C 422.50 376.60 422.20 377.90 422.00 379.10 C 421.40 381.60 420.90 384.20 420.20 386.70 L 419.20 390.50 L 418.00 394.20 C 417.30 396.70 416.30 399.10 415.50 401.60 C 415.10 402.80 414.50 404.00 414.10 405.20 C 413.60 406.40 413.20 407.60 412.60 408.80 C 408.40 418.30 403.30 427.50 397.30 435.90 C 391.20 444.30 384.40 452.20 376.80 459.20 C 383.90 451.70 390.40 443.70 396.10 435.00 C 397.50 432.80 398.90 430.70 400.20 428.50 C 401.40 426.30 402.80 424.10 403.90 421.80 L 405.70 418.40 L 407.40 414.90 C 408.50 412.60 409.50 410.20 410.50 407.90 C 418.20 388.90 422.50 368.50 422.50 348.00 C 422.60 337.80 421.70 327.50 419.90 317.40 C 418.10 307.30 415.20 297.40 411.50 287.90 C 404.00 268.80 392.70 251.20 378.80 236.00 Z" fill="#eef0f3" fill-rule="nonzero" group-id="23,99" node-id="1367" stroke="none" target-height="223.20001" target-width="48.600006" target-x="376.8" target-y="236"/></g><g node-id="1501"><path d="M 110.70 317.80 C 113.50 299.60 119.60 281.70 129.00 265.70 C 133.60 257.60 139.00 250.00 145.00 242.90 C 151.00 235.80 157.70 229.30 164.90 223.30 C 179.30 211.50 195.80 202.30 213.50 196.40 C 222.30 193.40 231.40 191.40 240.50 190.00 C 245.10 189.40 249.70 188.90 254.30 188.70 C 258.90 188.40 263.50 188.50 268.10 188.70 C 249.70 189.10 231.40 192.40 214.20 198.60 C 205.60 201.80 197.20 205.50 189.30 210.10 C 181.30 214.60 173.80 219.80 166.70 225.60 C 152.60 237.20 140.40 251.20 130.90 266.80 C 126.10 274.60 122.00 282.80 118.70 291.40 C 115.30 299.90 112.70 308.80 110.70 317.80 Z" fill="#eef0f3" fill-rule="nonzero" group-id="23,100" node-id="1372" stroke="none" target-height="129.4" target-width="157.40001" target-x="110.7" target-y="188.4"/></g><path d="M 353.70 478.10 C 346.30 483.40 338.30 488.00 330.10 491.90 C 321.80 495.70 313.10 498.90 304.30 501.10 C 295.40 503.40 286.30 504.90 277.20 505.60 C 268.00 506.30 258.80 506.10 249.70 505.20 C 240.60 504.20 231.50 502.50 222.70 500.00 C 213.90 497.40 205.30 494.20 197.10 490.10 C 188.90 486.00 181.00 481.20 173.70 475.70 C 166.40 470.20 159.60 464.10 153.40 457.30 C 166.60 469.90 181.70 480.30 198.10 487.90 C 206.30 491.70 214.80 494.80 223.50 497.20 C 232.20 499.60 241.10 501.30 250.10 502.20 C 268.00 504.10 286.30 502.90 303.90 498.80 C 321.30 494.70 338.30 487.70 353.70 478.10 Z" fill="#eef0f3" fill-rule="nonzero" group-id="23,101" node-id="1377" stroke="none" target-height="49" target-width="200.30002" target-x="153.4" target-y="457.3"/></g><g node-id="1425"><g node-id="1503"><path d="M 453.80 427.10 C 460.10 411.60 464.70 395.50 467.50 379.20 C 468.90 371.00 469.90 362.80 470.30 354.50 C 470.70 346.20 470.70 337.90 470.20 329.60 C 469.20 313.10 466.10 296.60 461.10 280.80 C 458.60 272.90 455.60 265.10 452.20 257.50 C 451.40 255.60 450.50 253.70 449.60 251.80 C 448.70 249.90 447.80 248.10 446.80 246.20 C 444.90 242.50 442.80 238.90 440.70 235.30 C 450.30 249.00 457.90 264.10 463.40 280.00 C 466.20 287.90 468.30 296.10 470.00 304.30 C 471.60 312.60 472.70 320.90 473.30 329.30 C 473.80 337.70 473.80 346.10 473.30 354.50 C 472.70 362.90 471.70 371.20 470.00 379.50 C 466.60 396.10 461.20 412.10 453.80 427.10 Z" fill="#eef0f3" fill-rule="nonzero" group-id="24,102" node-id="1385" stroke="none" target-height="191.8" target-width="33.099976" target-x="440.7" target-y="235.3"/></g><g node-id="1504"><path d="M 273.00 553.50 C 281.90 552.20 290.80 550.70 299.50 548.70 C 303.90 547.70 308.20 546.60 312.50 545.40 C 316.80 544.20 321.10 542.90 325.30 541.40 C 329.50 540.00 333.70 538.40 337.90 536.80 C 342.10 535.20 346.20 533.40 350.20 531.60 C 358.30 527.90 366.30 523.80 374.20 519.40 C 367.00 524.80 359.30 529.50 351.20 533.70 C 347.20 535.80 343.10 537.70 338.90 539.50 C 334.70 541.30 330.50 542.80 326.20 544.30 C 321.90 545.70 317.60 547.00 313.20 548.20 C 308.80 549.30 304.40 550.30 299.90 551.10 C 291.00 552.60 282.00 553.50 273.00 553.50 Z" fill="#eef0f3" fill-rule="nonzero" group-id="24,103" node-id="1390" stroke="none" target-height="34.099976" target-width="101.20001" target-x="273" target-y="519.4"/></g><g node-id="1505"><path d="M 87.90 463.30 L 97.40 474.80 C 98.20 475.70 99.00 476.70 99.80 477.60 L 102.20 480.40 C 103.80 482.30 105.40 484.20 107.10 486.00 C 108.70 487.90 110.40 489.70 112.10 491.50 L 114.60 494.20 C 115.50 495.10 116.30 496.00 117.10 496.90 L 127.40 507.70 C 123.20 505.00 119.20 501.90 115.50 498.60 C 113.60 497.00 111.80 495.20 110.00 493.40 C 108.20 491.60 106.50 489.80 104.80 487.90 C 103.20 486.00 101.50 484.10 100.00 482.10 C 98.50 480.10 96.90 478.10 95.50 476.00 C 92.70 472.10 90.10 467.80 87.90 463.30 Z" fill="#eef0f3" fill-rule="nonzero" group-id="24,104" node-id="1395" stroke="none" target-height="44.400024" target-width="39.5" target-x="87.9" target-y="463.3"/></g><path d="M 290.20 145.40 C 277.80 144.60 265.50 144.70 253.20 146.00 C 240.90 147.20 228.80 149.40 216.90 152.70 C 193.20 159.30 170.60 169.70 150.30 183.70 C 130.00 197.60 112.00 214.80 97.40 234.60 C 90.10 244.50 83.60 255.00 78.10 266.10 C 72.50 277.10 67.90 288.60 64.20 300.40 C 67.20 288.40 71.50 276.70 76.70 265.40 C 82.00 254.20 88.30 243.40 95.50 233.20 C 102.70 223.00 110.90 213.60 119.70 204.80 C 128.60 196.10 138.30 188.20 148.60 181.10 C 169.20 167.00 192.10 156.50 216.30 150.40 C 228.40 147.40 240.70 145.30 253.10 144.40 C 265.50 143.80 277.90 144.00 290.20 145.40 Z" fill="#eef0f3" fill-rule="nonzero" group-id="24,105" node-id="1400" stroke="none" target-height="156.59999" target-width="226.00002" target-x="64.2" target-y="143.8"/></g></svg>