<?xml version="1.0" encoding="utf-8"?>
<!-- Generator: Adobe Illustrator 23.1.0, SVG Export Plug-In . SVG Version: 6.00 Build 0)  -->
<svg version="1.1" id="图层_1" xmlns="http://www.w3.org/2000/svg" xmlns:xlink="http://www.w3.org/1999/xlink" x="0px" y="0px"
	 viewBox="0 0 750 1334" style="enable-background:new 0 0 750 1334;" xml:space="preserve">
<style type="text/css">
	.st0{fill:none;stroke:#CB6DA7;stroke-width:10;stroke-miterlimit:10;}
	.st1{fill:none;stroke:#A491C4;stroke-width:10;stroke-miterlimit:10;}
	.st2{fill:none;stroke:#F5B0A3;stroke-width:10;stroke-miterlimit:10;}
	.st3{fill:none;stroke:#9ED8F3;stroke-width:10;stroke-miterlimit:10;}
	.st4{fill:none;stroke:#A691C3;stroke-width:10;stroke-miterlimit:10;}
	.st5{fill:none;stroke:#F5A537;stroke-width:10;stroke-miterlimit:10;}
	.st6{fill:none;stroke:#DBC0DC;stroke-width:10;stroke-miterlimit:10;}
	.st7{fill:none;stroke:#EE9EC3;stroke-width:10;stroke-miterlimit:10;}
	.st8{display:none;}
	.st9{display:inline;fill:#BBE3F9;stroke:#335BA9;stroke-miterlimit:10;}
	.st10{display:inline;fill:#BBE3F9;stroke:#58BDAB;stroke-miterlimit:10;}
	.st11{display:inline;fill:none;stroke:#A691C3;stroke-width:6;stroke-miterlimit:10;}
	.st12{display:inline;fill:none;stroke:#B9DEC8;stroke-width:10;stroke-miterlimit:10;}
	.st13{display:inline;fill:#F5B082;stroke:#FBEDB7;stroke-miterlimit:10;}
	.st14{display:inline;fill:#ED7965;stroke:#FBEDB7;stroke-miterlimit:10;}
	.st15{display:inline;fill:#F19256;stroke:#F7ED81;stroke-miterlimit:10;}
	.st16{display:inline;fill:#BEE1D5;stroke:#FBEDB7;stroke-miterlimit:10;}
	.st17{display:inline;}
	.st18{fill:none;stroke:#F8BE8A;stroke-width:3;stroke-miterlimit:10;}
	.st19{display:inline;fill:none;stroke:#FADC9A;stroke-width:3;stroke-miterlimit:10;}
	.st20{fill:none;stroke:#F6D85E;stroke-width:3;stroke-miterlimit:10;}
	.st21{display:inline;fill:#919DCF;stroke:#FADC9A;stroke-width:3;stroke-miterlimit:10;}
	.st22{display:inline;fill:none;stroke:#F5B082;stroke-width:2;stroke-miterlimit:10;}
	.st23{display:inline;fill:#FACFAD;stroke:#3D7CC0;stroke-miterlimit:10;}
	.st24{display:inline;fill:#FBEDB7;stroke:#E83828;stroke-miterlimit:10;}
	.st25{display:inline;fill:#C8A5CC;stroke:#FFF100;stroke-miterlimit:10;}
	.st26{display:inline;fill:#FBEDB7;stroke:#EA5514;stroke-miterlimit:10;}
	.st27{display:inline;fill:#FACFAD;stroke:#2EA7E0;stroke-miterlimit:10;}
	.st28{display:inline;fill:#6187C5;stroke:#3D7CC0;stroke-width:0.9999;stroke-miterlimit:9.9995;}
	.st29{display:inline;fill:#6187C5;stroke:#3D7CC0;stroke-miterlimit:10;}
	.st30{display:inline;fill:#6187C5;stroke:#3D7CC0;stroke-width:1;stroke-miterlimit:10;}
	.st31{display:inline;fill:#6187C5;stroke:#3D7CC0;stroke-width:1;stroke-miterlimit:9.9999;}
</style>
<g id="图层_9">
	<path class="st0" d="M197.5,321.9c-0.9-3.5-4.4-30.2-4.4-30.2l14.2,24.6h21.3l-17.6,14.2v21l-11.8-17.5l-20.9,5.6L197.5,321.9z"/>
	<path class="st1" d="M592.2,581.8c-0.9-2.7-4.6-23.2-4.6-23.2l15,18.9h22.5l-18.6,10.9v16.1l-12.5-13.4l-22.1,4.3L592.2,581.8z"/>
	<path class="st2" d="M650.4,514.8c-0.1-0.4-0.7-3.7-0.7-3.7l2.3,3.1h3.4l-2.8,1.8v2.6l-1.9-2.2l-3.4,0.7L650.4,514.8z"/>
	<path class="st3" d="M578.2,335.6c-0.2-0.5-0.8-4.5-0.8-4.5l2.5,3.7h3.8l-3.1,2.1v3.1l-2.1-2.6l-3.7,0.8L578.2,335.6z"/>
	<path class="st4" d="M429.5,247.9c-0.4-0.7-1.9-6.3-1.9-6.3l6,5.2h9l-7.4,3v4.4l-5-3.7l-8.8,1.2L429.5,247.9z"/>
	<path class="st5" d="M173.6,530.8c-0.2-0.4-0.8-3.8-0.8-3.8l2.5,3.1h3.8l-3.1,1.8v2.6l-2.1-2.2l-3.7,0.7L173.6,530.8z"/>
	<path class="st6" d="M268.8,650.6c-0.2-0.4-0.8-3.8-0.8-3.8l2.5,3.1h3.8l-3.1,1.8v2.6l-2.1-2.2l-3.7,0.7L268.8,650.6z"/>
	<path class="st7" d="M85.5,483.4c-0.2-0.9-0.8-7.5-0.8-7.5l2.5,6.1h3.8l-3.2,3.5v5.2l-2.1-4.3l-3.8,1.4L85.5,483.4z"/>
</g>
<g id="图层_4" class="st8">
	<polygon class="st9" points="400,403.4 369.4,424.9 366.1,387.7 	"/>
	<polygon class="st9" points="369.3,423.7 338.8,445.2 335.5,408 	"/>
	<polygon class="st9" points="404.1,440.1 373.5,461.6 370.2,424.4 	"/>
	<polygon class="st9" points="383.2,470.1 352.6,491.6 349.3,454.5 	"/>
	<polygon class="st9" points="416.4,457.7 385.8,479.1 382.5,442 	"/>
	<polygon class="st9" points="438.5,455.4 408,476.9 404.7,439.7 	"/>
	<polygon class="st9" points="441.8,495.9 411.3,517.4 407.9,480.2 	"/>
	<polygon class="st9" points="412.9,488.9 382.4,510.3 379,473.2 	"/>
	<polygon class="st9" points="376.4,500.3 345.8,521.8 342.5,484.6 	"/>
	<polygon class="st9" points="343.5,484.6 313,506.1 309.6,468.9 	"/>
	<polygon class="st9" points="341.1,444.4 310.5,465.9 307.2,428.7 	"/>
	<polygon class="st9" points="338.9,407.6 308.4,429.1 305.1,391.9 	"/>
	<polygon class="st9" points="308.7,430.6 278.1,452.1 274.8,414.9 	"/>
	<polygon class="st9" points="324.5,502.2 294,523.7 290.7,486.5 	"/>
	<polygon class="st10" points="391.9,515.5 361.4,537 358.1,499.8 	"/>
	<polygon class="st9" points="407.5,536.7 377,558.1 373.6,521 	"/>
	<polygon class="st9" points="437.3,537.6 406.8,559.1 403.4,521.9 	"/>
	<polygon class="st9" points="447.3,533 411.3,523.3 437.7,496.9 	"/>
	<polygon class="st9" points="487.3,495 456.8,516.5 453.4,479.3 	"/>
	<polygon class="st9" points="505.7,473.7 475.2,495.2 471.9,458 	"/>
	<polygon class="st9" points="432.7,381.9 402.2,403.4 398.9,366.2 	"/>
	<polygon class="st9" points="366.3,386.5 335.8,408 332.4,370.8 	"/>
	<polygon class="st9" points="367,443.6 335.7,464.7 333.1,427.9 	"/>
	<polygon class="st9" points="362.2,536.7 331.7,558.1 328.3,521 	"/>
	<polygon class="st9" points="333.1,515.4 309.4,544.1 296.4,509.1 	"/>
	<polygon class="st9" points="334.4,539.2 303.9,560.7 300.5,523.5 	"/>
	<polygon class="st9" points="370.9,557.4 340.4,578.9 337.1,541.7 	"/>
	<polygon class="st9" points="351.3,512.6 320.8,534.1 317.5,496.9 	"/>
	<polygon class="st9" points="389.1,557.5 351.8,557.5 370.5,525.2 	"/>
	<polygon class="st9" points="419.5,562.7 382.2,562.7 400.9,530.3 	"/>
	<polygon class="st9" points="386.6,497.8 349.2,497.8 367.9,465.5 	"/>
	<polygon class="st9" points="420.7,529.3 383.3,529.3 402,497 	"/>
	<polygon class="st9" points="422.6,485 385.3,485 403.9,452.7 	"/>
	<polygon class="st9" points="434.5,450.5 397.1,450.5 415.8,418.1 	"/>
	<polygon class="st9" points="439,412.4 401.7,412.4 420.3,380 	"/>
	<polygon class="st9" points="409.6,397.1 372.3,397.1 390.9,364.8 	"/>
	<polygon class="st9" points="386.6,391.7 349.2,391.7 367.9,359.4 	"/>
	<polygon class="st9" points="338.3,400 300.9,400 319.6,367.7 	"/>
	<polygon class="st9" points="312.9,421.5 275.5,421.5 294.2,389.1 	"/>
	<polygon class="st9" points="307.3,465.2 270,465.2 288.7,432.9 	"/>
	<polygon class="st9" points="300,502.7 262.7,502.7 281.3,470.4 	"/>
	<polygon class="st9" points="307.3,527.6 270,527.6 288.7,495.3 	"/>
	<polygon class="st9" points="502.2,448.7 464.9,448.7 483.6,416.4 	"/>
	<polygon class="st9" points="478.7,465.5 441.4,465.5 460.1,433.2 	"/>
	<polygon class="st9" points="470.5,426.9 433.1,426.9 451.8,394.5 	"/>
	<polygon class="st9" points="480,405.4 442.7,405.4 461.4,373.1 	"/>
	<polygon class="st9" points="457.7,394.6 420.3,394.6 439,362.3 	"/>
	<polygon class="st9" points="473.9,530.7 436.5,530.7 455.2,498.4 	"/>
	<polygon class="st9" points="304,447.3 304,484.6 271.7,465.9 	"/>
	<polygon class="st9" points="465.4,434.2 434.9,455.6 431.5,418.5 	"/>
	<polygon class="st9" points="460.8,398.3 433.1,419.4 432.2,381 	"/>
	<polygon class="st9" points="483,415.5 466.3,435.7 462.9,398.5 	"/>
	<polygon class="st9" points="490.4,452.1 470.8,472.6 467.5,435.4 	"/>
	<polygon class="st9" points="461.3,473.2 441.6,493.7 438.3,456.5 	"/>
	<polygon class="st9" points="454.6,477 424.1,498.4 420.7,461.3 	"/>
	<polygon class="st9" points="464,541.7 433.5,563.1 430.1,526 	"/>
	<polygon class="st9" points="493.2,509 462.6,530.4 459.3,493.3 	"/>
	<polygon class="st9" points="444.4,550.3 418.5,577.2 408.1,541.4 	"/>
	<polygon class="st9" points="404.1,558.2 378.3,585.2 367.9,549.3 	"/>
	<polygon class="st9" points="372.1,516.3 346.3,543.2 335.9,507.4 	"/>
	<polygon class="st9" points="357.2,490.3 331.3,517.2 320.9,481.4 	"/>
	<polygon class="st9" points="358.4,462 332.6,489 322.2,453.1 	"/>
	<polygon class="st9" points="331.1,459.4 305.3,486.4 294.8,450.5 	"/>
	<polygon class="st9" points="416.8,363.9 391,390.8 380.6,355 	"/>
	<polygon class="st9" points="379.8,448.3 354,475.3 343.6,439.4 	"/>
	<polygon class="st9" points="302.9,434.8 277.1,461.7 266.7,425.9 	"/>
	<polygon class="st9" points="393.8,469.9 368,496.8 357.6,461 	"/>
	<polygon class="st9" points="461.5,554.9 429.2,573.6 429.2,536.2 	"/>
	<polygon class="st9" points="402.8,456.4 377,483.4 366.6,447.5 	"/>
	<polygon class="st9" points="412.1,484.3 386.3,511.3 375.8,475.5 	"/>
	<polygon class="st9" points="396.8,491.1 371,518 360.6,482.2 	"/>
	<polygon class="st9" points="432.6,488.9 396.8,478.3 423.9,452.6 	"/>
	<polygon class="st9" points="414.1,584.2 378.3,573.6 405.3,547.9 	"/>
	<polygon class="st9" points="340.4,569.7 304.6,559.2 331.6,533.4 	"/>
	<polygon class="st9" points="419.8,519 385.4,504.6 415.1,482 	"/>
	<polygon class="st9" points="450.9,535 415,524.5 442.1,498.7 	"/>
	<polygon class="st9" points="475.5,505.4 439.7,494.9 466.7,469.2 	"/>
	<polygon class="st9" points="406.3,456.4 370.5,445.9 397.5,420.1 	"/>
	<polygon class="st9" points="383.6,448.5 353.1,437.5 383.6,416 	"/>
	<polygon class="st9" points="338.5,440.8 304.6,425.1 335.2,403.6 	"/>
	<polygon class="st9" points="449.6,424.3 420,447 415.2,410 	"/>
	<polygon class="st9" points="470.8,465.2 433.5,468.2 449.6,434.5 	"/>
	<polygon class="st9" points="509.9,476.4 472.6,479.3 488.7,445.6 	"/>
	<polygon class="st9" points="371,418.5 333.8,421.5 349.9,387.8 	"/>
	<polygon class="st9" points="377.9,380.1 347,400.9 344.3,363.7 	"/>
	<polygon class="st9" points="398.9,373.6 368,394.5 365.4,357.3 	"/>
	<polygon class="st9" points="437.3,370.9 406.4,391.8 403.8,354.5 	"/>
	<polygon class="st9" points="507.9,407.6 477,428.5 474.4,391.2 	"/>
	<polygon class="st9" points="506.4,431 475.5,451.9 472.9,414.7 	"/>
	<polygon class="st9" points="503.7,487 482.6,517.8 466.5,484.1 	"/>
	<polygon class="st9" points="327.1,437 306,467.8 289.9,434.1 	"/>
	<polygon class="st9" points="299.9,463.1 278.8,493.8 262.7,460.1 	"/>
	<polygon class="st9" points="304.2,442.9 283.1,473.7 267,440 	"/>
	<polygon class="st9" points="476.5,521.5 455.3,552.2 439.3,518.5 	"/>
	<polygon class="st9" points="495.7,524.5 464.8,545.3 462.1,508.1 	"/>
	<polygon class="st9" points="361.2,363.6 340,394.4 324,360.7 	"/>
	<polygon class="st9" points="303.4,505.5 282.2,536.2 266.2,502.5 	"/>
	<polygon class="st9" points="433.1,419.4 402.6,440.9 399.3,403.7 	"/>
	<polygon class="st9" points="414.8,421.4 384.3,442.9 380.9,405.7 	"/>
	<polygon class="st9" points="398.5,436.8 368,458.3 364.6,421.1 	"/>
	<polygon class="st9" points="409.2,453.1 378.7,474.5 375.3,437.4 	"/>
	<polygon class="st9" points="424,455.5 393.5,477 390.1,439.8 	"/>
</g>
<g id="图层_8" class="st8">
	<path class="st11" d="M400.8,405.4"/>
	<path class="st11" d="M531.8,380.8"/>
	<path class="st12" d="M242,447.6c0,0-272.3,110.5-46.5,147.2c131.6,21.4,536.6-74.5,468.4-189.5"/>
</g>
<g id="锦鲤" class="st8">
	<path class="st13" d="M186.3,957.2c-2.9,1.9,42.8-20.1,27.1-61.3c0,0-7.1-23.5-16.2-40.7c0,0-4.3-12.1,0.9-15.2s-19.6,8.9-19.6,8.9
		c0.8,0.9,2,3.6,1.9,3.2c0.8-3.4,10-1.5-1.6,6.1c-5.8,3.8-13.7,2.1-17.3,7.7c-9.4,14.6-7.1,11.8,7.9-0.8c5.1-4.3,6.5,0.5-0.4,8
		c-0.5,0.6-1.1,1.1-1.7,1.5c-4.1,2.7-20.1,14.5-13.6,31.8c-0.5-0.6-1.3-14.9,14.3-11.8c-5.7,0.4-11.3,10.7-12.3,21.2
		c-1.9,19.9,2.9,32.4,5.9,27.2c10.8-19.2,8.4-10.8,9.8,4c0.4,4.6,9.7-1,16.3-9.6c0,0,13.8-26.6,9.1-56c0,0,14.7,58.3-22.8,76
		c0,0,24.3-7.8,35.6-29.4C209.6,927.8,199.6,948.4,186.3,957.2z"/>
	<path class="st13" d="M72,753.8L72,753.8c0,0,6.3-6,19.9-8.9c37-7.8,44.9-11.1,45-11.1l17.2-6.2c0,0-8.6-7.1-18.4-11.4
		c-11.8-5.2-14.8-3.4-27.1-10.3c-5.7-3.2-10.8-8.9-15.2-17.6c-13.1-25.8-48.6-19-48.6-19c-8.5,1.8-18.2,7.7-16.4,11.1
		c0.5,0.9,2.1-3.7,16.4-5.9c20.1-3.1,19.6,11,18,9.9c-11.6-6.9-36.3-0.2-15.5,0.3c3.7,0.1,8.5,0.4,14.3,5.6c0,0,0,0.1,0,0.1
		c-2.4-0.4-36.9-5.7-11.9,5.2c0,0,0,0,0,0.1c-0.7,0.3-5.6,2.7-2.9,7.3c1.6,2.6,14,9.5,13.1,13.2c-1.2,4.9-24.6,0-6.3,9.4
		c0,0,0,0,0,0.1l-3.9,3.8l0,0c-1.3,0.9-19.4,15.5-5.8,12.8c3.4-0.7-2.3,14.9-0.8,18.8c4.7,11.7,0.9,1.4,6.2-9.9
		c10.9-23.3,66.7-20.6,33.8-11.8c-32.8,8.8-35.1,24.1-30.3,34.5C56.2,781.2,48.3,772,72,753.8z"/>
	<path class="st14" d="M157.4,727.4c1.7-0.5,70.1-17.2,108.8-3.4c0,0,5.9,2,8.3,5.9c2.5,3.9,2.5,9.3,2.5,15.2s-0.5,24-4.9,34.8
		s-15.7,31.9-35.8,42.2c-7.9,4.1-13.1,7.2-17.7,9.8c-7.1,4.1-12.8,7-24.9,10.3c-20.1,5.4-55.9,10.8-69.6,23
		c-13.7,12.3-23.5,24.5-27.4,42.2c-3.9,17.7-12.3,35.3-3.4,48s33.8,40.7,60.3,41.2s30.9-8.3,36.8-7.3c10.2,1.7,17.1,5,12.6,5.5
		c-5.5,0.6-34.2,5.5-19.8,11.7c11.4,4.8-28.4-1.3-13.5,4.9c4.6,1.9-2.7,7.3-5.6,11.3c-10.1,14.3-50.2-9.7-66.7-21.3
		c-18.3-13,6.1,19.5,17.2,39.5c3.8,6.8-5.6,4.7-9.8,4.2c-42.1-5.6-32.7-20.4-32.9-24.4c-2-47.3,0.1-37.4-19.8,0.5
		c-5.4,10.3-49.4,38.5-16.6,1.5c11.8-13.2,10.4-29.7,13.9-39c16.2-42.6,8-24.5,2.7-65.2c0,0-8-18.4,0.3-72.3c0,0-4.8-68.9,74.7-107
		C136.2,734.7,146.2,730.8,157.4,727.4z"/>
	<path class="st15" d="M181.3,787c0.4,0,0.8-0.2,1.1-0.3c14.2-4.9-7.2,53.4-112.2,49.6c-3.3-0.1-13-1-27.7-5.2
		c-0.2,0-0.4-0.1-0.5-0.2c-2.5-1-22.2-8.6-29.9-6.3c-4.5,1.4,17.6,8.2,15.7,13.2c-3.4,9.2-29.7,25.9,12.6,20.1
		c8.2-1.1,33.8-8.1,40.9-15c0.2-0.2,0.4-0.4,0.7-0.6c3.3-2.3,27.7-19.7,48.8-32.9C149.8,797.5,171.2,788.4,181.3,787z"/>
	<circle class="st16" cx="240.7" cy="735.3" r="7.5"/>
	<path class="st15" d="M276.4,736.6c0,0-8.4,6.4-13,16.2c-4.6,9.8,13.7-2,13.6-5.9S276.4,736.6,276.4,736.6z"/>
	<path class="st13" d="M213.1,737.7c0,0-33.1,37.6,14.9,33.2c0,0-24.7,25.8-39.2,19.1c0,0-8.7-4.3-9.8-13.2
		c-0.9-7.4,3.5-17.9,22.7-31.7C205.1,742.7,208.8,740.2,213.1,737.7z"/>
</g>
<g id="图层_10" class="st8">
	<g class="st17">
		<g>
			<g>
				<defs>
					<path id="SVGID_1_" d="M346,908.3l419.6,114.3l0.3-123L536.8,835c0,0-66-23.5-129.9,18.2l-63,40.9
						C338.1,897.8,339.5,906.5,346,908.3z"/>
				</defs>
				<clipPath id="SVGID_2_">
					<use xlink:href="#SVGID_1_"  style="overflow:visible;"/>
				</clipPath>
			</g>
		</g>
		<path class="st18" d="M346,908.3l419.6,114.3l0.3-123L536.8,835c0,0-66-23.5-129.9,18.2l-63,40.9
			C338.1,897.8,339.5,906.5,346,908.3z"/>
	</g>
	<path class="st19" d="M400.9,857.4l38.1,10.4c0,0,35.7-37.7,85.8-35.8"/>
	<g class="st17">
		<g>
			<g>
				<defs>
					<path id="SVGID_3_" d="M419.9,904.1c0,0,25.2-21.1,47.9-18.5l298.2,83.7l0,29.7L419.9,904.1z"/>
				</defs>
				<clipPath id="SVGID_4_">
					<use xlink:href="#SVGID_3_"  style="overflow:visible;"/>
				</clipPath>
			</g>
		</g>
		<path class="st20" d="M419.9,904.1c0,0,25.2-21.1,47.9-18.5l298.2,83.7l0,29.7L419.9,904.1z"/>
	</g>
	<path class="st21" d="M525.5,852.1c-4.5,1.6-14.4,5.5-21.2,12.5c-4,4.2-2.2,11.1,3.4,12.7l85.2,24.3c3.7,1.1,7.7-0.9,9.1-4.5
		L607,885c1.7-4.1-0.5-8.8-4.8-10.1l-71.9-22.8C528.7,851.6,527.1,851.6,525.5,852.1z"/>
	<g class="st17">
		<g>
			<g>
				<defs>
					<path id="SVGID_5_" d="M628.1,885.3l-15.4,40.4l19.3,5.5l9.8-31.3c2.3-7.3-3.2-14.7-10.8-14.7L628.1,885.3z"/>
				</defs>
				<clipPath id="SVGID_6_">
					<use xlink:href="#SVGID_5_"  style="overflow:visible;"/>
				</clipPath>
			</g>
		</g>
		<path class="st18" d="M628.1,885.3l-15.4,40.4l19.3,5.5l9.8-31.3c2.3-7.3-3.2-14.7-10.8-14.7L628.1,885.3z"/>
	</g>
	<path class="st21" d="M658.3,908.2l-2.9,12.3l63.8,17.3l26.2-19.7l-71.3-19.3C667.1,896.9,660,901.1,658.3,908.2z"/>
</g>
<g id="图层_11" class="st8">
	<path class="st22" d="M72.5,1031.8c-3.4-0.4-38.2,2-24.4,41c0,0,15.4,35.1,68.2,11.5"/>
	<path class="st22" d="M162.8,1025c-20.4,28.5-53.7,23.2-47.7,24.1c2.6,0.4-43.8-6.9-47.6,12.5c-1.4,7.2,5.1,13.7,12.4,14.6
		c5.6,0.7,12.8,0.4,19.1-3.6c10.2-6.4,44.9-17.8,61.6-7.4"/>
	<path class="st22" d="M178.1,1056.9c0,0,10-22.6,19.2,1.8c0,0,2.2,11.7-19.2,10.4c-7-1.8-39.1-2.9-17-24.4c0,0,16.7-12.7,36.3-5.2
		c0,0,27.1,7.2,19.1,27.1c-0.7,1.7-1.8,3.1-3.2,4.2c-4.6,3.6-19.1,12.9-32.8,10.9c-1.1-0.2,0-0.1-1.1-0.2c-2.8-0.1-8.7-1.9-19-3.7
		c-22.7-3.8-44.5,7-45.3,6.8"/>
	<path class="st22" d="M162.8,1025c1.5-1,21.3-19.8,45.7,3.9c2.1,2.1,4.8,3.5,7.7,4.2c5.8,1.4,8.6-4.6,23.1,1.4
		c0.9,0.4,8,2.1,12.1-1c7.7-5.8,32.6,7,2.4,19.9"/>
	<path class="st22" d="M180.5,1000.8c0,0,39.6-7.8,42.2,18.3c0,0,27.9-25.5,48.9-9.7c21,15.8,3.5,32,0,32.4
		c-3.5,0.4,31.9-2.2,17,26.2c0,0-7.4,15.8-37.1,12.3c0,0-1.6-3.2-17.9-4.2c-3.3-0.2-6.4-2.1-7.9-5c-1.3-2.6-1.6-6.2,1.7-10.8
		c4.4-6.1,11.8-9.3,19.3-8.8c7.5,0.5,16.2,3.1,15.7,12.7c0,0-11.8,12.8-15.7,0"/>
	<path class="st22" d="M178.2,1080.3c0,0-3.4,2.1,30.2,4.4c1.2,0.1,2.4,0.1,3.6,0c1.9-0.2,5.1-0.3,7.6,0.7c3.4,1.4,2.3,6.6-1.4,6.6
		c-10.7,0.1-37,1-36,9c0.2,1.7,1.9,3,3.6,2.9c7.1-0.2,28.6-0.5,26.7,2.4c0,0-6,7.2-32.9,4.4c-1-0.1-2-0.1-3,0
		c-3.4,0.4-11.3,1.6-16.5,4.2c-4.7,2.4-3.4,9.5,1.9,10.3c9.3,1.3,31.1,2.8,72-1c0,0,58.4-10.9,61,3.9c0,0,3.8,8.6-18.9,6.2
		c0,0-40.2-3.1-55.4,3.9c0,0-19.9,5.5,1.2,5.5l70.2-1.6l116.2-4.7l-91.3-3.1c0,0,23.6-10.8,6.5-17c-1.1-0.4-7.2-2.6-8.3-2.9
		c-9-2.3-25.7-6.2-73.5-1c-2.6,0.3-3.1-3.6-0.6-3.9c1.6-0.3,3.9-0.3,6.8-0.2c-0.2-0.1,2.4-5.9-11.3-8.8c-1.7-0.4-1.9-2.7-0.3-3.3
		c2.2-0.8,20.4-6.7,15.7-14.6c-0.9-1.4-2.2-2.5-3.8-3.1c-4.8-1.8-17.1-3.4-27-2.2"/>
	<path class="st22" d="M9.9,1215.4c0.3,0,1.3,0.3,2.8,0.8c7.5,2.4,28.8,9.2,50.3,4.1c0,0,34.5-3.4,37.7-27.2c0.3-2.6,0-5.1-0.6-7.6
		c-1.6-6.3,1.8-31.3,30.9-25.8c0,0,25.9,6.2,17.1,31.3c0,0,34.8-4.2,29.6,18.5c0,0,1.8,12.7-20.5,9.6c0,0,12.5,14.4-14.6,17.4
		c0,0-16.5,2.6-23.1-5c-0.7-0.8-1.2-1.9-1.6-2.9c-0.9-2.5-4.8-8.6-21.9-4.7c0,0-37.1,5.2-56.3,1.3L9.9,1215.4z"/>
	<path class="st22" d="M90.9,1218.3c3.6-1.2,6.7-1.3,14.2-16.3c1-2.1,0.4-4.6,0-6.8c-0.3-1.4,0.4-4.1,4.6-9c0,0,19.1-15.5,27.3-2.2
		c0.8,1.2,1.7,2.3,2.8,3.3c1.8,1.6,3.9,5.1,1,11.5c0,0,20.4,5.3,14.4,15.6c-2.1,3.6-7.1,9.4-17.5,9.4c-20.4,0-16.1-3-27.4-5.5
		C110.1,1218.3,96,1220.4,90.9,1218.3"/>
	<path class="st22" d="M123.3,1215.8c6,2.9,10.1-0.1,10.3-0.2c10.3-12.2-3.2-9.3-0.6-17.6c2.2-7-10.5-6.3-15,2.1
		C116.1,1203.5,116.9,1212.7,123.3,1215.8z"/>
	<path class="st22" d="M717.6,763.3c7.7-3.2,16.5-2.6,23.6,1.8c2.9,1.8,5.1,3.3,5,3.7c-0.4,1.7-10.3-1.8-17.7,0.5
		c-8.6,2.7-13.6,6.8-16.3,7.9c-23.9,9.7-14.8,1.1-33.3,0.7c-3.2-0.1-6.2,1.6-8.6,3.7c-2.7,2.3-7.2,5.1-12.8,5
		c-4.4-0.1-8.9-4.8-16.2-2.9c-10.3,2.8-9.9,13.2-10,15.8c-0.4,9.9-4.3,17.2-21.6,21.9c-11.5,3.2-23.8,2-34.2-3.8
		c-8.8-4.9-16.1-12.8-10.6-24.9c0,0-23.1,6.3-26.1-20.6c0,0-3.9-18.5,18.5-13.5c0,0-9.2-19.9,16.2-21.5c1.1-0.1,2.1-0.2,3.2-0.4
		c4.5-0.8,19.8-1.9,23.8,12.7c4.3,15.9,18.7,1.7,20.3-1.7c4.2-9,16.8-7.9,20-8.4c18.7-2.7,8.9,22,26.4,23.3c8,0.6,10.6,3.2,11.6,4
		c12.4,8.3,17.7-5,25.2,2.5C708.7,773.8,712.2,767.2,717.6,763.3L717.6,763.3z"/>
	<path class="st22" d="M581.6,755.8c-4,1.5-5.5,4.6-6.1,7.3c-0.8,3.7,1.1,7.4,4.9,9.6c1.5,0.9,4.2,3.8,4.3,4
		c3.9,12.2-5.7,10.5-5.5,16.3c0.3,6.5,12.2,9,16,9c5.7,0,14,0,21-5.3c1.8-1.3,4.9-7.5,5.9-9.7c3.1-6.4,10.1-11.2,18.8-12.5l9.2-1.4
		l-3.6-3c-4.6-3.8-11-6.1-17.8-6c-5.1,0-8,0.9-13.7,2.2c-3.1,0.7-5.3,1.8-7.1,2C595.4,769.9,595.9,750.4,581.6,755.8z"/>
</g>
<g id="图层_13" class="st8">
	<path class="st23" d="M488.1,1072.1c0-2.1,4.1-20.9,29-17.6l-2-11.6l28.2-3.5v9.7c0,0,22.2-4.4,31.8,9.6l5.7-6.1l19.6,15.7
		l-7.6,6.1c0,0,14.7,19.1,6.6,26.9l12.8,0l0.5,21.3l-12.9-1.5c0,0,7.8,16.2-4.1,26.7l5.1,3.7l-15.4,17.7l-10-6.9c0,0-5.3,9-25.6,6.9
		v11.7l-33.2-3l3.2-11.7c0,0-23.3-2.5-30.3-19.2l-11.3,7.2l-8.5-24.7l11.3-1.7c-7.6-8,1.8-28.9-1.3-28.4c-4.2,0.7-12.5-2.6-12.9-3.1
		c1.3-9.4,2.8-28.9,3.6-27.8C471.3,1069.1,488.1,1072.1,488.1,1072.1z"/>
	<circle class="st23" cx="541" cy="1112.9" r="38.2"/>
	<circle class="st23" cx="539.9" cy="1112.9" r="26.8"/>
	<path class="st24" d="M278.1,1283.4c0-0.9,1.9-9.7,13.4-8.1l-0.9-5.4l13-1.6v4.4c0,0,10.2-2,14.7,4.4l2.6-2.8l9,7.2l-3.5,2.8
		c0,0,6.8,8.8,3,12.4l5.9,0l0.2,9.8l-5.9-0.7c0,0,3.6,7.5-1.9,12.3l2.4,1.7l-7.1,8.1l-4.6-3.2c0,0-2.4,4.1-11.8,3.2v5.4l-15.3-1.4
		l1.5-5.4c0,0-10.7-1.2-14-8.9l-5.2,3.3l-3.9-11.4l5.2-0.8c-3.5-3.7,0.8-13.3-0.6-13.1c-1.9,0.3-5.8-1.2-5.9-1.4
		c0.6-4.3,1.3-13.3,1.7-12.8C270.4,1282,278.1,1283.4,278.1,1283.4z"/>
	<circle class="st24" cx="302.5" cy="1302.2" r="17.6"/>
	<circle class="st24" cx="302" cy="1302.2" r="12.3"/>
	<path class="st9" d="M511.2,1228.2c0-1.2,2.5-12.4,17.2-10.4l-1.2-6.9l16.7-2.1v5.7c0,0,13.2-2.6,18.9,5.7l3.4-3.6l11.6,9.3
		l-4.5,3.6c0,0,8.7,11.3,3.9,15.9l7.6,0l0.3,12.6l-7.6-0.9c0,0,4.6,9.6-2.4,15.8l3,2.2l-9.1,10.5l-6-4.1c0,0-3.1,5.3-15.2,4.1v6.9
		l-19.7-1.8l1.9-7c0,0-13.8-1.5-18-11.4l-6.7,4.3l-5-14.6l6.7-1c-4.5-4.8,1-17.1-0.8-16.8c-2.5,0.4-7.4-1.6-7.6-1.8
		c0.8-5.6,1.6-17.1,2.2-16.5C501.2,1226.4,511.2,1228.2,511.2,1228.2z"/>
	<circle class="st9" cx="542.6" cy="1252.4" r="22.7"/>
	<circle class="st9" cx="541.9" cy="1252.4" r="15.9"/>
	<path class="st25" d="M637.2,1090.7c0-1.5,3-15.3,21.1-12.8l-1.4-8.5l20.5-2.6v7c0,0,16.2-3.2,23.2,7l4.1-4.4l14.3,11.4l-5.6,4.4
		c0,0,10.7,13.9,4.8,19.6l9.3,0l0.4,15.5l-9.4-1.1c0,0,5.7,11.8-3,19.4l3.7,2.7l-11.2,12.9l-7.3-5c0,0-3.8,6.5-18.7,5v8.5l-24.2-2.2
		l2.3-8.6c0,0-17-1.8-22.1-14l-8.2,5.3l-6.2-18l8.2-1.2c-5.5-5.8,1.3-21-0.9-20.7c-3.1,0.5-9.1-1.9-9.4-2.2c1-6.9,2-21,2.7-20.3
		C624.9,1088.5,637.2,1090.7,637.2,1090.7z"/>
	<circle class="st25" cx="675.8" cy="1120.5" r="27.8"/>
	<circle class="st25" cx="674.9" cy="1120.5" r="19.5"/>
	<path class="st26" d="M612,1030.6c0-0.8,1.6-8.2,11.3-6.9l-0.8-4.5l11-1.4v3.8c0,0,8.7-1.7,12.4,3.7l2.2-2.4l7.7,6.1l-3,2.4
		c0,0,5.7,7.4,2.6,10.5l5,0l0.2,8.3l-5-0.6c0,0,3,6.3-1.6,10.4l2,1.4l-6,6.9l-3.9-2.7c0,0-2.1,3.5-10,2.7v4.6l-12.9-1.2l1.3-4.6
		c0,0-9.1-1-11.8-7.5l-4.4,2.8l-3.3-9.6l4.4-0.7c-3-3.1,0.7-11.3-0.5-11.1c-1.6,0.3-4.9-1-5-1.2c0.5-3.7,1.1-11.3,1.4-10.8
		C605.4,1029.4,612,1030.6,612,1030.6z"/>
	<circle class="st26" cx="632.6" cy="1046.6" r="14.9"/>
	<circle class="st26" cx="632.2" cy="1046.6" r="10.4"/>
	<path class="st9" d="M403,1085.6c0-0.8,1.6-8.2,11.3-6.9l-0.8-4.5l11-1.4v3.8c0,0,8.7-1.7,12.4,3.7l2.2-2.4l7.6,6.1l-3,2.4
		c0,0,5.7,7.4,2.6,10.5l5,0l0.2,8.3l-5-0.6c0,0,3,6.3-1.6,10.4l2,1.4l-6,6.9l-3.9-2.7c0,0-2.1,3.5-10,2.7v4.6l-12.9-1.2l1.3-4.6
		c0,0-9.1-1-11.8-7.5l-4.4,2.8l-3.3-9.6l4.4-0.7c-3-3.1,0.7-11.3-0.5-11.1c-1.6,0.3-4.9-1-5-1.2c0.5-3.7,1.1-11.3,1.4-10.8
		C396.4,1084.5,403,1085.6,403,1085.6z"/>
	<circle class="st9" cx="423.6" cy="1101.6" r="14.9"/>
	<circle class="st9" cx="423.2" cy="1101.6" r="10.4"/>
	<path class="st25" d="M350.2,1197.1c0-2.3,4.7-23.5,32.6-19.8l-2.2-13.1l31.6-4v10.8c0,0,25-4.9,35.8,10.8l6.4-6.9l22.1,17.7
		l-8.6,6.9c0,0,16.5,21.4,7.4,30.2l14.4,0l0.5,23.9l-14.5-1.7c0,0,8.8,18.2-4.6,29.9l5.8,4.2l-17.3,19.8l-11.3-7.8
		c0,0-5.9,10.1-28.8,7.8v13.2l-37.3-3.4l3.6-13.2c0,0-26.2-2.8-34-21.6l-12.7,8.1l-9.6-27.7l12.7-1.9c-8.6-9,2-32.5-1.4-31.9
		c-4.7,0.8-14-3-14.5-3.4c1.5-10.6,3.1-32.5,4.1-31.3C331.2,1193.7,350.2,1197.1,350.2,1197.1z"/>
	<circle class="st25" cx="409.6" cy="1243" r="43"/>
	<circle class="st25" cx="408.3" cy="1243" r="30.1"/>
	<path class="st27" d="M607.2,1210.5c0-2.1,4.2-20.9,29-17.6l-2-11.6l28.2-3.5v9.7c0,0,22.2-4.4,31.8,9.6l5.7-6.1l19.6,15.7
		l-7.6,6.1c0,0,14.7,19.1,6.6,26.9l12.8,0l0.5,21.3l-12.9-1.5c0,0,7.8,16.2-4.1,26.7l5.1,3.7l-15.4,17.7l-10-6.9c0,0-5.3,9-25.6,6.9
		v11.7l-33.2-3l3.2-11.7c0,0-23.3-2.5-30.3-19.2l-11.3,7.2l-8.5-24.7l11.3-1.7c-7.6-8,1.8-28.9-1.3-28.4c-4.2,0.7-12.5-2.6-12.9-3.1
		c1.3-9.4,2.8-28.9,3.6-27.8C590.3,1207.5,607.2,1210.5,607.2,1210.5z"/>
	<circle class="st27" cx="660.1" cy="1251.3" r="38.2"/>
	<circle class="st27" cx="658.9" cy="1251.3" r="26.8"/>
</g>
<g id="图层_12" class="st8">
	<path class="st24" d="M676.4,773.8c0,0,25.5,29.5,56,0"/>
	
		<rect x="724.6" y="795" transform="matrix(0.9022 -0.4312 0.4312 0.9022 -287.6493 395.2392)" class="st28" width="6.7" height="74.1"/>
	<rect x="694.3" y="629.4" class="st29" width="20.1" height="135.5"/>
	
		<rect x="700.3" y="805.8" transform="matrix(1 -1.054027e-03 1.054027e-03 1 -0.8843 0.7427)" class="st30" width="7.8" height="67.2"/>
	
		<rect x="643.7" y="826.7" transform="matrix(0.4196 -0.9077 0.9077 0.4196 -357.9326 1101.2803)" class="st31" width="77" height="7.6"/>
	<circle class="st29" cx="704.3" cy="777" r="28.1"/>
	<path class="st29" d="M698.8,600.1c0-3.9,3.1-123.4,3.1-123.4l7.8,123.4H698.8z"/>
	<circle class="st29" cx="704.3" cy="610.9" r="22"/>
	<circle class="st29" cx="703.5" cy="535.2" r="7.1"/>
</g>
</svg>
